<svg width="45" height="45" viewBox="0 0 45 45" fill="none" xmlns="http://www.w3.org/2000/svg">
<path d="M0 22.5011C0 34.9075 10.0882 45 22.5011 45C34.9096 45 45 34.9118 45 22.5011C45 10.0882 34.9053 0 22.5011 0C10.0947 0 0 10.0882 0 22.5011ZM2.29668 22.5011C2.29668 11.3568 11.3589 2.29454 22.5011 2.29454C33.6411 2.29454 42.7033 11.3589 42.7033 22.5011C42.7033 33.6411 33.6411 42.7033 22.5011 42.7033C11.3589 42.7033 2.29454 33.6411 2.29454 22.5011H2.29668Z" fill="white"/>
<path d="M22.4923 43.756C34.2305 43.756 43.7463 34.2403 43.7463 22.502C43.7463 10.7638 34.2305 1.24805 22.4923 1.24805C10.754 1.24805 1.23828 10.7638 1.23828 22.502C1.23828 34.2403 10.754 43.756 22.4923 43.756Z" fill="#161082"/>
<path opacity="0.5" d="M22.4923 43.756C34.2305 43.756 43.7463 34.2403 43.7463 22.502C43.7463 10.7638 34.2305 1.24805 22.4923 1.24805C10.754 1.24805 1.23828 10.7638 1.23828 22.502C1.23828 34.2403 10.754 43.756 22.4923 43.756Z" fill="url(#paint0_radial_13120_24136)"/>
<path d="M22.4923 43.756C34.2305 43.756 43.7463 34.2403 43.7463 22.502C43.7463 10.7638 34.2305 1.24805 22.4923 1.24805C10.754 1.24805 1.23828 10.7638 1.23828 22.502C1.23828 34.2403 10.754 43.756 22.4923 43.756Z" fill="url(#paint1_radial_13120_24136)"/>
<path d="M16.6625 22.6904C16.7569 22.1194 17.1411 21.7331 17.7142 21.7331C18.2895 21.7331 18.6716 22.216 18.6716 22.6904H16.6625ZM20.2041 23.5532C20.2985 21.9262 19.4378 20.5847 17.7142 20.5847C16.2761 20.5847 15.1299 21.6365 15.1299 23.1733C15.1299 24.7982 16.1817 25.7555 17.8087 25.7555C18.8626 25.7555 19.9165 25.2747 20.2041 24.1306H18.766C18.5771 24.5105 18.2895 24.7016 17.9074 24.7016C17.2356 24.7016 16.8514 24.2229 16.8514 23.5532H20.2041ZM40.0221 25.2768C41.2671 25.2768 41.7457 24.2251 41.7457 23.1712C41.7457 22.1173 41.2649 21.0634 40.0221 21.0634C38.8738 21.0634 38.3951 22.1151 38.3951 23.1712C38.3951 24.2272 38.8738 25.2768 40.0221 25.2768ZM42.321 25.6589H41.7457V24.7016C41.4581 25.3734 40.694 25.7555 40.0221 25.7555C38.584 25.7555 37.822 24.5106 37.822 23.1712C37.822 21.8297 38.4917 20.5847 40.0221 20.5847C40.7884 20.5847 41.4581 20.9711 41.7457 21.6365V18.8633H42.3188V25.661M20.4917 20.7779H21.1614L22.4063 24.9935L23.5547 20.7779H24.2244L25.3749 24.9935L26.6198 20.7779H27.3839L25.8535 25.661H25.1817L23.9389 21.5463L22.7884 25.661H22.1187L20.4917 20.7779ZM32.3658 23.1733C32.3658 24.6093 31.5974 25.7576 30.0648 25.7576C28.5344 25.7576 27.7681 24.6093 27.7681 23.1733C27.7681 21.7374 28.5344 20.5869 30.0648 20.5869C31.5029 20.6835 32.3615 21.8318 32.3615 23.1755M28.3412 23.1755C28.3412 24.2272 28.9165 25.279 30.0648 25.279C31.2153 25.279 31.7884 24.2272 31.7884 23.1733C31.7884 22.1194 31.2153 21.0655 30.0648 21.0655C28.9165 21.1621 28.3412 22.2139 28.3412 23.1733M33.2244 20.7779H33.7996V21.9284C33.932 21.5553 34.1794 21.2337 34.506 21.01C34.8327 20.7864 35.2219 20.672 35.6176 20.6835V21.2566C34.5659 21.1621 33.7996 22.025 33.7996 22.9823V25.5666H33.2265V20.7779M36.2895 18.9577H36.9592V25.6589H36.3839V18.9577H36.2895ZM4.885 23.1712C4.885 22.5981 5.07818 21.8297 5.84231 21.8297C6.60644 21.8297 6.79962 22.5959 6.79962 23.1712C6.79962 23.7464 6.60644 24.5105 5.84231 24.5105C5.07818 24.5105 4.885 23.8409 4.885 23.1712ZM3.25801 23.1712C3.25801 24.6071 4.3119 25.7555 5.84231 25.7555C7.37487 25.7555 8.42877 24.7037 8.42877 23.1712C8.42877 21.7331 7.37487 20.5847 5.84017 20.5847C4.30976 20.6813 3.25586 21.7331 3.25586 23.1733M9.28949 20.7758H10.822V21.4476C11.1075 20.9668 11.7794 20.6813 12.3524 20.6813C13.9794 20.6813 14.076 21.8297 14.076 22.5959V25.6589H12.4512V23.3622C12.4512 22.6904 12.5435 22.0228 11.6828 22.0228C11.1097 22.0228 10.822 22.5015 10.822 23.0746V25.7576H9.28734V20.7715" fill="white"/>
<defs>
<radialGradient id="paint0_radial_13120_24136" cx="0" cy="0" r="1" gradientUnits="userSpaceOnUse" gradientTransform="translate(1005.79 761.078) scale(6917.11)">
<stop stop-color="white" stop-opacity="0.5"/>
<stop offset="0.283" stop-color="#ADABD3" stop-opacity="0.595"/>
<stop offset="0.58" stop-color="#5C58A8" stop-opacity="0.695"/>
<stop offset="0.791" stop-color="#2A248C" stop-opacity="0.766"/>
<stop offset="1" stop-color="#161082" stop-opacity="0.8"/>
</radialGradient>
<radialGradient id="paint1_radial_13120_24136" cx="0" cy="0" r="1" gradientTransform="matrix(2035.75 2608.51 -3346.12 2611.42 -139.415 1212.8)" gradientUnits="userSpaceOnUse">
<stop stop-color="white" stop-opacity="0.9"/>
<stop offset="0.283" stop-color="#ADABD3" stop-opacity="0.615"/>
<stop offset="0.58" stop-color="#5C58A8" stop-opacity="0.316"/>
<stop offset="0.791" stop-color="#2A248C" stop-opacity="0.104"/>
<stop offset="1" stop-color="#161082" stop-opacity="0"/>
</radialGradient>
</defs>
</svg>
