<svg width="41" height="40" viewBox="0 0 41 40" fill="none" xmlns="http://www.w3.org/2000/svg">
<path d="M40.3768 13.175C40.6172 13.7058 40.6334 15.8393 30.5097 20.6969L20.584 25.4595C17.1293 27.118 12.1169 29.299 9.90674 29.902C8.3592 30.3234 6.88236 29.2494 6.88236 29.2494C6.88236 29.2494 2.4256 25.1704 1.24171 24.2534C0.0598358 23.3364 0.16085 22.8696 1.67607 22.3739C2.61955 22.0662 7.99958 23.3921 10.2926 23.9849C12.3838 22.7045 14.4994 21.4665 16.6384 20.2715C13.818 18.138 8.54102 14.154 6.85812 12.9396C5.24391 11.7727 6.87832 11.3534 6.87832 11.3534C7.62179 11.1489 9.2259 10.8825 10.034 11.056C15.5312 12.2312 24.7074 15.3333 25.4105 15.5708C27.3603 14.526 29.3284 13.5173 31.3138 12.5451C35.5059 10.5335 40.0556 12.4687 40.3768 13.175Z" fill="#B3A093"/>
</svg>
