<svg width="45" height="45" viewBox="0 0 45 45" fill="none" xmlns="http://www.w3.org/2000/svg">
<path fill-rule="evenodd" clip-rule="evenodd" d="M34.9892 2.88828L34.7476 2.77949L34.8073 2.64642L35.4599 2.94011L35.4001 3.07318L35.1585 2.96439L34.8384 3.67526L34.6696 3.59892L34.9892 2.88828ZM35.588 2.99357L35.8546 3.12384L35.7447 3.85059L35.747 3.85176L36.2522 3.31831L36.5195 3.44834L36.1135 4.27968L35.9536 4.20171L36.2886 3.51581L36.2865 3.51465L35.7274 4.09128L35.5679 4.01354L35.6791 3.21816L35.6751 3.21932L35.3413 3.90288L35.182 3.82491L35.588 2.99357ZM37.5582 10.1908L37.5399 10.212C40.7049 13.3919 42.788 17.6798 43.1256 22.5065C43.8701 33.1675 35.8339 42.4144 25.1724 43.1596C20.161 43.5108 15.4637 41.9198 11.8141 39.0286L11.7947 39.0506C15.582 42.5821 20.7678 44.5942 26.3422 44.2053C37.0023 43.4594 45.0406 34.2127 44.2941 23.5517C43.918 18.1624 41.3667 13.4438 37.5582 10.1908ZM3.26141 32.1931C2.64765 32.5355 2.50758 33.0536 2.82508 33.8497C3.11526 34.5769 3.5719 34.8916 4.05912 34.6973C4.44876 34.5414 4.51553 34.2045 4.35211 33.3295L4.28231 32.9931C4.12472 32.1326 4.09741 31.7621 4.20013 31.3928C4.30098 30.9795 4.53981 30.7066 4.90143 30.5624C5.77853 30.2122 6.60659 30.7512 7.09848 31.9836C7.63053 33.3155 7.34455 34.3177 6.30684 34.7496L6.04747 34.0994C6.76861 33.7838 6.95071 33.1077 6.56597 32.1433C6.25034 31.3554 5.74701 31.0057 5.2194 31.2167C4.79474 31.3865 4.69342 31.7812 4.85007 32.6777L4.91124 33.0524L4.9703 33.3839C5.08283 34.0493 5.09637 34.2836 5.0317 34.5666C4.94719 34.92 4.71957 35.1794 4.35725 35.3239C3.53642 35.6517 2.7464 35.168 2.30284 34.0581C1.82355 32.8568 2.07989 31.9638 3.00437 31.5508L3.26141 32.1931ZM2.71418 25.2069L5.64919 22.7337L5.6695 23.6483L3.18203 25.7074L3.98909 26.5962L5.73464 26.5574L5.75051 27.2746L0.761095 27.3855L0.744753 26.6686L2.70788 26.6249L2.97729 26.6263L3.23246 26.6212L3.0632 26.4437L2.89441 26.2661L0.68312 23.8837L0.662109 22.9356L2.71418 25.2069ZM4.92338 17.4795L6.84659 18.1551L6.60916 18.8314L4.68642 18.1558L1.23921 19.1954L1.52893 18.3711L3.66902 17.773L3.93329 17.7001C4.03998 17.6672 4.10722 17.6562 4.29585 17.6175C4.12729 17.4181 4.08877 17.3698 3.91205 17.1251L2.59232 15.3375L2.86733 14.552L4.92338 17.4795ZM8.30055 8.31963L7.24556 9.60854L10.3937 12.1859L9.63708 13.1111L6.48823 10.5333L5.43838 11.8149L4.72517 11.2306L7.58734 7.73623L8.30055 8.31963ZM15.0348 3.58912L12.5161 5.06222L13.0537 5.98111L15.3663 4.6287L15.797 5.36595L13.4851 6.71836L14.1057 7.77918L16.6739 6.27713L17.1396 7.07298L13.5388 9.17805L11.0187 4.87009L14.5705 2.79373L15.0348 3.58912ZM24.6961 5.52773L23.3888 5.61155L22.7435 4.53345L20.7325 4.85421L20.4512 6.08359L19.2064 6.40389L20.5192 0.949434L21.749 0.754031L24.6961 5.52773ZM21.841 2.95529C21.5683 2.49795 21.4607 2.29507 21.3038 1.93999C21.2597 2.29624 21.2111 2.56215 21.0916 3.07435L20.8845 4.02545L22.3338 3.79479L21.841 2.95529ZM32.7121 7.12527L31.6615 6.7249L32.0605 5.24152C32.1051 5.06759 32.1695 4.82877 32.2566 4.52668C32.3393 4.21431 32.4112 3.97035 32.4667 3.79152C32.5288 3.59029 32.5926 3.38228 32.6582 3.16726L32.7772 2.81124C32.4831 3.31527 32.3663 3.49363 32.0969 3.90288C31.9825 4.08194 31.8754 4.23229 31.7892 4.35695L30.3726 6.34016L29.4638 6.10134L29.1797 3.71682C29.1596 3.59612 29.1477 3.42173 29.1313 3.18571C29.1131 2.87031 29.0975 2.63405 29.0907 2.46946C29.083 2.33546 29.0849 2.13446 29.0874 1.86458L28.963 2.46713C28.8162 3.12547 28.7496 3.41029 28.5512 4.1954L28.1359 5.80228L27.0319 5.62905L28.2806 0.746094L29.9603 1.07153L30.1966 3.38041C30.2587 3.92366 30.2673 4.37516 30.2445 5.0195C30.4333 4.65157 30.5008 4.52924 30.7172 4.19167C30.8617 3.96568 30.9885 3.77495 31.1024 3.60266L32.4161 1.7168L34.0082 2.25749L32.7121 7.12527Z" fill="#234B8D"/>
<path fill-rule="evenodd" clip-rule="evenodd" d="M23.1725 16.7392C22.5648 17.2699 21.3677 18.4201 20.209 19.5323L18.8961 20.7901C17.8342 20.5973 16.7569 20.5014 15.6777 20.5035C13.2453 20.5035 11.0186 21.1723 10.0052 22.2075C9.61692 22.6048 9.42502 23.0355 9.43389 23.4889C9.45933 24.6634 10.8054 25.2566 11.2166 25.4112C13.3756 26.2159 15.1867 25.9824 17.0898 24.6515C18.143 23.9142 19.4076 22.7337 20.3925 21.7882C21.1613 21.9647 22.0333 22.1916 22.9697 22.4661L23.8346 22.7201C22.7152 23.819 21.5652 24.9818 20.4981 25.9229L20.417 25.9941C18.9341 27.3024 17.8619 28.2479 16.3134 28.5918C15.2229 28.8343 14.4506 28.6027 14.1955 28.4468C14.1737 28.4505 14.1369 28.4975 14.1369 28.4975C15.0333 29.2347 15.8817 29.6533 17.342 29.5265C18.7324 29.4061 20.3379 28.5306 21.9814 26.994L24.1983 24.8173L25.7508 23.2753C25.7508 23.2834 28.8901 24.1958 28.8901 24.1958C28.9151 24.203 28.9494 24.2121 28.9494 24.2121C28.9153 24.2131 27.0052 26.1017 27.0052 26.1017L25.3346 27.7623C23.6261 29.4233 22.6953 30.2843 21.6976 30.9915C20.0447 32.1629 18.6341 32.773 17.3861 32.8563C16.7425 32.8993 15.8112 32.8544 15.0343 32.3985C14.9999 32.3922 14.9539 32.434 14.9539 32.434C15.7963 33.1589 16.8314 34.0217 18.6115 33.972C20.6255 33.915 22.4073 32.9459 25.1835 30.3954C26.4498 29.2335 27.7069 27.9332 28.817 26.7865L30.8798 24.6959C32.2395 24.9982 33.4525 25.1186 34.7944 25.092C36.7515 25.0542 38.4207 24.1176 38.4417 23.0484C38.458 22.2576 37.8088 21.8363 37.4208 21.5846C37.1007 21.3754 36.2234 20.8898 35.015 20.8898C33.5501 20.8898 32.0207 21.5365 30.4713 22.8116L29.4371 23.7216C29.4481 23.7167 29.0586 23.6173 29.0586 23.6173L26.1869 22.8135C27.0337 22.0223 27.756 21.3441 28.4061 20.7659C29.9766 19.3686 31.7165 18.7946 32.7314 18.7287C33.47 18.6809 34.7627 18.7455 35.294 19.1212C35.3178 19.1165 35.3533 19.063 35.3533 19.063C33.9397 17.8535 32.7164 17.6936 31.7056 17.6936C30.7134 17.6936 29.1179 18.0106 27.167 19.5232C26.3695 20.14 25.3343 21.1714 24.253 22.263C24.253 22.2544 22.7992 21.8159 22.7992 21.8159L22.4486 21.7051C22.4486 21.7051 20.9241 21.2433 20.9215 21.243C20.9559 21.2416 21.7933 20.4224 21.7933 20.4224C22.8214 19.4135 23.7935 18.46 24.5513 17.8215C27.3068 15.5047 29.0411 15.2017 30.246 15.1965C31.5669 15.1916 32.616 15.4634 33.3652 16.0057C33.3881 16.002 33.4222 15.9527 33.4222 15.9527C31.8746 14.5529 30.7629 14.1058 28.8411 14.09C27.1557 14.0778 25.1413 15.0177 23.1725 16.7392ZM12.3476 24.9979C11.4528 24.9368 11.0179 24.5749 11.0179 23.89C11.0179 23.7978 11.0755 21.6142 16.0799 21.3628C16.6512 21.3348 17.2887 21.3161 18.2585 21.4263C18.2191 21.4289 17.6938 21.9114 17.6938 21.9114L17.3807 22.1951C16.1726 23.2891 14.1534 25.1203 12.3476 24.9979ZM32.595 23.223C34.0341 22.2548 35.2333 21.7366 35.9764 21.7625C36.419 21.7786 36.9441 21.9117 36.9441 22.4556C36.9441 23.0133 36.4141 23.4838 35.3697 23.8549C34.4554 24.1813 33.0524 24.2654 31.5218 24.0926C31.9435 23.7116 32.295 23.4254 32.595 23.223Z" fill="#234B8D"/>
</svg>
