<svg width="41" height="40" viewBox="0 0 41 40" fill="none" xmlns="http://www.w3.org/2000/svg">
<path opacity="0.5" d="M39.9545 27.6027C40.1348 27.9938 40.1469 29.5658 32.5541 33.1451L25.1099 36.6544C22.5188 37.8764 18.7596 39.4834 17.1019 39.9278C15.9413 40.2383 14.8336 39.4469 14.8336 39.4469C14.8336 39.4469 11.4911 36.4413 10.6032 35.7657C9.71675 35.09 9.79251 34.746 10.9289 34.3808C11.6365 34.1541 15.6716 35.1311 17.3913 35.5678C18.9597 34.6244 20.5464 33.7121 22.1506 32.8316C20.0354 31.2596 16.0776 28.324 14.8155 27.4292C13.6048 26.5693 14.8306 26.2604 14.8306 26.2604C15.3882 26.1098 16.5913 25.9134 17.1974 26.0413C21.3203 26.9072 28.2024 29.1929 28.7297 29.368C30.1921 28.5981 31.6681 27.8549 33.1572 27.1385C36.3013 25.6563 39.7135 27.0822 39.9545 27.6027Z" fill="#B3A093"/>
<path d="M40.3768 7.17503C40.6172 7.70581 40.6334 9.83929 30.5097 14.6969L20.584 19.4595C17.1293 21.118 12.1169 23.299 9.90674 23.902C8.3592 24.3234 6.88236 23.2494 6.88236 23.2494C6.88236 23.2494 2.4256 19.1704 1.24171 18.2534C0.0598358 17.3364 0.16085 16.8696 1.67607 16.3739C2.61955 16.0662 7.99958 17.3921 10.2926 17.9849C12.3838 16.7045 14.4994 15.4665 16.6384 14.2715C13.818 12.138 8.54102 8.15399 6.85812 6.93958C5.24391 5.77268 6.87832 5.35342 6.87832 5.35342C7.62179 5.14895 9.2259 4.88252 10.034 5.05601C15.5312 6.23118 24.7074 9.33328 25.4105 9.57079C27.3603 8.52604 29.3284 7.51731 31.3138 6.5451C35.5059 4.53348 40.0556 6.46869 40.3768 7.17503Z" fill="#B3A093"/>
</svg>
