<svg width="36" height="36" viewBox="0 0 36 36" fill="none" xmlns="http://www.w3.org/2000/svg">
<path d="M3.87541 16.385C3.39685 16.385 3 15.9459 3 15.4164C3 14.8869 3.39685 14.4478 3.87541 14.4478H29.6242C29.7759 14.4478 29.8576 14.3187 29.8927 14.2024C29.951 14.0345 29.9627 13.7892 29.7876 13.6213L24.9203 8.68796C24.5585 8.32635 24.5351 7.71937 24.862 7.31902C25.1888 6.91867 25.7374 6.89285 26.0992 7.25445L30.9665 12.1878C31.6435 12.8722 31.8536 13.9312 31.5151 14.8998C31.1883 15.8167 30.4646 16.385 29.6125 16.385H3.87541Z" fill="#B3A093"/>
<path d="M32.1246 19.5603C32.6031 19.5603 33 19.9994 33 20.5289C33 21.0584 32.6031 21.4975 32.1246 21.4975H6.3758C6.22406 21.4975 6.14236 21.6266 6.10734 21.7429C6.04898 21.9108 6.0373 22.1561 6.21239 22.324L11.0797 27.2574C11.4415 27.619 11.4649 28.2259 11.138 28.6263C10.8112 29.0266 10.2626 29.0525 9.90079 28.6909L5.0335 23.7575C4.35651 23.0731 4.14642 22.0141 4.48491 21.0455C4.81173 20.1286 5.5354 19.5603 6.38747 19.5603H32.1246Z" fill="#B3A093"/>
</svg>
