<svg width="342" height="58" viewBox="0 0 342 58" fill="none" xmlns="http://www.w3.org/2000/svg">
<g clip-path="url(#clip0_13346_4572)">
<path d="M294.061 10.2519C293.745 10.6518 293.345 10.9769 292.889 11.2041C293.742 11.6418 294.514 12.2232 295.17 12.9229C295.321 12.8148 295.439 12.6681 295.513 12.498C295.587 12.328 295.614 12.1411 295.592 11.9569C295.492 11.1766 294.564 10.5819 294.061 10.2382M289.211 6.62869C288.869 6.62869 287.766 6.70775 287.43 7.29214C287.519 7.29214 287.619 7.29214 287.721 7.29214C289.917 7.47668 292.041 8.16721 293.927 9.31C293.585 7.73215 291.335 6.67681 289.211 6.61837M287.126 8.2306C287.078 8.15524 287.034 8.07719 286.995 7.99685C286.995 7.99685 286.437 7.99685 286.184 7.99685C285.619 8.02778 284.242 8.19966 283.999 8.78061C283.948 8.87878 283.921 8.98787 283.921 9.09859C283.921 9.20931 283.948 9.3184 283.999 9.41657L284.115 9.39938C285.297 9.16562 286.893 9.26188 288.533 9.57126C290.174 9.88064 292.091 10.8019 292.554 11.0082C293.045 10.8324 293.466 10.5005 293.752 10.0628C291.826 8.88471 289.641 8.19783 287.389 8.06216C287.769 8.77374 288.739 9.15187 289.444 9.32032C289.443 9.33403 289.443 9.34786 289.444 9.36157C289.429 9.38478 289.415 9.40888 289.403 9.43376C288.622 9.2825 287.639 8.94218 287.132 8.2581M283.125 10.3516C282.949 10.4017 282.794 10.5067 282.681 10.6512C282.569 10.7958 282.505 10.9726 282.499 11.156C282.54 11.3202 282.614 11.4745 282.715 11.6102C282.816 11.7458 282.943 11.8602 283.088 11.9466C284.423 11.541 286.403 11.6201 287.687 11.9054C288.971 12.1907 291.242 12.7613 292.824 13.9679C293.458 13.8428 294.07 13.6202 294.636 13.3079C294.242 12.9144 293.799 12.5736 293.317 12.2938C292.954 12.0807 292.064 11.5651 292.043 11.5719C291.444 11.7676 290.821 11.8832 290.191 11.9157C290.191 11.9157 290.28 11.6613 290.283 11.6407C290.743 11.6348 291.198 11.5547 291.633 11.4035L291.269 11.2213C289.184 10.3825 286.879 9.72939 284.475 10.0181C285.282 10.5886 286.186 11.0057 287.143 11.2488C287.708 11.3863 288.17 11.4826 288.598 11.5444C288.581 11.6313 288.555 11.7164 288.523 11.7988C287.078 11.5994 285.56 11.1113 284.721 10.5613C284.501 10.414 284.294 10.2484 284.101 10.0663C283.756 10.0803 283.417 10.1645 283.105 10.3138M282.293 13.2185C282.16 13.8545 282.869 14.3564 283.369 14.6726C284.31 14.1226 285.622 14.0917 287.228 14.377C288.41 14.5901 290.489 15.3602 291.749 16.5667C292.444 16.5267 293.133 16.4114 293.804 16.223C293.701 15.4323 292.852 14.7723 292.225 14.377C291.262 14.4858 290.289 14.48 289.328 14.3598C289.355 14.2808 289.382 14.1948 289.413 14.1089C290.21 14.1911 291.011 14.2083 291.811 14.1604C290.644 13.5032 289.391 13.0148 288.088 12.7098C286.718 12.3935 285.17 12.1804 283.762 12.4554C285.125 13.1243 286.569 13.612 288.057 13.9061C288.037 13.9886 288.019 14.0745 288.002 14.1604L287.759 14.1157C284.913 13.5348 283.444 12.5585 283.444 12.5585C283.444 12.5585 282.56 12.6032 282.297 13.222M292.324 18.0346C292.825 17.8668 293.271 17.5663 293.615 17.1649C293.74 16.9713 293.817 16.7511 293.841 16.5221C293.243 16.6815 292.63 16.7862 292.013 16.8349C292.271 17.1776 292.383 17.609 292.324 18.0346ZM295.283 15.0851C295.537 14.5145 295.163 13.9748 294.814 13.5864C294.285 13.8725 293.721 14.0864 293.136 14.2223C293.706 14.695 294.091 15.3551 294.222 16.0855C294.69 15.8912 295.072 15.5334 295.297 15.0783M296.026 12.2457C295.907 12.6124 295.679 12.9338 295.372 13.167C295.549 13.4088 295.674 13.6851 295.738 13.9782C295.803 14.2712 295.805 14.5745 295.746 14.8686C295.561 15.5561 294.842 16.113 294.239 16.4086C294.163 17.464 293.109 17.983 292.263 18.3199C291.386 19.6949 289.108 19.7328 288.197 19.6365C288.019 19.6193 287.797 19.5918 287.581 19.5506C287.605 19.4921 287.632 19.4131 287.663 19.3271C287.776 19.3477 287.913 19.3649 288.006 19.3787C289.057 19.5024 290.824 19.4784 291.674 18.5674C290.444 18.9731 289.228 18.8665 288.15 18.7324L287.869 18.6877L287.951 18.4437C289.876 18.7084 290.739 18.5777 291.879 18.1962C291.852 17.695 291.634 17.2235 291.269 16.8796C290.397 16.8795 289.526 16.8036 288.667 16.6527C288.691 16.5633 288.715 16.4671 288.742 16.3708C289.475 16.5148 290.221 16.5828 290.968 16.5736C289.96 15.9171 288.854 15.4284 287.691 15.1264C286.58 14.797 285.413 14.7068 284.266 14.8617C284.143 14.8823 283.947 14.9408 283.896 14.9476C285.033 15.4539 286.222 15.8343 287.441 16.082C287.506 16.0992 287.557 16.1199 287.619 16.1336C287.619 16.2195 287.591 16.3055 287.574 16.3914C287.572 16.4086 287.572 16.4258 287.574 16.443C286.55 16.2075 285.542 15.9044 284.557 15.5355C283.81 15.2433 283.53 15.0886 283.53 15.0886C283.399 15.1525 283.291 15.2541 283.218 15.3802C283.145 15.5064 283.112 15.6514 283.122 15.7967C283.201 16.3674 283.855 16.828 284.475 17.2336L284.512 17.0686C284.581 16.9104 284.686 16.7708 284.819 16.6609C284.952 16.551 285.108 16.474 285.276 16.4361C285.61 16.3425 285.957 16.3042 286.304 16.3227C287.3 16.3571 288.91 16.8177 289.386 17.6977C289.415 17.7541 289.432 17.8161 289.435 17.8795C289.438 17.9429 289.427 18.0063 289.404 18.0652C289.381 18.1242 289.345 18.1775 289.299 18.2214C289.253 18.2654 289.199 18.2989 289.139 18.3199C288.982 18.3749 288.865 18.3921 288.817 18.3199C288.881 18.3124 288.94 18.2816 288.983 18.2335C289.026 18.1854 289.05 18.1232 289.05 18.0587C289.05 17.8043 288.499 17.4811 287.985 17.2955C287.353 17.078 286.696 16.9395 286.03 16.883C285.461 16.8418 284.923 16.9518 284.827 17.4261C285.631 17.8107 286.471 18.1125 287.334 18.3268C287.334 18.3852 287.334 18.4402 287.334 18.4815C287.334 18.5227 287.334 18.5434 287.334 18.5812C287.334 18.619 287.334 18.5812 287.334 18.5984C286.448 18.3998 285.589 18.0939 284.776 17.6874C285.16 18.423 286.218 18.9593 287.173 19.2206C287.173 19.3031 287.173 19.3787 287.173 19.4371C286.122 19.1827 284.917 18.6362 284.454 17.5327C283.769 17.0411 282.779 16.5599 282.8 15.4702C282.832 15.2161 282.961 14.9843 283.16 14.8239C282.608 14.4492 281.886 13.9301 281.923 13.1395C281.923 12.7235 282.221 12.452 282.526 12.2113L282.8 12.0532C282.488 11.6888 282.091 11.3657 282.132 10.85C282.245 10.0697 283.105 9.66407 283.749 9.47501C283.643 9.24835 283.61 8.99441 283.654 8.74816C283.698 8.50191 283.818 8.27545 283.995 8.09997C284.68 7.31964 286.002 7.29558 287.026 7.26808C287.334 6.34337 288.365 6.04086 289.256 5.99961C289.515 5.98392 289.775 5.99312 290.033 6.02711C290.256 6.05461 290.465 6.09242 290.622 6.1268C292.126 6.44306 293.681 7.40214 294.228 8.6603C294.348 8.95281 294.386 9.2725 294.338 9.58501C295.211 10.1694 296.393 11.0804 296.009 12.2388M287.348 19.2652C287.32 19.299 287.283 19.325 287.242 19.3409C287.242 19.3959 287.304 19.444 287.328 19.4956L287.513 19.5368C287.516 19.5129 287.516 19.4886 287.513 19.4646C287.497 19.4399 287.489 19.4113 287.489 19.3821C287.489 19.3529 287.497 19.3243 287.513 19.2996L287.331 19.2618" fill="#E8E8E8"/>
<path d="M250.512 30.4505C250.512 30.3714 250.416 30.2958 250.255 30.3061C249.552 30.3847 248.845 30.4168 248.138 30.4024C247.362 30.4181 246.585 30.3859 245.813 30.3061C245.773 30.2959 245.731 30.2965 245.691 30.308C245.651 30.3195 245.615 30.3414 245.587 30.3714C245.569 30.3915 245.556 30.4163 245.552 30.4431C245.547 30.4698 245.549 30.4974 245.56 30.5227C245.577 30.562 245.605 30.5954 245.641 30.6192C245.677 30.6429 245.719 30.6559 245.762 30.6567C246.58 30.7977 246.977 30.9558 247.131 31.1964C247.248 31.3786 247.248 31.633 247.131 32.073C246.721 33.6749 245.419 36.4353 244.47 38.4497C244.077 39.2885 243.727 40.0276 243.522 40.5123C243.179 39.6942 242.183 37.3807 241.285 35.3181C240.57 33.6681 239.892 32.1143 239.847 31.9768C239.781 31.8352 239.747 31.6809 239.747 31.5247C239.747 31.3686 239.781 31.2143 239.847 31.0727C239.967 30.938 240.115 30.8304 240.279 30.7569C240.444 30.6835 240.622 30.6458 240.803 30.6464C240.994 30.6189 241.053 30.5192 241.046 30.4436C241.039 30.368 240.95 30.2855 240.785 30.2958C240.1 30.3267 238.878 30.3749 238.467 30.3749C238.056 30.3749 236.977 30.3439 236.234 30.2958C236.066 30.2958 235.984 30.368 235.977 30.4539C235.97 30.5399 236.039 30.6327 236.203 30.6464C237.028 30.7496 237.522 31.1414 238.011 32.1658C238.354 32.8534 241.416 40.1239 241.861 41.2067C242.059 41.688 242.203 42.042 242.34 42.3239C242.511 42.7089 242.625 42.9633 242.724 43.2589C242.723 43.2892 242.73 43.3191 242.745 43.3456C242.759 43.3722 242.78 43.3945 242.806 43.4102C242.838 43.4297 242.875 43.4393 242.912 43.4377C242.936 43.4387 242.96 43.4346 242.982 43.4258C243.005 43.4169 243.025 43.4035 243.042 43.3863C243.058 43.3692 243.071 43.3486 243.08 43.3261C243.088 43.3036 243.092 43.2795 243.09 43.2555C243.283 42.5791 243.523 41.9174 243.809 41.2754C244.645 39.3813 245.864 36.8685 246.834 34.8506C247.32 33.8434 247.741 32.9702 247.988 32.4443C248.673 30.9661 249.231 30.863 250.135 30.698L250.323 30.6602C250.467 30.6327 250.522 30.5364 250.512 30.4574M257.166 42.9564C257.183 42.9355 257.194 42.9103 257.197 42.8837C257.201 42.857 257.197 42.8299 257.187 42.8052C257.174 42.7768 257.153 42.7527 257.127 42.7356C257.101 42.7186 257.07 42.7093 257.039 42.7089C256.228 42.6058 256.036 42.4752 256.036 39.6151V36.3563C256.036 33.6784 256.128 33.6578 257.009 33.4653C257.132 33.4412 257.183 33.3518 257.169 33.2762C257.156 33.2006 257.087 33.1318 256.95 33.1593C256.434 33.2331 255.914 33.2733 255.392 33.2796C254.893 33.2677 254.396 33.2264 253.902 33.1559C253.867 33.1492 253.831 33.1513 253.797 33.1621C253.763 33.1729 253.732 33.192 253.707 33.2177C253.692 33.2362 253.682 33.2584 253.679 33.282C253.675 33.3055 253.678 33.3296 253.687 33.3518C253.703 33.3853 253.728 33.4137 253.76 33.4337C253.791 33.4537 253.827 33.4646 253.865 33.4653C254.697 33.6028 254.748 33.6131 254.748 36.3666V39.6185C254.748 42.5749 254.594 42.5989 253.858 42.7124C253.837 42.7123 253.817 42.7165 253.798 42.7248C253.779 42.733 253.762 42.7451 253.747 42.7602C253.733 42.7754 253.722 42.7933 253.715 42.8129C253.708 42.8324 253.706 42.8532 253.707 42.8739C253.716 42.9208 253.743 42.9623 253.782 42.9899C253.821 43.0174 253.869 43.0288 253.916 43.0217C254.407 42.9666 254.901 42.9425 255.395 42.9495C255.628 42.9495 256.45 42.9702 256.995 43.0217H257.033C257.058 43.0221 257.084 43.0164 257.107 43.0051C257.13 42.9937 257.15 42.9771 257.166 42.9564ZM266.519 37.8482C266.364 37.85 266.209 37.8362 266.057 37.8069V35.0087C266.057 34.4518 266.057 33.8262 266.029 33.5065C266.33 33.4561 266.635 33.4308 266.94 33.4309H267.026C268.245 33.4653 268.814 34.2009 268.814 35.7444C268.814 37.1469 268.043 37.855 266.519 37.855M272.584 42.733C272.694 42.623 272.684 42.5302 272.639 42.4786C272.595 42.427 272.502 42.3995 272.375 42.4786C272.256 42.5828 272.102 42.6391 271.944 42.6367C271.16 42.6367 269.427 40.2304 268.245 37.9754C269.468 37.6075 270.17 36.7688 270.17 35.6619C270.17 34.0256 268.992 33.0871 266.94 33.0871H266.855C266.615 33.0871 266.293 33.1181 265.978 33.1387C265.663 33.1593 265.293 33.1834 265.153 33.1834C264.796 33.1977 264.439 33.1885 264.084 33.1559C264.042 33.1487 263.998 33.1583 263.962 33.1826C263.926 33.2069 263.901 33.2441 263.892 33.2865C263.892 33.3587 263.927 33.4412 264.053 33.4653C264.639 33.5615 264.796 33.589 264.796 36.3734V39.6185C264.796 42.5577 264.721 42.6505 263.92 42.7124C263.8 42.7124 263.742 42.8052 263.748 42.8774C263.751 42.8997 263.759 42.9211 263.77 42.9403C263.782 42.9595 263.797 42.976 263.816 42.9887C263.834 43.0014 263.855 43.01 263.877 43.0139C263.899 43.0178 263.922 43.017 263.944 43.0114C264.461 42.977 265.159 42.9427 265.427 42.9427C265.769 42.9427 266.382 42.9599 267.033 43.0114C267.077 43.0189 267.122 43.0091 267.16 42.9839C267.178 42.9724 267.194 42.9568 267.206 42.9384C267.218 42.92 267.225 42.8991 267.228 42.8774C267.225 42.8579 267.218 42.8392 267.207 42.8227C267.197 42.8061 267.183 42.7919 267.166 42.7811C267.135 42.7516 267.093 42.7346 267.05 42.733C266.221 42.6436 266.046 42.5233 266.046 39.6392V38.1782C266.195 38.1999 266.345 38.2114 266.495 38.2126C266.615 38.2126 266.721 38.2126 266.838 38.2126C268.892 41.9045 269.735 43.0974 271.492 43.0974C271.886 43.1088 272.272 42.9797 272.581 42.733M284.568 33.3759C284.593 33.3418 284.606 33.2993 284.602 33.2567C284.598 33.2141 284.578 33.1745 284.547 33.1456C284.518 33.123 284.483 33.1107 284.446 33.1107C284.409 33.1107 284.374 33.123 284.345 33.1456C283.821 33.2315 282.722 33.2934 282.27 33.3174C281.927 33.3415 281.297 33.3518 281.02 33.3449H280.814C280.612 33.3449 280.252 33.3449 280.057 33.3449H279.931H279.749C279.502 33.3449 279.064 33.3243 278.605 33.3243C277.991 33.3398 277.378 33.2692 276.783 33.1146C276.755 33.0889 276.72 33.073 276.682 33.0693C276.644 33.0656 276.607 33.0742 276.574 33.094C276.542 33.1122 276.518 33.1414 276.506 33.1762C276.494 33.211 276.495 33.249 276.509 33.2831C276.511 33.9742 276.454 34.6643 276.338 35.3456C276.307 35.4797 276.369 35.5587 276.441 35.5759C276.513 35.5931 276.608 35.5484 276.643 35.4212C277.033 33.9878 277.571 33.7299 278.633 33.7024H279.02L279.811 33.6784C279.831 34.1734 279.811 36.5935 279.811 38.2332C279.811 38.8141 279.811 39.3091 279.811 39.6082C279.811 42.4855 279.626 42.5164 278.578 42.702C278.535 42.708 278.497 42.7304 278.471 42.7645C278.444 42.7985 278.432 42.8415 278.437 42.8842C278.449 42.9265 278.475 42.963 278.512 42.9865C278.549 43.01 278.593 43.0189 278.636 43.0114C279.224 42.9401 279.817 42.9102 280.41 42.922C280.677 42.922 281.78 42.9495 282.304 43.0114H282.338C282.362 43.0124 282.385 43.0076 282.407 42.9974C282.428 42.9872 282.447 42.972 282.461 42.953C282.48 42.9321 282.491 42.9063 282.495 42.8788C282.499 42.8512 282.494 42.8232 282.482 42.7983C282.471 42.7696 282.452 42.7447 282.427 42.727C282.402 42.7092 282.372 42.6993 282.342 42.6986C281.177 42.5061 281.057 42.4855 281.057 39.6048C281.057 39.3916 281.057 39.0823 281.057 38.7076C281.057 37.0713 281.057 34.3796 281.088 33.6474C281.513 33.6474 281.937 33.6474 282.242 33.6853C283.431 33.7609 284.047 34.0737 284.119 35.5587C284.119 35.6997 284.205 35.7616 284.277 35.7616C284.338 35.7616 284.414 35.7066 284.414 35.5656C284.42 34.8219 284.47 34.0792 284.564 33.3415M300.15 33.3243C300.144 33.2842 300.123 33.2479 300.091 33.2229C300.06 33.198 300.019 33.1863 299.979 33.1902C299.424 33.2418 298.952 33.2796 298.513 33.2796C298.003 33.2796 297.465 33.2349 297.006 33.1902C296.975 33.1859 296.943 33.19 296.913 33.2021C296.884 33.2142 296.858 33.2338 296.839 33.259C296.826 33.2809 296.819 33.3058 296.819 33.3312C296.819 33.3565 296.826 33.3814 296.839 33.4034C296.854 33.4321 296.877 33.4562 296.904 33.4731C296.932 33.49 296.964 33.4992 296.996 33.4996C297.965 33.6406 298.198 33.8674 298.26 35.7959C298.26 36.04 298.26 36.5247 298.26 36.5316V36.6003C298.26 36.841 298.26 37.03 298.26 37.2225C298.26 37.6591 298.26 38.106 298.26 39.151C298.27 39.6459 298.183 40.1379 298.002 40.5983C297.82 41.0587 297.55 41.4782 297.205 41.8323C296.653 42.4046 295.899 42.7366 295.106 42.757C294.215 42.757 292.133 42.4408 292.003 39.5326C291.972 38.8726 291.941 37.9169 291.979 36.4009C292.04 33.7334 292.164 33.7093 293.123 33.5031C293.246 33.4824 293.291 33.3965 293.28 33.3277C293.277 33.3056 293.269 33.2845 293.256 33.2657C293.244 33.2469 293.228 33.2308 293.21 33.2185C293.191 33.2062 293.17 33.198 293.148 33.1943C293.126 33.1906 293.103 33.1916 293.082 33.1971C292.513 33.2663 291.941 33.2984 291.369 33.2934C290.911 33.2896 290.453 33.2563 289.999 33.1937C289.976 33.1886 289.953 33.1882 289.93 33.1924C289.906 33.1966 289.884 33.2053 289.865 33.2181C289.845 33.2309 289.828 33.2474 289.815 33.2668C289.801 33.2863 289.792 33.3081 289.787 33.3312C289.787 33.4034 289.825 33.4824 289.955 33.5065C290.691 33.6165 290.736 33.6199 290.712 36.4078C290.712 37.6075 290.712 38.5529 290.763 39.8454C290.869 42.3445 292.88 43.2349 294.726 43.2349C297.191 43.2349 298.784 41.6398 298.784 39.1682V35.8509C298.784 34.2318 299.085 33.6681 300.041 33.5271C300.081 33.5204 300.117 33.4985 300.142 33.4659C300.167 33.4334 300.178 33.3926 300.174 33.3518M313.658 38.766C313.685 39.6312 313.422 40.4805 312.91 41.177C312.398 41.8736 311.667 42.3769 310.836 42.6058L310.726 42.6299C310.545 42.6646 310.362 42.6807 310.178 42.678C307.973 42.678 306.178 40.2717 306.178 37.2982C306.178 34.9125 307.753 33.6165 309.243 33.4068H309.325H309.404H309.637C311.774 33.4068 313.651 35.9266 313.651 38.8004M315.045 38.0544C315.045 35.2803 312.699 33.0218 309.812 33.0218C309.692 33.0218 309.507 33.0218 309.36 33.0527H309.336H309.253H309.171C307.957 33.2076 306.841 33.8018 306.032 34.7239C305.223 35.646 304.777 36.8326 304.777 38.0613C304.777 40.8389 307.123 43.0974 310.01 43.0974C310.24 43.0948 310.469 43.0741 310.695 43.0355H310.795C311.976 42.8434 313.052 42.2381 313.833 41.3266C314.613 40.4151 315.047 39.2561 315.058 38.0544M322.12 35.0878C322.095 34.7849 322.166 34.4818 322.322 34.2214C322.478 33.9611 322.712 33.7566 322.99 33.6371H323.028C323.311 33.5503 323.605 33.5063 323.901 33.5065C325.066 33.5065 325.415 34.3796 325.668 35.2769C325.677 35.3144 325.695 35.349 325.72 35.3773C325.746 35.4057 325.779 35.4267 325.816 35.4384C325.839 35.4435 325.864 35.4421 325.887 35.4342C325.91 35.4263 325.93 35.4123 325.946 35.3937C325.967 35.368 325.982 35.3368 325.987 35.3035C325.993 35.2702 325.989 35.236 325.977 35.2047C325.894 34.6581 325.819 33.5203 325.816 33.4859C325.825 33.4613 325.829 33.4351 325.828 33.4088C325.828 33.3825 325.822 33.3566 325.811 33.3326C325.8 33.3087 325.785 33.2871 325.765 33.2691C325.746 33.2512 325.724 33.2372 325.699 33.2281C325.673 33.2212 325.645 33.2217 325.619 33.2296C325.593 33.2375 325.57 33.2524 325.552 33.2727C325.101 33.1342 324.632 33.0658 324.161 33.0699C323.707 33.0598 323.256 33.1526 322.843 33.3415H322.805C322.12 33.6509 321.069 34.5722 321.069 35.8337C321.069 36.7585 321.579 37.5525 322.538 38.1747C322.829 38.3569 323.333 38.6457 323.586 38.7866C324.613 39.3641 325.035 40.0173 325.035 40.9764C325.062 41.278 324.997 41.5809 324.849 41.8448C324.701 42.1088 324.477 42.3214 324.206 42.4545L324.12 42.4889C323.718 42.6404 323.293 42.7185 322.863 42.7192C321.473 42.7192 320.973 41.7945 320.651 40.3954C320.603 40.2579 320.507 40.2614 320.483 40.2682C320.455 40.2739 320.429 40.2872 320.408 40.3065C320.387 40.3259 320.371 40.3507 320.363 40.3782V40.4607C320.363 40.5192 320.531 41.9801 320.596 42.5749C320.583 42.6002 320.576 42.6286 320.576 42.6574C320.576 42.6861 320.583 42.7145 320.596 42.7399C320.613 42.7686 320.637 42.7922 320.666 42.8079C320.695 42.8237 320.728 42.8311 320.761 42.8292C320.794 42.8264 320.826 42.8118 320.85 42.788C321.487 43.0457 322.174 43.155 322.86 43.1077C323.319 43.1071 323.775 43.0208 324.202 42.8533L324.285 42.8224C326.021 42.0627 326.213 40.7117 326.216 40.1651C326.216 39.1785 325.593 38.2847 324.456 37.6488C324.144 37.4735 323.428 37.0507 323.168 36.8685C322.856 36.6873 322.596 36.4267 322.416 36.1129C322.235 35.7991 322.141 35.4432 322.141 35.0809M340.658 38.7935C340.687 39.6597 340.423 40.5101 339.911 41.2075C339.398 41.9048 338.666 42.4084 337.833 42.6367L337.727 42.6574C337.546 42.6924 337.363 42.7085 337.179 42.7055C334.973 42.7055 333.179 40.2992 333.179 37.3257C333.179 34.94 334.754 33.644 336.261 33.4343H336.343H336.422H336.655C338.792 33.4343 340.669 35.9541 340.669 38.8279M342.066 38.0819C342.066 35.3078 339.717 33.0493 336.833 33.0493C336.71 33.0493 336.528 33.0493 336.381 33.0802H336.35H336.271H336.193C334.979 33.2351 333.863 33.8295 333.054 34.7516C332.246 35.6738 331.801 36.8605 331.802 38.0888C331.802 40.8664 334.148 43.1249 337.035 43.1249C337.265 43.1206 337.493 43.0999 337.72 43.063H337.823C339.004 42.8702 340.08 42.2647 340.86 41.3534C341.64 40.442 342.075 39.2834 342.087 38.0819" fill="white"/>
<path d="M306.341 53.8508V51.7504H307.92C308.729 51.7504 309.211 52.1148 309.211 52.7817V52.8023C309.211 53.4348 308.711 53.8336 307.931 53.8336L306.341 53.8508ZM305.246 56.9996H306.341V54.8133H307.711L309.242 56.9927H310.54L308.859 54.6277C309.287 54.5353 309.669 54.2952 309.939 53.9491C310.208 53.6029 310.349 53.1728 310.335 52.7336V52.7164C310.348 52.2167 310.163 51.7322 309.821 51.3688C309.327 50.9305 308.681 50.7057 308.023 50.7432H305.246V56.9996ZM298.571 50.7501H303.187V51.7195H299.667V53.342H302.783V54.3252H299.667V56.0061H303.232V56.9859H298.571V50.7501ZM295.526 55.1571C295.526 55.7174 295.071 56.013 294.324 56.013H292.509V54.2942H294.245C295.108 54.2942 295.526 54.607 295.526 55.1364M295.184 52.517C295.184 53.0911 294.711 53.3661 294.009 53.3661H292.509V51.7195H294.084C294.786 51.7195 295.18 52.022 295.18 52.5136L295.184 52.517ZM291.437 56.9859H294.317C295.708 56.9859 296.622 56.3877 296.622 55.2671V55.2464C296.622 54.4008 296.115 53.9814 295.386 53.7305C295.652 53.614 295.878 53.4216 296.037 53.1771C296.195 52.9327 296.278 52.647 296.276 52.3554V52.3348C296.281 52.1433 296.246 51.953 296.174 51.7755C296.102 51.5981 295.995 51.4374 295.858 51.3035C295.41 50.9104 294.825 50.7114 294.231 50.7501H291.437V56.9859ZM283.009 50.7363H284.173L286.067 53.6927L287.964 50.7363H289.129V56.9859H288.036V52.517L286.067 55.4664H286.033L284.084 52.5342V57.003H283.009V50.7363ZM276.334 56.9859H280.995V56.0061H277.44V54.3252H280.563V53.342H277.44V51.7195H280.964V50.7363H276.33L276.334 56.9859ZM267.898 50.7501H269.066L270.96 53.7064L272.854 50.7501H274.015V56.9996H272.919V52.5307L270.953 55.4802H270.933L268.984 52.5479V57.0168H267.898V50.7501Z" fill="white"/>
</g>
<line x1="199.5" x2="199.5" y2="58" stroke="white"/>
<path d="M65.2605 31.5736C63.6772 32.127 62.0118 32.409 60.3346 32.4077C57.9177 32.4077 55.9282 31.8129 54.366 30.3566C52.9986 29.0747 52.1406 27.0134 52.1406 24.6103C52.1406 20.0057 55.4326 16.6386 60.7858 16.6386C62.1553 16.6126 63.5161 16.8601 64.7887 17.3667L64.2657 19.0007C63.1537 18.5202 61.9485 18.2936 60.7379 18.3375C56.8512 18.3375 54.3181 20.6723 54.3181 24.5419C54.3181 28.4116 56.735 30.7703 60.4713 30.7703C61.8386 30.7703 62.7445 30.5891 63.206 30.3601V25.7555H59.9859V24.1522H65.2434L65.2605 31.5736Z" fill="white"/>
<path d="M76.571 29.6065C76.5612 30.4947 76.616 31.3824 76.7351 32.2626H74.8618L74.6738 30.8645H74.602C74.189 31.3951 73.657 31.8211 73.0489 32.1079C72.4407 32.3948 71.7736 32.5344 71.1015 32.5155C68.7804 32.5155 67.5977 30.9328 67.5977 29.3296C67.5977 26.6496 70.0623 25.1865 74.4892 25.207V24.9814C74.4892 24.0618 74.2294 22.3902 71.8843 22.4142C70.8243 22.402 69.7821 22.6874 68.8761 23.238L68.4044 21.8706C69.5617 21.2256 70.8671 20.8934 72.192 20.9066C75.7232 20.9066 76.5744 23.2209 76.5744 25.4429L76.571 29.6065ZM74.5199 26.6051C72.2467 26.5607 69.6658 26.947 69.6658 29.1006C69.6658 30.4303 70.5648 31.0251 71.6074 31.0251C72.2122 31.0499 72.8095 30.884 73.3149 30.5509C73.8204 30.2179 74.2084 29.7344 74.4242 29.1689C74.491 28.9625 74.5233 28.7466 74.5199 28.5297V26.6051Z" fill="white"/>
<path d="M79.9258 16H82.011V32.2614H79.9258V16Z" fill="white"/>
<path d="M86.4591 19.1366C86.2867 19.1409 86.1151 19.11 85.955 19.0458C85.7948 18.9816 85.6494 18.8855 85.5275 18.7634C85.4057 18.6412 85.31 18.4955 85.2462 18.3352C85.1825 18.1749 85.152 18.0033 85.1567 17.8308C85.156 17.6564 85.1909 17.4837 85.2594 17.3233C85.3279 17.1629 85.4285 17.0182 85.5549 16.8982C85.6814 16.7781 85.8311 16.6852 85.9949 16.6251C86.1586 16.565 86.3329 16.5391 86.507 16.5489C86.6799 16.5394 86.8529 16.5658 87.0151 16.6263C87.1774 16.6868 87.3254 16.7801 87.4499 16.9004C87.5744 17.0208 87.6727 17.1655 87.7387 17.3256C87.8047 17.4857 87.8369 17.6577 87.8333 17.8308C87.8368 18.0067 87.8041 18.1815 87.7371 18.3443C87.6701 18.507 87.5704 18.6542 87.444 18.7767C87.3177 18.8992 87.1674 18.9944 87.0027 19.0563C86.838 19.1182 86.6622 19.1456 86.4865 19.1366H86.4591ZM85.461 32.2599V21.174H87.5462V32.2599H85.461Z" fill="white"/>
<path d="M91.0078 16H93.093V32.2614H91.0078V16Z" fill="white"/>
<path d="M97.7322 27.0618C97.78 29.7966 99.5576 30.911 101.639 30.911C102.723 30.94 103.802 30.7517 104.812 30.3572L105.191 31.7758C103.975 32.2736 102.669 32.5156 101.356 32.4868C97.8518 32.4868 95.7188 30.2204 95.7188 26.8977C95.7188 23.5751 97.7698 20.8984 101.12 20.8984C104.86 20.8984 105.83 24.081 105.83 26.1183C105.837 26.4411 105.814 26.7637 105.762 27.0823L97.7322 27.0618ZM103.817 25.6193C103.841 24.3613 103.273 22.3444 100.952 22.3444C98.8227 22.3444 97.9202 24.2211 97.7561 25.6193H103.817Z" fill="white"/>
<path d="M109.599 27.0618C109.647 29.7966 111.421 30.911 113.507 30.911C114.591 30.9396 115.671 30.7513 116.682 30.3572L117.058 31.7758C115.842 32.2736 114.537 32.5156 113.223 32.4868C109.716 32.4868 107.586 30.2204 107.586 26.8977C107.586 23.5751 109.637 20.8984 112.987 20.8984C116.747 20.8984 117.698 24.081 117.698 26.1183C117.706 26.4411 117.683 26.7639 117.629 27.0823L109.599 27.0618ZM115.688 25.6193C115.711 24.3613 115.141 22.3444 112.82 22.3444C110.69 22.3444 109.791 24.2211 109.623 25.6193H115.688Z" fill="white"/>
<path d="M123.381 18.5178H118.527V16.8086H130.345V18.5178H125.456V32.2598H123.371L123.381 18.5178Z" fill="white"/>
<path d="M135.2 32.5137C132.124 32.5137 129.707 30.3122 129.707 26.8084C129.707 23.0994 132.24 20.9219 135.392 20.9219C138.684 20.9219 140.909 23.2361 140.909 26.6033C140.909 30.7259 137.949 32.5137 135.224 32.5137H135.2ZM135.272 31.0028C137.262 31.0028 138.756 29.191 138.756 26.6716C138.756 24.7949 137.785 22.4362 135.337 22.4362C132.89 22.4362 131.816 24.6343 131.816 26.74C131.816 29.1671 133.235 31.0028 135.235 31.0028H135.272Z" fill="white"/>
<path d="M153.148 29.2403C153.148 30.382 153.172 31.3905 153.244 32.2622H151.398L151.278 30.4538H151.23C150.834 31.0986 150.276 31.6276 149.61 31.9877C148.944 32.3477 148.196 32.5261 147.439 32.5049C145.641 32.5049 143.484 31.517 143.484 27.6473V21.1523H145.57V27.2816C145.57 29.3873 146.253 30.8333 148.127 30.8333C148.714 30.8264 149.287 30.6467 149.773 30.3166C150.26 29.9866 150.638 29.5207 150.861 28.9771C150.992 28.6512 151.057 28.3027 151.053 27.9516V21.1763H153.148V29.2403Z" fill="white"/>
<path d="M156.611 24.6343C156.611 23.3285 156.587 22.2072 156.516 21.1749H158.338L158.433 23.3524H158.505C158.717 22.666 159.138 22.0628 159.709 21.627C160.28 21.1913 160.973 20.9448 161.691 20.9219C161.884 20.9207 162.076 20.9448 162.262 20.9937V22.8704C162.018 22.8423 161.773 22.8275 161.527 22.826C160.057 22.826 159.018 23.9028 158.731 25.3898C158.684 25.709 158.661 26.0312 158.662 26.3538V32.2608H156.577L156.611 24.6343Z" fill="white"/>
<path d="M164.046 30.2231C164.894 30.7024 165.845 30.9698 166.819 31.0025C168.309 31.0025 169.02 30.2915 169.02 29.3514C169.02 28.4114 168.429 27.861 166.914 27.3004C164.829 26.5654 163.858 25.4921 163.858 24.1623C163.858 22.3745 165.373 20.908 167.814 20.908C168.79 20.8836 169.755 21.1196 170.61 21.5916L170.111 23.0376C169.397 22.6251 168.59 22.4037 167.766 22.395C166.535 22.395 165.872 23.0787 165.872 23.9059C165.872 24.846 166.535 25.2733 168.025 25.8065C169.991 26.5176 171.034 27.4781 171.034 29.1497C171.034 31.1222 169.448 32.4964 166.771 32.4964C165.65 32.5122 164.543 32.2466 163.551 31.7238L164.046 30.2231Z" fill="white"/>
<path d="M52.9855 42.1391H55.0707V39.1172L56.6363 39.2608C56.8551 39.3018 56.9611 39.3667 56.9611 39.4522C56.9611 39.6026 56.8551 39.7257 56.6363 39.8214C56.593 40.6532 56.5714 41.4258 56.5714 42.1391H60.1641C60.1641 46.665 60.0502 49.5137 59.8223 50.6851C59.6821 51.8234 59.371 52.6096 58.8925 53.0335C58.4139 53.4574 57.5251 53.7172 56.3184 53.7172L55.6005 52.2302C56.8836 52.2302 57.6391 52.1014 57.8669 51.8439C58.1062 51.6217 58.2908 51.1192 58.4207 50.3432C58.6053 49.4886 58.7033 47.2017 58.7147 43.4825H56.5611C56.5272 44.8189 56.4245 46.1527 56.2535 47.4786C56.0823 48.6392 55.7807 49.7767 55.3544 50.8697C54.9511 51.9013 54.4206 52.8786 53.7751 53.7787L52.1445 53.1224C52.8541 52.3061 53.4309 51.3832 53.8537 50.3877C54.3187 49.3509 54.6318 48.2526 54.7835 47.1265C54.9644 45.9143 55.0615 44.691 55.0741 43.4654H52.9855V42.1391ZM60.9948 41.2229H66.8061V53.6591H65.3669V52.3157H62.4271V53.6591H60.988L60.9948 41.2229ZM62.4339 50.8834H65.3738V42.4946H62.4339V50.8834Z" fill="white"/>
<path d="M80.9634 40.5031C80.774 40.5107 80.587 40.5488 80.4096 40.6159C79.8247 40.8497 79.2279 41.0528 78.6218 41.2244V43.5899H81.8796V45.0017H79.1448C79.8876 46.6324 80.9026 48.1248 82.1462 49.4149L80.8404 50.3242C79.9956 49.2166 79.2531 48.0347 78.6218 46.793V53.8281H77.1211V46.9536C76.9468 47.3365 76.7793 47.692 76.5844 48.0236C75.9847 49.1809 75.2919 50.2876 74.5129 51.3326L72.9609 50.184C73.8389 49.3027 74.6299 48.3388 75.3231 47.3057C75.8202 46.5642 76.2766 45.7962 76.6904 45.0051H73.4293V43.5899H77.1485V41.638C76.311 41.8329 75.4632 41.9799 74.6052 42.1371L73.6275 40.7937C74.8103 40.7285 75.9845 40.5534 77.1348 40.2706C78.2508 40.0018 79.3418 39.6381 80.396 39.1836L81.4523 40.2091C81.4894 40.2376 81.5192 40.2744 81.5394 40.3166C81.5596 40.3587 81.5696 40.4051 81.5685 40.4518C81.5685 40.5339 81.5035 40.5783 81.3736 40.5783L80.9634 40.5031ZM83.0145 41.1047L84.3408 41.2175C84.5904 41.2175 84.7134 41.303 84.7134 41.4432C84.7134 41.5047 84.628 41.6072 84.457 41.744V50.4438H83.0145V41.1047ZM86.074 39.3955L87.6909 39.5699C87.8755 39.5938 87.9677 39.6553 87.9677 39.7613C87.9677 39.8673 87.8379 40.0416 87.5746 40.2091V51.9137C87.5958 52.1892 87.547 52.4655 87.4328 52.7171C87.3187 52.9687 87.1429 53.1874 86.9217 53.3529C86.5525 53.6719 85.641 53.8315 84.187 53.8315L83.6024 52.3786H85.1988C85.7424 52.3786 86.0363 52.1428 86.0774 51.6745L86.074 39.3955Z" fill="white"/>
<path d="M101.667 40.5031C101.477 40.5104 101.29 40.5485 101.113 40.6159C100.531 40.8492 99.9378 41.0523 99.3352 41.2244V43.5899H102.596V45.0017H99.8616C100.603 46.6323 101.617 48.1247 102.86 49.4149L101.557 50.3242C100.711 49.2174 99.9686 48.0354 99.3386 46.793V53.8281H97.8345V46.9536C97.6602 47.3365 97.4927 47.692 97.2978 48.0236C96.6994 49.1809 96.0078 50.2876 95.2297 51.3326L93.6641 50.184C94.5411 49.3018 95.332 48.338 96.0262 47.3057C96.5208 46.5626 96.9772 45.7947 97.3935 45.0051H94.1324V43.5899H97.8345V41.638C96.997 41.8329 96.1492 41.9799 95.2912 42.1371L94.3136 40.7937C95.501 40.7297 96.6798 40.5546 97.8345 40.2706C98.9507 40.0024 100.042 39.6387 101.096 39.1836L102.155 40.2091C102.191 40.2383 102.22 40.2753 102.24 40.3174C102.259 40.3595 102.269 40.4054 102.268 40.4518C102.268 40.5339 102.207 40.5783 102.073 40.5783L101.667 40.5031ZM103.718 41.1047L105.041 41.2175C105.29 41.2175 105.417 41.303 105.417 41.4432C105.417 41.5047 105.328 41.6072 105.157 41.744V50.4438H103.714L103.718 41.1047ZM106.794 39.3955L108.408 39.5699C108.592 39.5938 108.685 39.6553 108.685 39.7613C108.685 39.8673 108.555 40.0416 108.295 40.2091V51.9137C108.315 52.1891 108.266 52.4651 108.152 52.7165C108.038 52.9679 107.862 53.1867 107.642 53.3529C107.273 53.6719 106.361 53.8315 104.907 53.8315L104.319 52.3786H105.919C106.463 52.3786 106.753 52.1428 106.798 51.6745L106.794 39.3955Z" fill="white"/>
<path d="M117.045 39.1172L118.368 39.23C118.621 39.23 118.744 39.3155 118.744 39.4522C118.744 39.5171 118.655 39.6163 118.484 39.7564V41.8075H121.027V42.9697C121.376 42.549 121.677 42.0903 121.923 41.6024C122.307 40.8442 122.575 40.0331 122.719 39.1958L124.169 39.4351C124.333 39.4761 124.415 39.5479 124.415 39.6436C124.415 39.7393 124.261 39.9137 123.957 40.0436C123.827 40.5427 123.69 40.9905 123.55 41.3836H129.173V42.6963H122.948C122.528 43.425 122.013 44.0951 121.417 44.6892L120.326 43.7286C120.527 43.5527 120.712 43.3606 120.88 43.1543H117.65C117.65 43.9098 117.616 44.614 117.585 45.2601H120.661C120.661 48.5623 120.575 50.6441 120.402 51.5055C120.292 52.335 120.064 52.9048 119.718 53.2147C119.335 53.5565 118.692 53.7275 117.79 53.7275L117.137 52.3191C118.019 52.3191 118.542 52.2234 118.706 52.0319C118.928 51.7339 119.059 51.3775 119.082 51.0064C119.203 50.4412 119.274 48.9816 119.294 46.6274H117.53C117.461 47.6035 117.335 48.5748 117.154 49.5365C116.867 51.0797 116.238 52.5388 115.312 53.8061L114.266 52.7019C115.102 51.517 115.671 50.1637 115.93 48.7366C116.158 47.5538 116.278 45.6976 116.289 43.168H114.789V41.8006H117.072L117.045 39.1172ZM128.455 44.5114C128.225 44.535 128 44.595 127.789 44.6892C127.31 44.8806 126.804 45.0618 126.271 45.2327C126.342 46.2113 126.501 47.1816 126.746 48.1315C127.308 47.664 127.836 47.1568 128.326 46.6138L129.351 47.6222C129.403 47.6791 129.433 47.7534 129.433 47.8307C129.433 47.9162 129.279 47.9572 128.975 47.9572C128.396 48.4267 127.788 48.8824 127.15 49.3246C127.694 50.5583 128.469 51.6768 129.433 52.6199L128.322 53.7856C127.284 52.6312 126.472 51.2918 125.929 49.8373C125.448 48.4816 125.152 47.0674 125.047 45.6327C124.593 45.7592 124.121 45.8891 123.632 46.0155V51.6115C124.456 51.4508 125.283 51.2696 126.107 51.085V52.4524L122.193 53.2044C122.053 53.5463 121.919 53.7309 121.8 53.7309C121.68 53.7309 121.632 53.642 121.557 53.4608L121.01 52.0422C121.403 51.9909 121.793 51.9294 122.186 51.8679V44.3029L123.061 44.7371C123.834 44.5866 124.579 44.4112 125.297 44.2106C126.177 43.9258 127.016 43.527 127.792 43.0244L128.872 44.1457C128.922 44.1885 128.962 44.2409 128.99 44.2996C129.018 44.3584 129.034 44.4224 129.037 44.4875C129.039 44.505 129.037 44.5228 129.031 44.5394C129.026 44.5561 129.016 44.5712 129.003 44.5835C128.991 44.5958 128.976 44.6049 128.959 44.6102C128.942 44.6155 128.924 44.6168 128.907 44.614L128.455 44.5114Z" fill="white"/>
<path d="M140.214 42.3227L141.523 42.791C141.698 42.8354 141.783 42.8935 141.783 42.9687C141.77 43.0443 141.73 43.1124 141.67 43.1602C141.431 43.2103 140.985 43.6741 140.334 44.5515C140.05 44.9138 139.753 45.2693 139.438 45.6214V53.8256H137.876V47.1871C137.418 47.6041 136.943 48.0075 136.44 48.404L135.008 47.652C137.084 46.244 138.855 44.4314 140.214 42.3227ZM139.366 39.2461L140.672 39.6905C140.846 39.7452 140.932 39.8101 140.932 39.8853C140.932 39.9605 140.887 39.9947 140.802 40.0904C140.617 40.1246 140.269 40.4049 139.759 40.9382C138.83 41.8524 137.798 42.6554 136.683 43.3311L135.247 42.5619C136.829 41.7445 138.23 40.6168 139.366 39.2461ZM141.127 44.5583H150.182V45.9257H147.379V52.1916C147.399 52.4545 147.349 52.718 147.232 52.9544C147.115 53.1908 146.937 53.3914 146.716 53.535C146.347 53.8359 145.42 53.9829 143.93 53.9829L143.28 52.4001H144.86C145.413 52.4001 145.714 52.2463 145.759 51.9386V45.9222H141.127V44.5583ZM142.303 40.1656H149.539V41.5706H142.303V40.1656Z" fill="white"/>
<path d="M156.562 45.6556L157.8 45.7513C157.974 45.7718 158.063 45.8231 158.063 45.9086C158.063 45.994 157.994 46.0761 157.868 46.182C157.8 48.0052 157.712 49.3372 157.605 50.1782C157.504 50.8163 157.375 51.4612 157.215 52.113L155.848 51.8566C156.038 51.2559 156.18 50.6409 156.272 50.0175C156.449 48.57 156.546 47.1138 156.562 45.6556ZM155.974 42.9619H162.435V44.3122H160.09V53.8427H158.647V44.3122H155.974V42.9619ZM156.757 40.1793H161.844V41.5467H156.757V40.1793ZM161.006 45.7821H162.247C162.247 46.2709 162.23 46.6982 162.23 47.0606C162.249 48.3564 162.429 49.6448 162.767 50.896L161.464 51.043C161.115 49.744 160.934 48.4057 160.924 47.0606C160.925 46.6331 160.952 46.2061 161.006 45.7821ZM162.825 44.0558H165.956V39.2461L167.344 39.3726C167.593 39.3726 167.716 39.4478 167.716 39.564C167.716 39.6802 167.631 39.7794 167.457 39.9469V44.049H170.578V45.4163H167.446V51.9968H171.032V53.3641H162.165V51.9968H165.946V45.3992H162.814L162.825 44.0558Z" fill="white"/>
<path d="M52.1406 35.8164H171.033" stroke="white" stroke-width="0.299801"/>
<path d="M33.8601 31.6901C34.3079 33.2557 37.0836 33.6693 38.3826 32.8934C38.3826 32.8934 40.4337 33.9702 40.6593 34.0488C41.5618 34.3906 45.3835 34.8487 45.0861 36.4143C44.7443 38.2022 40.4405 36.1443 39.4287 35.9665C38.7758 35.8503 35.6684 36.1716 35.3676 35.9084C36.9879 37.3236 39.1723 37.9595 41.1789 38.5748C41.8933 38.7935 45.869 38.7833 44.9768 40.5711C44.3649 41.7983 40.3346 40.2293 39.3774 40.0789C38.9535 40.0139 37.1247 40.0789 36.8649 39.8327C38.8988 41.8325 44.2213 40.5882 45.069 43.7844C44.1392 44.3109 43.3017 43.8767 42.2489 43.7605C40.4781 43.5691 38.5467 43.364 36.8512 44.0511C36.3863 43.8801 37.1315 42.882 35.3437 43.1452C34.6873 43.0563 34.0208 44.3143 35.3437 44.0511C33.8533 45.2202 33.884 42.6187 31.5834 43.446C31.5287 44.2938 32.5064 44.3143 33.467 44.3519C27.5531 44.5946 28.0317 51.7083 31.5971 53.397C30.3186 53.7388 26.9686 52.997 25.567 53.9986C22.0871 52.2894 18.8499 54.0704 15.7699 53.9986C17.6637 52.0365 18.5046 49.5308 17.2774 46.4781C14.8845 45.0629 12.0746 44.3314 9.32959 43.9212C7.84078 43.7008 6.33921 43.5774 4.83438 43.552C3.87381 43.552 -0.874358 43.8938 1.8296 41.9077C3.38156 40.7625 5.80179 40.5745 7.13155 39.2208C5.67531 39.1525 1.22113 41.2411 0.219532 39.2208C-0.864103 37.0399 2.40731 38.2193 2.57823 36.828C2.61242 36.4007 2.63977 35.9734 2.20221 35.9255C4.10284 35.505 5.85991 35.0162 7.86309 34.7051C8.10922 33.6044 7.61355 33.0985 7.10763 32.5926C6.6017 32.0866 4.67372 32.5618 3.9456 32.408C4.28744 30.6441 6.7316 30.562 8.20835 30.2544C9.36719 30.0151 13.3599 28.4153 14.2692 28.6751C13.1343 28.3503 11.849 28.8973 10.6867 28.7708C8.60147 28.5417 9.50393 27.3282 10.926 26.6992C13.7701 25.4412 17.0313 25.8036 19.9232 24.7541C18.5114 24.32 17.0381 24.5866 15.6297 24.8943C15.0999 25.0071 12.4574 26.0121 12.5908 24.7063C12.683 23.7696 14.8948 23.6808 15.0247 22.3407C16.4091 22.1527 17.5474 21.7528 19.1609 21.7391C19.5472 21.7391 18.5456 20.9426 18.4773 20.9153C18.0944 20.7375 17.5474 20.9153 17.1372 20.8161C17.3389 19.982 18.8054 20.1632 19.5301 20.2316C20.142 19.712 19.872 18.5019 21.4137 18.7241C21.5983 17.7772 20.1147 17.9242 21.0376 17.2165C22.4563 16.2047 24.1005 16.4132 26.3225 16.6115C25.4782 19.0762 30.5135 18.1532 30.8451 20.5324H28.206C31.4785 22.0046 34.527 23.9311 37.2614 26.2548C35.6479 25.7318 33.6618 25.5164 31.2313 25.6532C33.8806 27.2974 39.4355 26.4668 41.4079 29.2699C40.4884 30.0082 39.7705 29.0477 38.3929 29.2699C38.7347 29.2117 40.0201 29.9843 40.4439 30.121C41.3122 30.4014 43.8624 30.4834 43.9376 31.7824C44.0264 33.348 41.4353 32.6643 40.5431 32.572C39.8799 32.5071 34.0481 32.2405 33.8601 31.6901ZM28.206 45.8594C29.7204 45.562 30.5169 44.6937 30.4656 43.1452C28.1753 42.8204 28.0317 44.2151 28.206 45.8594ZM19.537 43.1452H17.2774C17.0586 45.0253 18.4157 45.6509 19.913 46.1602C19.8275 45.1381 19.3148 44.4271 19.537 43.1452ZM16.1459 44.6527C16.8056 43.2409 14.0299 43.0324 13.8829 44.0511C15.0725 43.9006 14.7375 44.974 16.1459 44.6527ZM12.7548 42.2393C12.707 41.5761 11.155 42.1128 10.4918 41.9385C10.4926 42.1069 10.4598 42.2738 10.3952 42.4294C10.3306 42.5849 10.2357 42.726 10.1158 42.8444C10.7516 43.3161 12.7377 43.1691 12.7548 42.2393Z" fill="#45B035"/>
<defs>
<clipPath id="clip0_13346_4572">
<rect width="106" height="51" fill="white" transform="translate(236 6)"/>
</clipPath>
</defs>
</svg>
