<svg width="130" height="31" viewBox="0 0 130 31" fill="none" xmlns="http://www.w3.org/2000/svg">
<g clip-path="url(#clip0_13346_3940)">
<path d="M49.625 12.8C48.925 13 47.525 13.4 45.825 13.4C44.025 13.4 42.525 12.9 41.325 11.9C40.225 10.9 39.625 9.4 39.625 7.5C39.625 4 42.125 1.5 46.225 1.5C47.625 1.5 48.725 1.8 49.325 2L48.925 3.2C48.325 2.9 47.525 2.7 46.225 2.7C43.225 2.7 41.325 4.5 41.325 7.4C41.325 10.4 43.125 12.1 46.025 12.1C47.025 12.1 47.725 12 48.125 11.8V8.4H45.625V7.1H49.625V12.8Z" fill="white"/>
<path d="M58.2281 11.3008C58.2281 12.0008 58.2281 12.7008 58.3281 13.3008H56.9281L56.8281 12.2008H56.7281C56.2281 12.9008 55.3281 13.5008 54.0281 13.5008C52.2281 13.5008 51.3281 12.3008 51.3281 11.1008C51.3281 9.10078 53.2281 7.90078 56.5281 8.00078V7.80078C56.5281 7.10078 56.3281 5.80078 54.5281 5.90078C53.7281 5.90078 52.8281 6.10078 52.2281 6.50078L51.8281 5.50078C52.5281 5.10078 53.6281 4.80078 54.7281 4.80078C57.4281 4.80078 58.0281 6.60078 58.0281 8.20078L58.2281 11.3008ZM56.6281 9.00078C54.9281 9.00078 52.9281 9.20078 52.9281 10.9008C52.9281 11.9008 53.6281 12.4008 54.4281 12.4008C55.6281 12.4008 56.3281 11.7008 56.5281 11.0008C56.6281 10.9008 56.6281 10.7008 56.6281 10.5008V9.00078Z" fill="white"/>
<path d="M60.7266 1H62.3266V13.4H60.7266V1Z" fill="white"/>
<path d="M65.7266 3.30078C65.1266 3.30078 64.7266 2.80078 64.7266 2.30078C64.7266 1.80078 65.1266 1.30078 65.7266 1.30078C66.3266 1.30078 66.7266 1.70078 66.7266 2.30078C66.7266 2.90078 66.3266 3.30078 65.7266 3.30078ZM64.9266 13.3008V4.90078H66.5266V13.3008H64.9266Z" fill="white"/>
<path d="M69.2266 1H70.8266V13.4H69.2266V1Z" fill="white"/>
<path d="M74.3281 9.39961C74.3281 11.4996 75.7281 12.2996 77.3281 12.2996C78.4281 12.2996 79.1281 12.0996 79.7281 11.8996L80.0281 12.9996C79.4281 13.1996 78.5281 13.4996 77.1281 13.4996C74.4281 13.4996 72.8281 11.7996 72.8281 9.19961C72.8281 6.59961 74.4281 4.59961 76.9281 4.59961C79.7281 4.59961 80.5281 6.99961 80.5281 8.59961C80.5281 8.89961 80.5281 9.19961 80.4281 9.29961L74.3281 9.39961ZM78.9281 8.29961C78.9281 7.39961 78.5281 5.79961 76.7281 5.79961C75.1281 5.79961 74.4281 7.19961 74.3281 8.29961H78.9281Z" fill="white"/>
<path d="M83.3281 9.4C83.3281 11.5 84.7281 12.3 86.3281 12.3C87.4281 12.3 88.1281 12.1 88.7281 11.9L89.0281 12.9C88.4281 13.1 87.5281 13.4 86.1281 13.4C83.4281 13.4 81.8281 11.7 81.8281 9.1C81.8281 6.5 83.4281 4.5 85.9281 4.5C88.7281 4.5 89.5281 6.9 89.5281 8.5C89.5281 8.8 89.5281 9.1 89.4281 9.2L83.3281 9.4ZM87.9281 8.3C87.9281 7.4 87.5281 5.8 85.7281 5.8C84.1281 5.8 83.4281 7.2 83.3281 8.3H87.9281Z" fill="white"/>
<path d="M93.825 2.89961H90.125V1.59961H99.125V2.89961H95.425V13.2996H93.825V2.89961Z" fill="white"/>
<path d="M102.825 13.4992C100.425 13.4992 98.625 11.7992 98.625 9.19922C98.625 6.39922 100.525 4.69922 102.925 4.69922C105.425 4.69922 107.125 6.49922 107.125 8.99922C107.125 12.0992 104.825 13.4992 102.825 13.4992ZM102.825 12.2992C104.325 12.2992 105.425 10.8992 105.425 8.99922C105.425 7.59922 104.725 5.79922 102.825 5.79922C100.925 5.79922 100.125 7.49922 100.125 9.09922C100.225 10.9992 101.225 12.2992 102.825 12.2992Z" fill="white"/>
<path d="M116.423 11.0004C116.423 11.9004 116.423 12.7004 116.523 13.3004H115.023L114.923 11.9004C114.523 12.6004 113.623 13.5004 112.023 13.5004C110.623 13.5004 109.023 12.8004 109.023 9.80039V4.90039H110.623V9.50039C110.623 11.1004 111.123 12.2004 112.523 12.2004C113.623 12.2004 114.323 11.5004 114.623 10.8004C114.723 10.6004 114.723 10.3004 114.723 10.0004V4.90039H116.323L116.423 11.0004Z" fill="white"/>
<path d="M119.022 7.49922C119.022 6.49922 119.022 5.59922 118.922 4.89922H120.322L120.422 6.59922H120.522C120.922 5.49922 121.922 4.69922 122.922 4.69922C123.122 4.69922 123.222 4.69922 123.322 4.69922V6.09922C123.122 6.09922 122.922 6.09922 122.722 6.09922C121.622 6.09922 120.822 6.89922 120.622 7.99922C120.622 8.19922 120.522 8.49922 120.522 8.69922V13.1992H119.022V7.49922Z" fill="white"/>
<path d="M124.728 11.6996C125.228 11.9996 126.028 12.2996 126.828 12.2996C127.928 12.2996 128.528 11.7996 128.528 10.9996C128.528 10.2996 128.028 9.89961 126.928 9.49961C125.328 8.89961 124.628 8.09961 124.628 7.09961C124.628 5.69961 125.828 4.59961 127.628 4.59961C128.528 4.59961 129.328 4.79961 129.728 5.09961L129.328 6.19961C128.928 5.99961 128.328 5.69961 127.528 5.69961C126.628 5.69961 126.128 6.19961 126.128 6.89961C126.128 7.59961 126.628 7.89961 127.828 8.29961C129.228 8.89961 130.028 9.69961 130.028 10.8996C130.028 12.3996 128.828 13.3996 126.828 13.3996C125.928 13.3996 125.028 13.1996 124.328 12.7996L124.728 11.6996Z" fill="white"/>
<path d="M40.2313 20.8H41.8312V18.5L43.0312 18.6C43.2313 18.6 43.2313 18.7 43.2313 18.7C43.2313 18.8 43.1312 18.9 43.0312 19C43.0312 19.6 43.0312 20.2 43.0312 20.8H45.7313C45.7313 24.2 45.6312 26.4 45.5312 27.3C45.4313 28.2 45.1312 28.8 44.8312 29.1C44.4312 29.5 43.7312 29.6 42.8312 29.6L42.2313 28.5C43.2313 28.5 43.7313 28.4 43.9313 28.2C44.1313 28 44.2312 27.6 44.3312 27C44.4312 26.4 44.5312 24.6 44.5312 21.8H42.8312C42.8312 22.9 42.7312 23.9 42.6312 24.8C42.5312 25.7 42.2313 26.6 41.9313 27.4C41.6313 28.1 41.2313 28.8 40.7313 29.6L39.5312 29.1C40.1313 28.5 40.5312 27.8 40.8312 27C41.2312 26.3 41.4312 25.4 41.5312 24.5C41.6312 23.8 41.7313 22.8 41.7313 21.7H40.1312V20.8H40.2313ZM46.3312 20.1H50.7313V29.6H49.6312V28.6H47.4313V29.6H46.3312V20.1ZM47.4313 27.5H49.6312V21.1H47.4313V27.5Z" fill="white"/>
<path d="M61.5312 19.5996C61.4313 19.5996 61.3312 19.5996 61.1312 19.6996C60.6312 19.8996 60.2312 19.9996 59.8312 20.1996V21.8996H62.3312V22.9996H60.2313C60.8313 24.2996 61.6312 25.3996 62.5312 26.2996L61.5312 26.9996C60.9313 26.1996 60.3312 25.2996 59.8312 24.2996V29.5996H58.7313V24.3996C58.6313 24.6996 58.4312 24.9996 58.3312 25.1996C57.9312 25.8996 57.4313 26.7996 56.7313 27.6996L55.5312 26.8996C56.2312 26.1996 56.8312 25.3996 57.3312 24.6996C57.6312 24.1996 58.0312 23.5996 58.3312 22.8996H55.8312V21.8996H58.6312V20.3996C58.0312 20.4996 57.3313 20.6996 56.7313 20.7996L56.0312 19.7996C57.1313 19.6996 57.9313 19.5996 58.7313 19.3996C59.4313 19.2996 60.2313 18.9996 61.2313 18.5996L62.0312 19.3996C62.1312 19.3996 62.1312 19.4996 62.1312 19.5996C62.1312 19.6996 62.1312 19.6996 62.0312 19.6996L61.5312 19.5996ZM63.1312 19.9996L64.1312 20.0996C64.3312 20.0996 64.4313 20.1996 64.4313 20.2996C64.4313 20.2996 64.3312 20.3996 64.2312 20.4996V27.0996H63.1312V19.9996ZM65.4313 18.6996L66.6312 18.7996C66.7312 18.7996 66.8313 18.8996 66.8313 18.8996C66.8313 18.9996 66.7312 19.0996 66.5312 19.2996V28.1996C66.5312 28.6996 66.3313 28.9996 66.0312 29.2996C65.7312 29.4996 65.0313 29.6996 63.9313 29.6996L63.4313 28.5996H64.6312C65.0312 28.5996 65.2313 28.3996 65.3313 28.0996L65.4313 18.6996Z" fill="white"/>
<path d="M77.2328 19.5996C77.1328 19.5996 77.0328 19.5996 76.8328 19.6996C76.3328 19.8996 75.9328 19.9996 75.5328 20.1996V21.8996H78.0328V22.9996H75.9328C76.5328 24.2996 77.3328 25.3996 78.2328 26.2996L77.2328 26.9996C76.6328 26.1996 76.0328 25.2996 75.5328 24.2996V29.5996H74.3328V24.3996C74.2328 24.6996 74.0328 24.9996 73.9328 25.1996C73.5328 25.8996 73.0328 26.7996 72.3328 27.6996L71.1328 26.8996C71.8328 26.1996 72.4328 25.3996 72.9328 24.6996C73.2328 24.1996 73.6328 23.5996 73.9328 22.8996H71.5328V21.8996H74.3328V20.3996C73.7328 20.4996 73.0328 20.6996 72.4328 20.7996L71.7328 19.7996C72.8328 19.6996 73.6328 19.5996 74.4328 19.3996C75.1328 19.2996 75.9328 18.9996 76.9328 18.5996L77.7328 19.3996C77.8328 19.3996 77.8328 19.4996 77.8328 19.5996C77.8328 19.6996 77.8328 19.6996 77.7328 19.6996L77.2328 19.5996ZM78.8328 19.9996L79.8328 20.0996C80.0328 20.0996 80.1328 20.1996 80.1328 20.2996C80.1328 20.2996 80.0328 20.3996 79.9328 20.4996V27.0996H78.8328V19.9996ZM81.1328 18.6996L82.3328 18.7996C82.4328 18.7996 82.5328 18.8996 82.5328 18.8996C82.5328 18.9996 82.4328 19.0996 82.2328 19.2996V28.1996C82.2328 28.6996 82.0328 28.9996 81.7328 29.2996C81.4328 29.4996 80.7328 29.6996 79.6328 29.6996L79.1328 28.5996H80.3328C80.7328 28.5996 80.9328 28.3996 81.0328 28.0996L81.1328 18.6996Z" fill="white"/>
<path d="M88.9344 18.5L89.9344 18.6C90.1344 18.6 90.2344 18.7 90.2344 18.8C90.2344 18.8 90.1344 18.9 90.0344 19V20.5H92.0344V21.4C92.3344 21 92.5344 20.7 92.7344 20.4C92.9344 20 93.1344 19.4 93.3344 18.6L94.4344 18.8C94.5344 18.8 94.6344 18.9 94.6344 18.9C94.6344 19 94.5344 19.1 94.2344 19.2C94.1344 19.6 94.0344 19.9 93.9344 20.2H98.2344V21.2H93.5344C93.2344 21.7 92.8344 22.2 92.3344 22.7L91.5344 22C91.6344 21.9 91.8344 21.7 91.9344 21.6H89.4344C89.4344 22.2 89.4344 22.7 89.4344 23.2H91.7344C91.7344 25.7 91.6344 27.3 91.5344 27.9C91.4344 28.5 91.3344 29 91.0344 29.2C90.7344 29.4 90.2344 29.6 89.5344 29.6L89.0344 28.5C89.7344 28.5 90.1344 28.4 90.2344 28.3C90.3344 28.2 90.4344 27.9 90.5344 27.5C90.6344 27.1 90.6344 26 90.7344 24.2H89.4344C89.3344 25.1 89.2344 25.9 89.1344 26.4C88.8344 27.7 88.4344 28.8 87.7344 29.6L86.7344 28.9C87.3344 28 87.8344 27 88.0344 25.9C88.2344 25 88.3344 23.6 88.3344 21.7H87.2344V20.7H88.9344V18.5ZM97.6344 22.6C97.5344 22.6 97.3344 22.6 97.1344 22.7C96.7344 22.8 96.4344 23 95.9344 23.1C96.0344 24 96.1344 24.7 96.3344 25.3C96.8344 24.9 97.1344 24.5 97.5344 24.1L98.3344 24.9C98.3344 24.9 98.4344 25 98.4344 25.1C98.4344 25.2 98.3344 25.2 98.0344 25.2C97.6344 25.6 97.1344 25.9 96.6344 26.3C97.0344 27.1 97.5344 28 98.3344 28.8L97.5344 29.7C96.7344 28.8 96.1344 27.7 95.7344 26.7C95.4344 25.9 95.2344 24.9 95.0344 23.5C94.6344 23.6 94.3344 23.7 93.9344 23.8V28.1C94.5344 28 95.2344 27.9 95.8344 27.7V28.7L92.8344 29.3C92.7344 29.6 92.6344 29.7 92.5344 29.7C92.4344 29.7 92.4344 29.6 92.3344 29.5L91.9344 28.4C92.2344 28.4 92.5344 28.3 92.8344 28.3V22.5L93.5344 22.8C94.1344 22.7 94.7344 22.6 95.2344 22.4C95.9344 22.2 96.5344 21.9 97.1344 21.5L97.9344 22.3C98.0344 22.4 98.0344 22.5 98.0344 22.6C98.0344 22.7 98.0344 22.7 97.9344 22.7L97.6344 22.6Z" fill="white"/>
<path d="M106.633 20.9996L107.633 21.3996C107.733 21.3996 107.833 21.4996 107.833 21.4996C107.833 21.4996 107.833 21.5996 107.733 21.5996C107.533 21.5996 107.233 21.9996 106.733 22.6996C106.533 22.9996 106.233 23.2996 106.033 23.4996V29.7996H104.833V24.6996C104.433 24.9996 104.133 25.2996 103.733 25.5996L102.633 24.9996C104.233 23.8996 105.533 22.4996 106.633 20.9996ZM105.933 18.5996L106.933 18.9996C107.033 18.9996 107.133 19.0996 107.133 19.0996C107.133 19.0996 107.133 19.1996 107.033 19.1996C106.933 19.1996 106.633 19.3996 106.233 19.7996C105.633 20.3996 104.833 21.0996 103.933 21.5996L102.833 20.9996C104.133 20.4996 105.133 19.5996 105.933 18.5996ZM107.333 22.6996H114.233V23.6996H112.033V28.4996C112.033 28.9996 111.833 29.2996 111.533 29.4996C111.233 29.6996 110.533 29.8996 109.433 29.8996L108.933 28.6996H110.133C110.533 28.6996 110.733 28.5996 110.833 28.2996V23.6996H107.333V22.6996ZM108.133 19.2996H113.633V20.3996H108.133V19.2996Z" fill="white"/>
<path d="M119.03 23.4996L119.93 23.5996C120.03 23.5996 120.13 23.6996 120.13 23.6996C120.13 23.7996 120.13 23.7996 120.03 23.8996C120.03 25.2996 119.93 26.2996 119.83 26.8996C119.73 27.3996 119.63 27.8996 119.53 28.3996L118.43 28.1996C118.63 27.5996 118.73 27.1996 118.73 26.7996C118.93 26.0996 118.93 24.9996 119.03 23.4996ZM118.53 21.3996H123.43V22.3996H121.63V29.5996H120.53V22.3996H118.53V21.3996ZM119.13 19.2996H123.03V20.2996H119.13V19.2996ZM122.43 23.5996H123.33C123.33 23.9996 123.33 24.2996 123.33 24.5996C123.33 25.4996 123.43 26.4996 123.73 27.4996L122.73 27.5996C122.43 26.4996 122.33 25.5996 122.33 24.5996C122.33 24.2996 122.33 23.8996 122.43 23.5996ZM123.73 22.2996H126.13V18.5996L127.23 18.6996C127.43 18.6996 127.53 18.7996 127.53 18.7996C127.53 18.8996 127.43 18.9996 127.33 19.0996V22.1996H129.73V23.1996H127.33V28.1996H130.03V29.1996H123.33V28.1996H126.23V23.1996H123.83L123.73 22.2996Z" fill="white"/>
<path d="M25.7276 12.8992C26.1276 14.0992 28.2276 14.3992 29.1276 13.7992C29.1276 13.7992 30.6276 14.5992 30.8276 14.6992C31.5276 14.8992 34.4276 15.2992 34.2276 16.4992C34.0276 17.8992 30.7276 16.2992 29.9276 16.0992C29.4276 15.9992 27.1276 16.1992 26.8276 16.0992C28.0276 17.1992 29.7276 17.5992 31.2276 18.0992C31.7276 18.2992 34.7276 18.2992 34.1276 19.5992C33.6276 20.4992 30.6276 19.2992 29.8276 19.1992C29.5276 19.1992 28.1276 19.1992 27.9276 18.9992C29.4276 20.4992 33.5276 19.5992 34.2276 21.9992C33.5276 22.3992 32.9276 22.0992 32.1276 21.9992C30.8276 21.8992 29.3276 21.6992 28.0276 22.1992C27.6276 22.0992 28.2276 21.2992 26.8276 21.4992C26.3276 21.3992 25.8276 22.3992 26.8276 22.1992C25.7276 23.0992 25.7276 21.0992 23.9276 21.6992C23.9276 22.2992 24.6276 22.3992 25.3276 22.3992C20.8276 22.5992 21.2276 27.9992 23.9276 29.2992C22.9276 29.5992 20.4276 28.9992 19.3276 29.7992C16.7276 28.4992 14.2276 29.7992 11.8276 29.7992C13.2276 28.2992 13.9276 26.3992 13.0276 24.0992C11.2276 22.9992 9.02756 22.4992 7.02756 22.1992C5.92756 21.9992 4.82756 21.8992 3.62756 21.8992C2.92756 21.8992 -0.672442 22.1992 1.32756 20.5992C2.52756 19.6992 4.32756 19.5992 5.32756 18.5992C4.22756 18.4992 0.827558 20.0992 0.127558 18.5992C-0.572442 16.8992 1.82756 17.7992 2.02756 16.7992C2.02756 16.4992 2.02756 16.1992 1.72756 16.0992C3.12756 15.7992 4.52756 15.3992 6.02756 15.1992C6.22756 14.3992 5.82756 13.9992 5.42756 13.5992C5.02756 13.1992 3.52756 13.5992 3.02756 13.4992C3.22756 12.1992 5.12756 12.0992 6.22756 11.7992C7.12756 11.5992 10.1276 10.3992 10.8276 10.5992C10.0276 10.2992 9.02756 10.7992 8.12756 10.6992C6.52756 10.4992 7.22756 9.5992 8.32756 9.0992C10.4276 8.1992 12.9276 8.3992 15.2276 7.5992C14.0276 7.2992 13.0276 7.4992 11.9276 7.6992C11.5276 7.7992 9.52756 8.4992 9.62756 7.5992C9.72756 6.8992 11.4276 6.7992 11.5276 5.7992C12.6276 5.6992 13.4276 5.2992 14.7276 5.2992C15.0276 5.2992 14.2276 4.6992 14.2276 4.6992C13.9276 4.5992 13.5276 4.6992 13.2276 4.5992C13.3276 3.9992 14.5276 4.0992 15.0276 4.0992C15.5276 3.6992 15.3276 2.7992 16.4276 2.8992C16.5276 2.1992 15.4276 2.2992 16.1276 1.6992C17.2276 0.899198 18.4276 1.0992 20.1276 1.1992C19.5276 3.0992 23.3276 2.3992 23.5276 4.1992C22.8276 4.1992 22.2276 4.1992 21.5276 4.1992C24.1276 5.3992 26.4276 6.8992 28.4276 8.5992C27.2276 8.1992 25.7276 7.9992 23.8276 8.0992C25.8276 9.3992 30.0276 8.6992 31.5276 10.7992C30.8276 11.3992 30.3276 10.5992 29.2276 10.7992C29.5276 10.7992 30.4276 11.2992 30.7276 11.3992C31.4276 11.5992 33.3276 11.6992 33.4276 12.6992C33.5276 13.8992 31.5276 13.3992 30.8276 13.2992C30.3276 13.4992 25.8276 13.2992 25.7276 12.8992ZM21.4276 23.6992C22.6276 23.4992 23.2276 22.7992 23.1276 21.5992C21.4276 21.2992 21.3276 22.3992 21.4276 23.6992ZM14.8276 21.5992C14.2276 21.5992 13.6276 21.5992 13.1276 21.5992C12.9276 22.9992 14.0276 23.4992 15.1276 23.8992C15.0276 23.0992 14.6276 22.5992 14.8276 21.5992ZM12.2276 22.6992C12.7276 21.5992 10.6276 21.4992 10.5276 22.1992C11.4276 22.0992 11.2276 22.9992 12.2276 22.6992ZM9.72756 20.8992C9.72756 20.3992 8.52756 20.7992 8.02756 20.6992C8.02756 20.9992 7.92756 21.1992 7.72756 21.3992C8.12756 21.6992 9.62756 21.5992 9.72756 20.8992Z" fill="#43C72F"/>
</g>
<defs>
<clipPath id="clip0_13346_3940">
<rect width="130" height="31" fill="white"/>
</clipPath>
</defs>
</svg>
