<svg width="130" height="29" viewBox="0 0 130 29" fill="none" xmlns="http://www.w3.org/2000/svg">
<path d="M49.625 11.8C48.925 12 47.525 12.4 45.825 12.4C44.025 12.4 42.525 11.9 41.325 10.9C40.225 9.9 39.625 8.4 39.625 6.5C39.625 3 42.125 0.5 46.225 0.5C47.625 0.5 48.725 0.8 49.325 1L48.925 2.2C48.325 1.9 47.525 1.7 46.225 1.7C43.225 1.7 41.325 3.5 41.325 6.4C41.325 9.4 43.125 11.1 46.025 11.1C47.025 11.1 47.725 11 48.125 10.8V7.4H45.625V6.1H49.625V11.8Z" fill="#C6C6C6"/>
<path d="M58.2281 10.3008C58.2281 11.0008 58.2281 11.7008 58.3281 12.3008H56.9281L56.8281 11.2008H56.7281C56.2281 11.9008 55.3281 12.5008 54.0281 12.5008C52.2281 12.5008 51.3281 11.3008 51.3281 10.1008C51.3281 8.10078 53.2281 6.90078 56.5281 7.00078V6.80078C56.5281 6.10078 56.3281 4.80078 54.5281 4.90078C53.7281 4.90078 52.8281 5.10078 52.2281 5.50078L51.8281 4.50078C52.5281 4.10078 53.6281 3.80078 54.7281 3.80078C57.4281 3.80078 58.0281 5.60078 58.0281 7.20078L58.2281 10.3008ZM56.6281 8.00078C54.9281 8.00078 52.9281 8.20078 52.9281 9.90078C52.9281 10.9008 53.6281 11.4008 54.4281 11.4008C55.6281 11.4008 56.3281 10.7008 56.5281 10.0008C56.6281 9.90078 56.6281 9.70078 56.6281 9.50078V8.00078Z" fill="#C6C6C6"/>
<path d="M60.7266 0H62.3266V12.4H60.7266V0Z" fill="#C6C6C6"/>
<path d="M65.7266 2.30078C65.1266 2.30078 64.7266 1.80078 64.7266 1.30078C64.7266 0.800781 65.1266 0.300781 65.7266 0.300781C66.3266 0.300781 66.7266 0.700781 66.7266 1.30078C66.7266 1.90078 66.3266 2.30078 65.7266 2.30078ZM64.9266 12.3008V3.90078H66.5266V12.3008H64.9266Z" fill="#C6C6C6"/>
<path d="M69.2266 0H70.8266V12.4H69.2266V0Z" fill="#C6C6C6"/>
<path d="M74.3281 8.39961C74.3281 10.4996 75.7281 11.2996 77.3281 11.2996C78.4281 11.2996 79.1281 11.0996 79.7281 10.8996L80.0281 11.9996C79.4281 12.1996 78.5281 12.4996 77.1281 12.4996C74.4281 12.4996 72.8281 10.7996 72.8281 8.19961C72.8281 5.59961 74.4281 3.59961 76.9281 3.59961C79.7281 3.59961 80.5281 5.99961 80.5281 7.59961C80.5281 7.89961 80.5281 8.19961 80.4281 8.29961L74.3281 8.39961ZM78.9281 7.29961C78.9281 6.39961 78.5281 4.79961 76.7281 4.79961C75.1281 4.79961 74.4281 6.19961 74.3281 7.29961H78.9281Z" fill="#C6C6C6"/>
<path d="M83.3281 8.4C83.3281 10.5 84.7281 11.3 86.3281 11.3C87.4281 11.3 88.1281 11.1 88.7281 10.9L89.0281 11.9C88.4281 12.1 87.5281 12.4 86.1281 12.4C83.4281 12.4 81.8281 10.7 81.8281 8.1C81.8281 5.5 83.4281 3.5 85.9281 3.5C88.7281 3.5 89.5281 5.9 89.5281 7.5C89.5281 7.8 89.5281 8.1 89.4281 8.2L83.3281 8.4ZM87.9281 7.3C87.9281 6.4 87.5281 4.8 85.7281 4.8C84.1281 4.8 83.4281 6.2 83.3281 7.3H87.9281Z" fill="#C6C6C6"/>
<path d="M93.825 1.89961H90.125V0.599609H99.125V1.89961H95.425V12.2996H93.825V1.89961Z" fill="#C6C6C6"/>
<path d="M102.825 12.4992C100.425 12.4992 98.625 10.7992 98.625 8.19922C98.625 5.39922 100.525 3.69922 102.925 3.69922C105.425 3.69922 107.125 5.49922 107.125 7.99922C107.125 11.0992 104.825 12.4992 102.825 12.4992ZM102.825 11.2992C104.325 11.2992 105.425 9.89922 105.425 7.99922C105.425 6.59922 104.725 4.79922 102.825 4.79922C100.925 4.79922 100.125 6.49922 100.125 8.09922C100.225 9.99922 101.225 11.2992 102.825 11.2992Z" fill="#C6C6C6"/>
<path d="M116.423 10.0004C116.423 10.9004 116.423 11.7004 116.523 12.3004H115.023L114.923 10.9004C114.523 11.6004 113.623 12.5004 112.023 12.5004C110.623 12.5004 109.023 11.8004 109.023 8.80039V3.90039H110.623V8.50039C110.623 10.1004 111.123 11.2004 112.523 11.2004C113.623 11.2004 114.323 10.5004 114.623 9.80039C114.723 9.60039 114.723 9.30039 114.723 9.00039V3.90039H116.323L116.423 10.0004Z" fill="#C6C6C6"/>
<path d="M119.022 6.49922C119.022 5.49922 119.022 4.59922 118.922 3.89922H120.322L120.422 5.59922H120.522C120.922 4.49922 121.922 3.69922 122.922 3.69922C123.122 3.69922 123.222 3.69922 123.322 3.69922V5.09922C123.122 5.09922 122.922 5.09922 122.722 5.09922C121.622 5.09922 120.822 5.89922 120.622 6.99922C120.622 7.19922 120.522 7.49922 120.522 7.69922V12.1992H119.022V6.49922Z" fill="#C6C6C6"/>
<path d="M124.728 10.6996C125.228 10.9996 126.028 11.2996 126.828 11.2996C127.928 11.2996 128.528 10.7996 128.528 9.99961C128.528 9.29961 128.028 8.89961 126.928 8.49961C125.328 7.89961 124.628 7.09961 124.628 6.09961C124.628 4.69961 125.828 3.59961 127.628 3.59961C128.528 3.59961 129.328 3.79961 129.728 4.09961L129.328 5.19961C128.928 4.99961 128.328 4.69961 127.528 4.69961C126.628 4.69961 126.128 5.19961 126.128 5.89961C126.128 6.59961 126.628 6.89961 127.828 7.29961C129.228 7.89961 130.028 8.69961 130.028 9.89961C130.028 11.3996 128.828 12.3996 126.828 12.3996C125.928 12.3996 125.028 12.1996 124.328 11.7996L124.728 10.6996Z" fill="#C6C6C6"/>
<path d="M40.2313 19.8H41.8312V17.5L43.0312 17.6C43.2313 17.6 43.2313 17.7 43.2313 17.7C43.2313 17.8 43.1312 17.9 43.0312 18C43.0312 18.6 43.0312 19.2 43.0312 19.8H45.7313C45.7313 23.2 45.6312 25.4 45.5312 26.3C45.4313 27.2 45.1312 27.8 44.8312 28.1C44.4312 28.5 43.7312 28.6 42.8312 28.6L42.2313 27.5C43.2313 27.5 43.7313 27.4 43.9313 27.2C44.1313 27 44.2312 26.6 44.3312 26C44.4312 25.4 44.5312 23.6 44.5312 20.8H42.8312C42.8312 21.9 42.7312 22.9 42.6312 23.8C42.5312 24.7 42.2313 25.6 41.9313 26.4C41.6313 27.1 41.2313 27.8 40.7313 28.6L39.5312 28.1C40.1313 27.5 40.5312 26.8 40.8312 26C41.2312 25.3 41.4312 24.4 41.5312 23.5C41.6312 22.8 41.7313 21.8 41.7313 20.7H40.1312V19.8H40.2313ZM46.3312 19.1H50.7313V28.6H49.6312V27.6H47.4313V28.6H46.3312V19.1ZM47.4313 26.5H49.6312V20.1H47.4313V26.5Z" fill="#C6C6C6"/>
<path d="M61.5312 18.5996C61.4313 18.5996 61.3312 18.5996 61.1312 18.6996C60.6312 18.8996 60.2312 18.9996 59.8312 19.1996V20.8996H62.3312V21.9996H60.2313C60.8313 23.2996 61.6312 24.3996 62.5312 25.2996L61.5312 25.9996C60.9313 25.1996 60.3312 24.2996 59.8312 23.2996V28.5996H58.7313V23.3996C58.6313 23.6996 58.4312 23.9996 58.3312 24.1996C57.9312 24.8996 57.4313 25.7996 56.7313 26.6996L55.5312 25.8996C56.2312 25.1996 56.8312 24.3996 57.3312 23.6996C57.6312 23.1996 58.0312 22.5996 58.3312 21.8996H55.8312V20.8996H58.6312V19.3996C58.0312 19.4996 57.3313 19.6996 56.7313 19.7996L56.0312 18.7996C57.1313 18.6996 57.9313 18.5996 58.7313 18.3996C59.4313 18.2996 60.2313 17.9996 61.2313 17.5996L62.0312 18.3996C62.1312 18.3996 62.1312 18.4996 62.1312 18.5996C62.1312 18.6996 62.1312 18.6996 62.0312 18.6996L61.5312 18.5996ZM63.1312 18.9996L64.1312 19.0996C64.3312 19.0996 64.4313 19.1996 64.4313 19.2996C64.4313 19.2996 64.3312 19.3996 64.2312 19.4996V26.0996H63.1312V18.9996ZM65.4313 17.6996L66.6312 17.7996C66.7312 17.7996 66.8313 17.8996 66.8313 17.8996C66.8313 17.9996 66.7312 18.0996 66.5312 18.2996V27.1996C66.5312 27.6996 66.3313 27.9996 66.0312 28.2996C65.7312 28.4996 65.0313 28.6996 63.9313 28.6996L63.4313 27.5996H64.6312C65.0312 27.5996 65.2313 27.3996 65.3313 27.0996L65.4313 17.6996Z" fill="#C6C6C6"/>
<path d="M77.2328 18.5996C77.1328 18.5996 77.0328 18.5996 76.8328 18.6996C76.3328 18.8996 75.9328 18.9996 75.5328 19.1996V20.8996H78.0328V21.9996H75.9328C76.5328 23.2996 77.3328 24.3996 78.2328 25.2996L77.2328 25.9996C76.6328 25.1996 76.0328 24.2996 75.5328 23.2996V28.5996H74.3328V23.3996C74.2328 23.6996 74.0328 23.9996 73.9328 24.1996C73.5328 24.8996 73.0328 25.7996 72.3328 26.6996L71.1328 25.8996C71.8328 25.1996 72.4328 24.3996 72.9328 23.6996C73.2328 23.1996 73.6328 22.5996 73.9328 21.8996H71.5328V20.8996H74.3328V19.3996C73.7328 19.4996 73.0328 19.6996 72.4328 19.7996L71.7328 18.7996C72.8328 18.6996 73.6328 18.5996 74.4328 18.3996C75.1328 18.2996 75.9328 17.9996 76.9328 17.5996L77.7328 18.3996C77.8328 18.3996 77.8328 18.4996 77.8328 18.5996C77.8328 18.6996 77.8328 18.6996 77.7328 18.6996L77.2328 18.5996ZM78.8328 18.9996L79.8328 19.0996C80.0328 19.0996 80.1328 19.1996 80.1328 19.2996C80.1328 19.2996 80.0328 19.3996 79.9328 19.4996V26.0996H78.8328V18.9996ZM81.1328 17.6996L82.3328 17.7996C82.4328 17.7996 82.5328 17.8996 82.5328 17.8996C82.5328 17.9996 82.4328 18.0996 82.2328 18.2996V27.1996C82.2328 27.6996 82.0328 27.9996 81.7328 28.2996C81.4328 28.4996 80.7328 28.6996 79.6328 28.6996L79.1328 27.5996H80.3328C80.7328 27.5996 80.9328 27.3996 81.0328 27.0996L81.1328 17.6996Z" fill="#C6C6C6"/>
<path d="M88.9344 17.5L89.9344 17.6C90.1344 17.6 90.2344 17.7 90.2344 17.8C90.2344 17.8 90.1344 17.9 90.0344 18V19.5H92.0344V20.4C92.3344 20 92.5344 19.7 92.7344 19.4C92.9344 19 93.1344 18.4 93.3344 17.6L94.4344 17.8C94.5344 17.8 94.6344 17.9 94.6344 17.9C94.6344 18 94.5344 18.1 94.2344 18.2C94.1344 18.6 94.0344 18.9 93.9344 19.2H98.2344V20.2H93.5344C93.2344 20.7 92.8344 21.2 92.3344 21.7L91.5344 21C91.6344 20.9 91.8344 20.7 91.9344 20.6H89.4344C89.4344 21.2 89.4344 21.7 89.4344 22.2H91.7344C91.7344 24.7 91.6344 26.3 91.5344 26.9C91.4344 27.5 91.3344 28 91.0344 28.2C90.7344 28.4 90.2344 28.6 89.5344 28.6L89.0344 27.5C89.7344 27.5 90.1344 27.4 90.2344 27.3C90.3344 27.2 90.4344 26.9 90.5344 26.5C90.6344 26.1 90.6344 25 90.7344 23.2H89.4344C89.3344 24.1 89.2344 24.9 89.1344 25.4C88.8344 26.7 88.4344 27.8 87.7344 28.6L86.7344 27.9C87.3344 27 87.8344 26 88.0344 24.9C88.2344 24 88.3344 22.6 88.3344 20.7H87.2344V19.7H88.9344V17.5ZM97.6344 21.6C97.5344 21.6 97.3344 21.6 97.1344 21.7C96.7344 21.8 96.4344 22 95.9344 22.1C96.0344 23 96.1344 23.7 96.3344 24.3C96.8344 23.9 97.1344 23.5 97.5344 23.1L98.3344 23.9C98.3344 23.9 98.4344 24 98.4344 24.1C98.4344 24.2 98.3344 24.2 98.0344 24.2C97.6344 24.6 97.1344 24.9 96.6344 25.3C97.0344 26.1 97.5344 27 98.3344 27.8L97.5344 28.7C96.7344 27.8 96.1344 26.7 95.7344 25.7C95.4344 24.9 95.2344 23.9 95.0344 22.5C94.6344 22.6 94.3344 22.7 93.9344 22.8V27.1C94.5344 27 95.2344 26.9 95.8344 26.7V27.7L92.8344 28.3C92.7344 28.6 92.6344 28.7 92.5344 28.7C92.4344 28.7 92.4344 28.6 92.3344 28.5L91.9344 27.4C92.2344 27.4 92.5344 27.3 92.8344 27.3V21.5L93.5344 21.8C94.1344 21.7 94.7344 21.6 95.2344 21.4C95.9344 21.2 96.5344 20.9 97.1344 20.5L97.9344 21.3C98.0344 21.4 98.0344 21.5 98.0344 21.6C98.0344 21.7 98.0344 21.7 97.9344 21.7L97.6344 21.6Z" fill="#C6C6C6"/>
<path d="M106.633 19.9996L107.633 20.3996C107.733 20.3996 107.833 20.4996 107.833 20.4996C107.833 20.4996 107.833 20.5996 107.733 20.5996C107.533 20.5996 107.233 20.9996 106.733 21.6996C106.533 21.9996 106.233 22.2996 106.033 22.4996V28.7996H104.833V23.6996C104.433 23.9996 104.133 24.2996 103.733 24.5996L102.633 23.9996C104.233 22.8996 105.533 21.4996 106.633 19.9996ZM105.933 17.5996L106.933 17.9996C107.033 17.9996 107.133 18.0996 107.133 18.0996C107.133 18.0996 107.133 18.1996 107.033 18.1996C106.933 18.1996 106.633 18.3996 106.233 18.7996C105.633 19.3996 104.833 20.0996 103.933 20.5996L102.833 19.9996C104.133 19.4996 105.133 18.5996 105.933 17.5996ZM107.333 21.6996H114.233V22.6996H112.033V27.4996C112.033 27.9996 111.833 28.2996 111.533 28.4996C111.233 28.6996 110.533 28.8996 109.433 28.8996L108.933 27.6996H110.133C110.533 27.6996 110.733 27.5996 110.833 27.2996V22.6996H107.333V21.6996ZM108.133 18.2996H113.633V19.3996H108.133V18.2996Z" fill="#C6C6C6"/>
<path d="M119.03 22.4996L119.93 22.5996C120.03 22.5996 120.13 22.6996 120.13 22.6996C120.13 22.7996 120.13 22.7996 120.03 22.8996C120.03 24.2996 119.93 25.2996 119.83 25.8996C119.73 26.3996 119.63 26.8996 119.53 27.3996L118.43 27.1996C118.63 26.5996 118.73 26.1996 118.73 25.7996C118.93 25.0996 118.93 23.9996 119.03 22.4996ZM118.53 20.3996H123.43V21.3996H121.63V28.5996H120.53V21.3996H118.53V20.3996ZM119.13 18.2996H123.03V19.2996H119.13V18.2996ZM122.43 22.5996H123.33C123.33 22.9996 123.33 23.2996 123.33 23.5996C123.33 24.4996 123.43 25.4996 123.73 26.4996L122.73 26.5996C122.43 25.4996 122.33 24.5996 122.33 23.5996C122.33 23.2996 122.33 22.8996 122.43 22.5996ZM123.73 21.2996H126.13V17.5996L127.23 17.6996C127.43 17.6996 127.53 17.7996 127.53 17.7996C127.53 17.8996 127.43 17.9996 127.33 18.0996V21.1996H129.73V22.1996H127.33V27.1996H130.03V28.1996H123.33V27.1996H126.23V22.1996H123.83L123.73 21.2996Z" fill="#C6C6C6"/>
<path d="M25.7276 11.8992C26.1276 13.0992 28.2276 13.3992 29.1276 12.7992C29.1276 12.7992 30.6276 13.5992 30.8276 13.6992C31.5276 13.8992 34.4276 14.2992 34.2276 15.4992C34.0276 16.8992 30.7276 15.2992 29.9276 15.0992C29.4276 14.9992 27.1276 15.1992 26.8276 15.0992C28.0276 16.1992 29.7276 16.5992 31.2276 17.0992C31.7276 17.2992 34.7276 17.2992 34.1276 18.5992C33.6276 19.4992 30.6276 18.2992 29.8276 18.1992C29.5276 18.1992 28.1276 18.1992 27.9276 17.9992C29.4276 19.4992 33.5276 18.5992 34.2276 20.9992C33.5276 21.3992 32.9276 21.0992 32.1276 20.9992C30.8276 20.8992 29.3276 20.6992 28.0276 21.1992C27.6276 21.0992 28.2276 20.2992 26.8276 20.4992C26.3276 20.3992 25.8276 21.3992 26.8276 21.1992C25.7276 22.0992 25.7276 20.0992 23.9276 20.6992C23.9276 21.2992 24.6276 21.3992 25.3276 21.3992C20.8276 21.5992 21.2276 26.9992 23.9276 28.2992C22.9276 28.5992 20.4276 27.9992 19.3276 28.7992C16.7276 27.4992 14.2276 28.7992 11.8276 28.7992C13.2276 27.2992 13.9276 25.3992 13.0276 23.0992C11.2276 21.9992 9.02756 21.4992 7.02756 21.1992C5.92756 20.9992 4.82756 20.8992 3.62756 20.8992C2.92756 20.8992 -0.672442 21.1992 1.32756 19.5992C2.52756 18.6992 4.32756 18.5992 5.32756 17.5992C4.22756 17.4992 0.827558 19.0992 0.127558 17.5992C-0.572442 15.8992 1.82756 16.7992 2.02756 15.7992C2.02756 15.4992 2.02756 15.1992 1.72756 15.0992C3.12756 14.7992 4.52756 14.3992 6.02756 14.1992C6.22756 13.3992 5.82756 12.9992 5.42756 12.5992C5.02756 12.1992 3.52756 12.5992 3.02756 12.4992C3.22756 11.1992 5.12756 11.0992 6.22756 10.7992C7.12756 10.5992 10.1276 9.3992 10.8276 9.5992C10.0276 9.2992 9.02756 9.7992 8.12756 9.6992C6.52756 9.4992 7.22756 8.5992 8.32756 8.0992C10.4276 7.1992 12.9276 7.3992 15.2276 6.5992C14.0276 6.2992 13.0276 6.4992 11.9276 6.6992C11.5276 6.7992 9.52756 7.4992 9.62756 6.5992C9.72756 5.8992 11.4276 5.7992 11.5276 4.7992C12.6276 4.6992 13.4276 4.2992 14.7276 4.2992C15.0276 4.2992 14.2276 3.6992 14.2276 3.6992C13.9276 3.5992 13.5276 3.6992 13.2276 3.5992C13.3276 2.9992 14.5276 3.0992 15.0276 3.0992C15.5276 2.6992 15.3276 1.7992 16.4276 1.8992C16.5276 1.1992 15.4276 1.2992 16.1276 0.699198C17.2276 -0.100802 18.4276 0.0991976 20.1276 0.199198C19.5276 2.0992 23.3276 1.3992 23.5276 3.1992C22.8276 3.1992 22.2276 3.1992 21.5276 3.1992C24.1276 4.3992 26.4276 5.8992 28.4276 7.5992C27.2276 7.1992 25.7276 6.9992 23.8276 7.0992C25.8276 8.3992 30.0276 7.6992 31.5276 9.7992C30.8276 10.3992 30.3276 9.5992 29.2276 9.7992C29.5276 9.7992 30.4276 10.2992 30.7276 10.3992C31.4276 10.5992 33.3276 10.6992 33.4276 11.6992C33.5276 12.8992 31.5276 12.3992 30.8276 12.2992C30.3276 12.4992 25.8276 12.2992 25.7276 11.8992ZM21.4276 22.6992C22.6276 22.4992 23.2276 21.7992 23.1276 20.5992C21.4276 20.2992 21.3276 21.3992 21.4276 22.6992ZM14.8276 20.5992C14.2276 20.5992 13.6276 20.5992 13.1276 20.5992C12.9276 21.9992 14.0276 22.4992 15.1276 22.8992C15.0276 22.0992 14.6276 21.5992 14.8276 20.5992ZM12.2276 21.6992C12.7276 20.5992 10.6276 20.4992 10.5276 21.1992C11.4276 21.0992 11.2276 21.9992 12.2276 21.6992ZM9.72756 19.8992C9.72756 19.3992 8.52756 19.7992 8.02756 19.6992C8.02756 19.9992 7.92756 20.1992 7.72756 20.3992C8.12756 20.6992 9.62756 20.5992 9.72756 19.8992Z" fill="#43C72F"/>
</svg>
