<svg width="190" height="172" viewBox="0 0 190 172" fill="none" xmlns="http://www.w3.org/2000/svg">
<path d="M93.0967 33.1441C93.0967 33.1441 112.657 25.9002 104.905 6.57617C115.353 17.0242 131.669 10.332 131.669 0C137.773 16.144 161.853 15.12 167.957 9.01602C167.957 23.104 176.801 29.6921 189.733 35.1961C178.337 46.5921 176.965 64.588 180.725 72.1C166.637 67.872 155.649 79.2961 149.605 89.4361C148.125 74.6521 130.849 72.3801 118.797 79.5801C118.797 72.8841 115.841 56.9121 97.3606 56.9121C108.633 45.6401 93.1007 33.14 93.1007 33.14L93.0967 33.1441Z" fill="#F39800"/>
<path d="M144.068 94.63C137.9 96.922 132.94 102.462 138.148 136.278C141.616 158.826 120.444 170.61 101.184 163.946C85.5284 160.666 70.3964 143.35 80.7924 118.882C90.9684 94.9299 116.684 84.37 144.068 94.63Z" fill="#D8A068"/>
<g style="mix-blend-mode:multiply" opacity="0.5">
<path d="M102.249 154.086C102.249 154.086 98.9446 158.658 97.4326 162.886C98.6686 163.326 99.9247 163.682 101.181 163.946C110.913 167.314 121.129 165.97 128.413 160.91C128.761 160.45 129.025 159.986 129.193 159.51C114.673 164.118 102.249 154.086 102.249 154.086Z" fill="#E0AE77"/>
</g>
<path d="M137.744 130.148C130.212 98.6439 138.272 97.076 143.736 95.044C129.36 88.032 110.64 91.152 93.1683 100.252C92.9283 100.692 92.7044 101.132 92.4924 101.568C84.1724 118.816 98.3124 131.908 113.92 119.396C109.596 135.628 131.584 148.22 137.744 130.148Z" fill="#FFE8C2"/>
<path d="M100.849 164.362C85.1927 161.082 69.8167 143.662 80.4567 119.298C92.7407 91.1698 121.677 83.0898 143.733 95.0458C128.861 96.5698 137.549 117.63 137.813 136.694C138.021 151.674 130.321 161.786 119.557 165.074" stroke="#3F220F" stroke-width="3.6" stroke-linecap="round" stroke-linejoin="round"/>
<path d="M37.6446 167.647C37.6446 167.647 66.8007 177.059 102.917 166.499C106.609 134.719 95.1566 118.547 95.1566 118.547L80.2566 104.859L40.2406 111.367C40.2406 111.367 32.8486 152.963 37.6446 167.647Z" fill="#FF6673"/>
<path d="M80.4043 125.605C82.1523 139.209 90.1282 148.733 103.148 144.457C107.712 139.893 104.36 133.565 104.36 133.565L81.0322 125.605" fill="#ED5668"/>
<path d="M77.76 140.387L66.5121 141.839C64.4881 142.099 63.0001 143.995 63.2041 146.067C63.4121 148.131 65.228 149.555 67.236 149.251L69.5001 148.907C68.3441 150.155 66.832 150.975 65.148 151.239C61.1 151.875 57.388 149.031 56.96 144.871C56.532 140.695 59.588 136.907 63.68 136.447C65.628 136.231 67.512 136.791 68.992 138.019C71.288 139.923 74.608 139.507 76.428 137.139C78.228 134.795 77.9081 131.371 75.7081 129.443C72.1041 126.291 67.448 124.731 62.556 125.111C51.976 125.935 43.8241 135.583 44.9961 146.479C46.1561 157.271 55.948 164.291 66.24 162.327C69.868 161.631 73.232 159.847 75.884 157.295C76.132 159.195 77.768 160.435 79.588 160.083C81.424 159.731 82.756 157.879 82.58 155.947L81.44 143.503C81.264 141.543 79.62 140.147 77.756 140.387H77.76Z" fill="#FFFF00"/>
<path d="M44.5762 115.045C59.3002 125.249 77.8762 118.657 88.0002 112.605C89.5802 108.657 87.3361 108.794 87.3361 108.794L44.5762 115.041V115.045Z" fill="#ED5668"/>
<path d="M42.0848 105.473C42.0848 132.489 32.8487 150.865 36.6247 166.625" stroke="#3F220F" stroke-width="3.6" stroke-linecap="round" stroke-linejoin="round"/>
<path d="M102.973 165.86C106.425 151.556 103.889 128.428 95.8447 115.336" stroke="#3F220F" stroke-width="3.6" stroke-linecap="round" stroke-linejoin="round"/>
<path d="M106.113 112.02C106.113 112.02 120.489 136.231 100.857 140.747C88.4689 128.359 97.0288 112.86 97.0288 112.86L106.113 112.02Z" fill="#D8A068"/>
<path d="M96.8445 103.395L95.5166 104.631L96.3245 120.003L96.9006 120.579C96.9006 120.579 102.185 114.219 108.657 116.447C105.421 105.499 96.8405 103.391 96.8405 103.391L96.8445 103.395Z" fill="#FF6673"/>
<path d="M39.744 62.7781C25.236 58.5021 25.4441 40.39 28.0801 28.25C34.0121 29.47 45.5361 29.29 51.1001 39.898C55.4121 48.114 46.688 64.8261 39.744 62.7781Z" fill="#D8A068"/>
<path d="M32.4799 34.6228C32.4799 34.6228 30.9999 52.8388 40.5799 54.6388C47.5639 49.3468 48.7599 42.1308 48.7599 42.1308C48.7599 42.1308 42.3359 33.7468 32.4799 34.6228Z" fill="#FFE8C2"/>
<path d="M27.7568 43.1701C27.7568 43.1701 29.3408 36.73 31.2768 32.734C37.2088 31.826 43.4208 32.414 45.3568 33.31C33.0928 29.046 28.0768 28.2461 28.0768 28.2461C28.0768 28.2461 26.8448 40.662 27.7528 43.166L27.7568 43.1701Z" fill="#3F220F"/>
<path d="M39.744 62.7781C25.236 58.5021 25.4441 40.39 28.0801 28.25C34.0121 29.47 47.096 30.822 52.664 41.442C56.98 49.666 46.684 64.8261 39.744 62.7781Z" stroke="#3F220F" stroke-width="3.6" stroke-linecap="round" stroke-linejoin="round"/>
<path d="M95.9165 55.0129C108.013 46.3529 101.496 29.3848 94.7845 18.8008C89.6445 21.8328 78.7564 25.3169 77.2404 37.0889C76.0644 46.2129 90.1165 59.1649 95.9165 55.0129Z" fill="#D8A068"/>
<path d="M92.8887 26.1875C92.8887 26.1875 100.641 42.8595 92.2847 47.6115C83.8767 44.8555 80.2207 38.4395 80.2207 38.4395C80.2207 38.4395 83.3247 28.4915 92.8847 26.1875H92.8887Z" fill="#FFE8C2"/>
<path d="M100.301 32.7369C100.301 32.7369 96.569 27.1809 93.353 24.0369C87.473 25.0649 81.841 27.5929 80.333 29.0529C90.361 21.1409 94.7851 18.8008 94.7851 18.8008C94.7851 18.8008 100.273 30.0969 100.301 32.7369Z" fill="#3F220F"/>
<path d="M100.353 50.3008C105.933 41.1008 100.433 27.6969 94.7889 18.7969C89.6489 21.8289 77.8329 27.2528 76.3129 39.0408C75.1329 48.1768 90.121 59.1649 95.921 55.0129C97.845 53.6369 99.3009 52.0449 100.357 50.3049" stroke="#3F220F" stroke-width="3.6" stroke-linecap="round" stroke-linejoin="round"/>
<path d="M73.5885 114.598C96.9525 110.47 106.772 95.7257 114.592 81.7297C96.2885 79.5297 109.188 28.5817 64.1125 33.0377C19.7565 38.9577 35.0605 86.9497 17.6045 92.8697C28.4685 104.966 36.4445 119.414 73.5885 114.598Z" fill="#D8A068"/>
<path d="M42.7402 81.1809C43.4722 84.3969 41.3443 87.6169 37.9883 88.3649C34.6283 89.1129 31.3243 87.1049 30.6043 83.8809C29.8883 80.6649 32.0202 77.4608 35.3642 76.7168C38.7082 75.9768 42.0082 77.969 42.7402 81.177V81.1809Z" fill="#FFA492"/>
<path d="M17.8926 93.21C23.5326 96.722 34.2726 93.4101 39.6046 90.1701C46.0966 85.7821 40.3446 81.17 53.2086 75.434C63.8326 73.474 67.6966 76.014 73.0726 82.982C78.1006 89.29 100.873 89.9221 114.901 82.0621C102.801 99.5941 96.3646 111.994 65.3806 115.214C33.6926 118.51 22.7966 102.314 17.8926 93.206V93.21Z" fill="#FFE8C2"/>
<g style="mix-blend-mode:multiply" opacity="0.3">
<path d="M56.7646 103.562C60.1446 110.53 67.0087 110.003 69.0167 107.995C71.0247 105.987 71.9726 100.39 67.7486 93.8424C64.3686 92.7864 56.7646 103.562 56.7646 103.562Z" fill="#DAAA75"/>
</g>
<g style="mix-blend-mode:multiply" opacity="0.5">
<path d="M44.6449 39.8291C43.9449 49.5771 53.4809 55.049 59.1489 49.465C64.6609 51.133 67.1049 45.6451 67.1049 45.6451C71.6129 48.2851 75.7609 34.7891 75.7609 34.7891C75.7609 34.7891 44.9169 35.9691 44.6409 39.8291H44.6449Z" fill="#DAAA75"/>
</g>
<path d="M66.76 115.705C96.324 110.437 106.652 96.1688 114.472 82.1648C95.564 75.1288 106.08 30.5528 64.1399 34.8408C19.6439 39.6248 34.744 75.9647 17.46 93.3087C24.884 106.977 39.864 118.421 66.756 115.701L66.76 115.705Z" stroke="#3F220F" stroke-width="3.6" stroke-linecap="round" stroke-linejoin="round"/>
<path d="M56.568 46.62C60.764 48.428 64.292 45.3479 63.968 42.6239C68.812 45.0039 74.016 39.7999 68.02 33.7479C61.884 27.5519 49.432 30.044 45.404 35.892C39.948 43.82 50.752 53.8039 56.568 46.6239V46.62Z" fill="#754C24" stroke="#3F220F" stroke-width="3.2" stroke-linecap="round" stroke-linejoin="round"/>
<path d="M52.3848 40.6328C52.3848 40.6328 53.0528 46.4328 57.7808 47.0168L52.3848 40.6328Z" fill="#C69C6D"/>
<path d="M52.3848 40.6328C52.3848 40.6328 53.0528 46.4328 57.7808 47.0168" stroke="#3F220F" stroke-width="3.2" stroke-linecap="round" stroke-linejoin="round"/>
<path d="M60.4883 38.332C60.4883 38.332 62.4642 43.524 66.7522 43.2L60.4883 38.332Z" fill="#C69C6D"/>
<path d="M60.4883 38.332C60.4883 38.332 62.4642 43.524 66.7522 43.2" stroke="#3F220F" stroke-width="3.2" stroke-linecap="round" stroke-linejoin="round"/>
<path d="M97.5045 53.5052C94.0205 53.3132 87.3564 39.7773 87.3564 39.7773C87.3564 39.7773 103.664 34.8412 104.924 37.8092C106.184 40.7812 102.316 53.7652 97.5045 53.5052Z" fill="#FCEE21" stroke="#3F220F" stroke-width="3.6" stroke-linecap="round" stroke-linejoin="round"/>
<path d="M69.6289 41.6849C72.1649 44.0449 86.5489 39.4288 86.5489 39.4288C86.5489 39.4288 78.8329 24.3768 75.8249 25.5408C72.8169 26.7008 66.1369 38.4289 69.6289 41.6849Z" fill="#FCEE21" stroke="#3F220F" stroke-width="3.6" stroke-linecap="round" stroke-linejoin="round"/>
<path d="M90.5529 43.1871C89.5729 45.4831 86.873 46.5311 84.517 45.5351C82.165 44.5391 81.0529 41.8712 82.0329 39.5832L83.6689 35.7711C84.6489 33.4911 87.3409 32.4471 89.6889 33.4351C92.0369 34.4231 93.1569 37.0791 92.1809 39.3631L90.5529 43.1832V43.1871Z" fill="#FCEE21" stroke="#3F220F" stroke-width="3.6" stroke-linecap="round" stroke-linejoin="round"/>
<path d="M78.0362 34.1094L81.7522 38.0135L77.1963 37.4494" stroke="#3F220F" stroke-width="2" stroke-linecap="round" stroke-linejoin="round"/>
<path d="M96.5721 41.7451L91.2881 41.457L94.8001 44.5051" stroke="#3F220F" stroke-width="2" stroke-linecap="round" stroke-linejoin="round"/>
<path d="M56.672 86.5602C54.972 84.8602 55.168 80.8242 55.168 80.8242" stroke="#3F220F" stroke-width="2.4" stroke-miterlimit="10" stroke-linecap="round"/>
<path d="M54.3009 75.1919C49.4009 76.1279 48.0609 78.4958 50.4609 79.8278C52.8609 81.1598 56.5009 81.2799 59.1649 78.1679C61.7849 75.1039 57.7809 74.5279 54.3009 75.1919Z" fill="#FFA492" stroke="#3F220F" stroke-width="2.4" stroke-miterlimit="10" stroke-linecap="round"/>
<path d="M90.297 75.2977C91.077 78.4977 89.005 81.7017 85.665 82.4497C82.325 83.1937 78.9969 81.1937 78.2249 77.9897C77.4569 74.7897 79.537 71.5977 82.861 70.8577C86.185 70.1177 89.513 72.1056 90.293 75.3016L90.297 75.2977Z" fill="#FFA492"/>
<path d="M49.1279 57.3637C49.5759 56.5557 50.276 55.9997 51.116 55.8837C51.96 55.7717 52.792 56.1278 53.452 56.7958" stroke="#3F220F" stroke-width="2.4" stroke-linecap="round" stroke-linejoin="round"/>
<path d="M61.9639 55.2346C62.4119 54.4226 63.1079 53.8708 63.9479 53.7548C64.7919 53.6428 65.6239 53.9987 66.2839 54.6667" stroke="#3F220F" stroke-width="2.4" stroke-linecap="round" stroke-linejoin="round"/>
<path d="M54.9887 68.6617C54.6727 70.8777 53.0767 72.6137 51.4887 72.4217C49.9487 72.2377 49.1167 70.3217 49.5567 68.2377C49.9767 66.2617 51.4207 64.7776 52.8367 64.8336C54.2967 64.8936 55.2847 66.5616 54.9887 68.6576V68.6617Z" fill="#3F220F"/>
<path d="M64.7127 67.2201C64.3967 69.4401 62.8007 71.172 61.2167 70.98C59.6767 70.796 58.8407 68.8801 59.2847 66.7961C59.7047 64.8201 61.1487 63.3362 62.5647 63.3922C64.0247 63.4522 65.0127 65.1201 64.7167 67.2201H64.7127Z" fill="#3F220F"/>
<path d="M57.2368 86.4002C62.7608 85.1962 74.0848 101.236 65.8448 106.304C57.6088 111.372 47.7808 88.4602 57.2368 86.4002Z" fill="#E83A47"/>
<path d="M68.0445 96.9925C68.0445 96.9925 67.5045 97.3925 67.1045 96.9925C65.7645 95.6525 63.3645 97.8684 62.4685 101.448C59.6165 98.5964 56.5965 102.172 58.1965 104.24C62.1045 108.148 70.8805 107.744 68.0485 96.9925H68.0445Z" fill="#FFA492"/>
<path d="M53.6523 88.5182C53.6523 88.5182 53.7963 93.2102 58.1523 93.2102C62.5083 93.2102 61.9204 89.0022 61.9204 89.0022C61.9204 89.0022 56.7603 84.0423 53.6563 88.5223L53.6523 88.5182Z" fill="white"/>
<path d="M57.2365 86.4015C62.7605 85.1975 74.4965 101.982 65.8445 106.306C55.7085 111.374 47.7805 88.4615 57.2365 86.4015Z" stroke="#3F220F" stroke-width="2.4" stroke-linecap="round" stroke-linejoin="round"/>
<path d="M96.2082 100.238L79.1042 101.854C79.1042 101.854 76.8882 142.106 95.0002 140.963C113.108 139.823 100.14 121.962 96.2082 100.234V100.238Z" fill="#D8A068"/>
<path d="M80.2606 104.86C80.2606 104.86 90.6206 105.664 95.3966 100.888C90.6606 89.8363 85.5407 85.6483 80.8207 87.7443C76.1007 89.8403 77.4886 102.088 80.2606 104.86Z" fill="#FFE8C2"/>
<path d="M100.832 119.884C100.832 119.884 94.4402 85.6204 82.8442 87.2644C74.7122 87.9884 77.7203 99.3124 79.1043 103.472C79.1043 121.268 81.4402 144.908 100.856 140.748C120.272 136.588 109.66 109.68 96.8442 103.388" stroke="#3F220F" stroke-width="3.6" stroke-linecap="round" stroke-linejoin="round"/>
<path d="M30.3683 99.3555L43.0642 103.036C43.0642 103.036 48.9883 139.468 30.6723 139.468C15.8083 137.74 26.8003 108.179 26.8003 108.179L30.3683 99.3516V99.3555Z" fill="#D8A068"/>
<path d="M29.5 101.193C29.5 101.193 36.08 107.429 43.108 106.021L43.064 103.041C43.064 103.041 48.528 91.6406 42.972 89.4166C37.42 87.1886 30.212 94.4847 29.5 101.197V101.193Z" fill="#FFE8C2"/>
<path d="M44.0126 91.7383C42.6006 91.7383 42.2966 95.0342 43.8566 95.0342C45.4166 95.0342 45.4246 91.7383 44.0126 91.7383Z" fill="#D8A068"/>
<path d="M41.0283 92.207C39.8803 92.207 39.6163 94.8752 40.8723 94.8752C42.1283 94.8752 42.1763 92.207 41.0283 92.207Z" fill="#D8A068"/>
<path d="M43.9279 97.388C43.9279 95.032 38.6279 95.0319 38.6279 99.1159C38.6279 101.904 41.708 100.26 41.708 100.26C41.708 100.26 41.3839 102.164 42.8479 100.7C44.3119 99.2359 43.9279 97.388 43.9279 97.388Z" fill="#D8A068"/>
<path d="M30.6726 140.083C46.4406 141.159 43.0646 113.239 43.0646 103.043C43.0646 103.043 49.1926 89.0586 41.0086 89.0586C35.8846 89.3786 32.3206 95.8426 29.0326 102.259C19.5686 120.747 21.2046 139.435 30.6726 140.083Z" stroke="#3F220F" stroke-width="3.6" stroke-linecap="round" stroke-linejoin="round"/>
<path d="M78.8564 90.0078C78.8564 90.0078 81.6805 91.2638 83.0925 95.4998" stroke="#3F220F" stroke-width="2.4" stroke-miterlimit="10" stroke-linecap="round"/>
<path d="M82.5205 87.2656C82.5205 87.2656 86.2685 89.4177 87.0205 94.4057" stroke="#3F220F" stroke-width="2.4" stroke-miterlimit="10" stroke-linecap="round"/>
<path d="M2 67.5352L17.164 76.107" stroke="#CCCCCC" stroke-width="2.408" stroke-linecap="round" stroke-linejoin="round"/>
<path d="M8.39648 119.662L16.5085 113.266" stroke="#CCCCCC" stroke-width="2.408" stroke-linecap="round" stroke-linejoin="round"/>
<path d="M137.677 56.6614C137.353 58.1774 137.025 59.4814 136.693 60.5774C136.365 61.6734 135.897 62.8172 135.297 64.0092C134.697 65.2012 134.013 66.1213 133.253 66.7733C132.489 67.4213 131.521 67.9013 130.345 68.2053C129.169 68.5093 127.833 68.5013 126.345 68.1813C124.569 67.8013 123.293 66.8413 122.509 65.3053C121.729 63.7693 121.401 61.9414 121.525 59.8294C121.573 58.7814 121.685 57.4654 121.865 55.8774C122.045 54.2894 122.277 52.3972 122.565 50.2012C122.673 49.3852 122.769 48.6572 122.853 48.0092C122.997 46.9132 123.729 45.3893 125.553 45.2733C126.793 45.1933 128.237 46.3934 127.917 48.1374C127.741 49.1054 127.813 49.0974 127.697 49.6294C126.665 55.2654 126.105 58.8014 126.013 60.2454C125.961 60.9934 126.093 61.6934 126.417 62.3454C126.737 62.9974 127.281 63.4054 128.045 63.5694C128.397 63.6454 128.725 63.6654 129.037 63.6294C129.349 63.5934 129.637 63.4933 129.893 63.3253C130.153 63.1573 130.373 62.9893 130.557 62.8253C130.741 62.6613 130.917 62.4134 131.081 62.0854C131.249 61.7534 131.389 61.4893 131.509 61.2813C131.625 61.0773 131.745 60.7613 131.861 60.3413C131.981 59.9213 132.065 59.6174 132.117 59.4294C132.169 59.2454 132.241 58.9372 132.333 58.5092L132.661 56.9733C133.093 54.9533 133.433 52.7933 133.673 50.4893C133.781 49.4493 134.321 46.9733 136.501 47.2413C138.717 47.5133 138.925 49.7814 138.733 50.9694C138.433 52.8534 138.077 54.7533 137.665 56.6653L137.677 56.6614Z" fill="white"/>
<path d="M157.077 58.3967C156.373 60.5807 154.881 62.3008 152.597 63.5608C150.313 64.8208 147.921 65.4687 145.417 65.5127C145.341 65.4927 145.289 65.5327 145.261 65.6327C145.089 66.4327 144.789 68.0086 144.509 69.2086C143.969 71.5366 142.521 71.6848 141.713 71.5688C140.905 71.4488 139.369 70.5407 140.081 68.6407C142.309 62.6767 142.697 57.7447 143.261 54.4727C143.285 54.3847 143.273 54.3327 143.225 54.3167C143.201 54.3087 143.173 54.3167 143.141 54.3167C141.357 54.3407 140.181 53.2527 140.289 52.1807C140.393 51.1087 140.949 49.4647 142.989 49.5127C143.933 49.5327 144.941 49.4887 146.017 49.5487C147.929 49.6687 149.545 49.9167 150.877 50.2967L151.105 50.3608C152.061 50.6608 152.913 51.0008 153.657 51.3848C154.405 51.7688 155.137 52.2767 155.849 52.9127C156.565 53.5487 157.037 54.3287 157.269 55.2567C157.477 56.1527 157.433 57.1367 157.125 58.2127L157.073 58.4006L157.077 58.3967ZM151.861 57.9608L151.905 57.8086C152.153 56.9326 152.121 56.2407 151.801 55.7247C151.465 55.1767 150.833 54.7447 149.913 54.4247C149.165 54.2127 148.477 54.1248 147.849 54.1688C147.701 54.2088 147.609 54.2846 147.577 54.4006C147.409 55.2726 147.261 56.0087 147.133 56.6127C147.001 57.2207 146.901 57.6888 146.833 58.0288C146.765 58.3648 146.717 58.5727 146.697 58.6487C146.653 58.8007 146.445 59.8767 146.065 61.8807C146.037 61.9807 146.053 62.0408 146.117 62.0608C146.141 62.0688 146.185 62.0647 146.241 62.0567C147.425 61.9407 148.573 61.5008 149.689 60.7368C150.805 59.9728 151.529 59.0487 151.861 57.9647V57.9608Z" fill="white"/>
<path d="M142.268 44.591C141.604 44.563 139.949 43.7309 139.821 41.9189C139.729 40.6549 139.744 39.3909 139.636 38.1429C139.652 38.0709 139.608 38.0268 139.512 38.0068C136.732 37.6388 135.024 37.4269 134.4 37.3709C134.344 37.3949 134.316 37.4228 134.308 37.4468C133.872 38.0068 133.3 39.2148 132.184 40.8068C131.396 41.9268 130.288 42.095 129.38 41.691C128.472 41.287 127.576 40.0429 128.64 38.6269C130.124 36.6469 132.008 34.1068 134.336 31.0468C136.44 28.2788 138.192 25.9468 139.596 24.0468C140.292 23.1068 141.992 23.6389 142.16 24.6709C142.644 27.7069 143.052 30.7629 143.396 33.8429C143.496 34.6309 143.692 36.2589 143.98 38.7269C144.116 39.8749 144.268 40.9028 144.348 41.8148C144.508 43.6588 143.184 44.6388 142.268 44.5988V44.591ZM139.636 34.9109C139.608 34.3149 139.552 33.5268 139.472 32.5468C139.392 31.5668 139.328 30.8549 139.28 30.4189C139.272 30.3309 139.24 30.279 139.18 30.267C139.12 30.255 139.068 30.287 139.028 30.367C138.844 30.655 138.432 31.2549 137.796 32.1629C137.156 33.0749 136.656 33.8109 136.288 34.3709C136.272 34.3949 136.26 34.4148 136.256 34.4388C136.256 34.4508 136.256 34.4709 136.264 34.4949C136.272 34.5229 136.288 34.5389 136.312 34.5429C136.324 34.5429 136.344 34.5428 136.372 34.5388C137.84 34.7628 138.884 34.9268 139.504 35.0308C139.588 35.0468 139.632 35.0309 139.644 34.9869C139.644 34.9629 139.644 34.9389 139.644 34.9109H139.636Z" fill="white"/>
<path d="M158.504 46.836C158.004 47.208 156.356 47.6 155.176 45.688C153.876 43.588 152.648 41.484 151.296 39.496C151.248 39.424 151.208 39.384 151.172 39.376C151.124 39.364 151.088 39.4239 151.056 39.5559C150.896 40.5399 150.784 41.1759 150.724 41.4639C150.588 42.0959 150.452 42.924 150.312 43.952C150.172 44.98 149.1 45.68 148.648 45.668C146.896 45.612 145.988 44.3079 146.416 42.3079C147.48 37.3599 147.884 35.1639 148.172 33.2479C148.516 30.9959 148.744 29.1919 148.972 27.8559C149.316 25.8239 150.888 25.54 151.7 25.684C152.436 25.808 153.856 26.736 153.392 28.896C153.132 30.108 152.756 31.4639 152.428 32.9999L152.06 34.712C152.044 34.796 152.1 34.8839 152.228 34.9719C152.284 35.0079 152.328 35.0319 152.364 35.0399C152.424 35.0519 152.468 35.04 152.5 35.012C154.44 33.224 155.964 31.6039 157.12 30.1799C158.848 28.0479 159.988 28.284 160.964 28.968C161.472 29.324 162.244 30.8679 160.7 32.4159C158.112 35.0199 156.22 36.672 155.328 37.668C155.312 37.74 155.316 37.788 155.332 37.82C155.964 38.928 156.672 40.1119 157.444 41.3719C157.712 41.8039 158.208 42.4879 158.864 43.4719C159.864 44.9719 159.272 46.26 158.5 46.836H158.504Z" fill="white"/>
<path d="M171.872 49.9773C171.444 50.8533 170.672 51.6492 168.952 51.0892C166.268 50.2132 164.616 49.8731 162.696 49.2011C161.94 48.9371 160.488 47.9332 160.856 46.2972C161.748 42.3252 162.272 38.3932 163.092 34.6292C163.268 33.8372 163.548 32.6612 163.924 31.0972C164.056 30.5572 164.724 29.2413 166.012 29.4773C166.392 29.5453 166.832 29.6013 167.328 29.6773C168.732 29.8933 169.82 30.0571 170.596 30.1651C170.892 30.2091 173.412 30.5531 174.308 30.7011C175.776 30.9451 176.132 32.5812 176.012 33.1132C175.912 33.5492 175.424 35.2012 173.636 34.8132C173.02 34.6812 172.612 34.6011 171.792 34.4171C170.148 34.0491 168.884 33.7891 168 33.6411C167.928 33.6251 167.884 33.6531 167.868 33.7251C167.764 34.0251 167.66 34.4051 167.556 34.8651C167.504 35.1011 167.452 35.3532 167.404 35.6132C167.324 36.0292 167.248 36.3971 167.176 36.7171C167.108 37.0251 167.04 37.2972 166.976 37.5292C166.96 37.6012 167 37.6452 167.092 37.6692C167.372 37.7572 167.748 37.8652 168.228 37.9972C168.708 38.1292 168.972 38.2012 169.02 38.2132C169.64 38.3532 170.456 38.4971 171.448 38.7011C172.94 39.0131 173.42 40.2052 173.108 41.0372C172.92 41.5372 172.288 42.9091 170.48 42.5011C170.02 42.3971 169.608 42.3252 169.256 42.2452C168.912 42.1692 168.62 42.0972 168.372 42.0292C168.148 41.9772 167.792 41.8932 167.312 41.7732C166.828 41.6532 166.46 41.5612 166.2 41.5052C166.128 41.4892 166.072 41.5132 166.032 41.5812L165.196 45.3212C165.188 45.3452 165.216 45.4012 165.268 45.4892C166.664 46.0052 168.052 46.2012 170.736 47.0052C172.496 47.5332 172.2 49.2933 171.868 49.9853L171.872 49.9773Z" fill="white"/>
<path d="M132.908 25.2397C132.04 27.2117 130.952 29.6277 129.644 32.4877C128.296 35.4277 127.024 37.8358 126.168 39.8678C125.416 41.6598 123.516 41.2878 123.176 40.0038C122.928 39.0638 122.636 37.9997 122.3 36.8157C121.508 34.0157 120.948 31.9317 120.628 30.5637C120.596 30.4597 120.552 30.4038 120.5 30.3918C120.448 30.3798 120.392 30.4157 120.332 30.4997C119.984 31.0957 119.08 32.7918 117.612 35.5838C117.092 36.5758 116.684 37.5078 116.192 38.2598C115.14 39.8838 113.44 38.7397 113.204 37.4157C112.244 32.0317 111.248 26.5917 110.568 22.8877C110.052 20.0637 110.4 17.9797 111.736 17.7077C113.992 17.2477 114.732 18.9918 114.916 20.6438C115 21.4158 115.156 22.0558 115.268 23.0758C115.628 26.2838 115.884 28.6997 116.04 30.3317C116.048 30.4157 116.092 30.4678 116.172 30.4838C116.24 30.4958 116.292 30.4677 116.336 30.3957C116.64 29.8717 117.784 28.2757 119.188 25.3077C119.46 24.7317 119.9 23.9717 120.164 23.5637C121.356 21.7157 123.116 22.6518 123.388 24.0518C123.552 24.8958 123.732 25.8238 123.932 26.8358C124.536 29.9158 124.876 31.6638 124.952 32.0758C124.976 32.1478 125.016 32.1918 125.068 32.2038H125.088C125.144 32.2038 125.192 32.1677 125.236 32.0957C126.644 28.6637 127.888 25.4878 128.968 22.5598C129.376 21.4478 130.56 19.5878 132.352 20.3678C134.228 21.1838 133.54 23.7998 132.912 25.2278L132.908 25.2397Z" fill="white"/>
</svg>
