<svg width="36" height="36" viewBox="0 0 36 36" fill="none" xmlns="http://www.w3.org/2000/svg">
<g clip-path="url(#clip0_13120_34025)">
<path d="M18.0009 0C16.3586 0 15.0269 1.33116 15.0269 2.97337C15.0269 4.61573 16.3586 5.94675 18.0009 5.94675C19.6432 5.94675 20.9736 4.61573 20.9736 2.97337C20.9736 1.33116 19.6432 0 18.0009 0Z" fill="#EDC88A"/>
<path d="M18.0009 30.0537C16.3586 30.0537 15.0269 31.3848 15.0269 33.0271C15.0269 34.6694 16.3586 36.0005 18.0009 36.0005C19.6432 36.0005 20.9736 34.6694 20.9736 33.0271C20.9736 31.3848 19.6432 30.0537 18.0009 30.0537Z" fill="#E8E8E8"/>
<path d="M5.27254 5.27254C4.11098 6.43347 4.11098 8.31609 5.27254 9.47765C6.4341 10.6392 8.31616 10.6392 9.47765 9.47765C10.6392 8.31672 10.6392 6.4341 9.47765 5.27254C8.31616 4.11098 6.4341 4.11098 5.27254 5.27254Z" fill="#F7E4C4"/>
<path d="M26.5226 26.5223C25.3623 27.6838 25.3623 29.5665 26.5226 30.728C27.6841 31.8896 29.5674 31.8896 30.7277 30.728C31.8893 29.5672 31.8893 27.6838 30.7277 26.5223C29.5662 25.3608 27.6841 25.3613 26.5226 26.5223Z" fill="#E8E8E8"/>
<path d="M5.94695 18.0001C5.94822 16.3584 4.6165 15.0273 2.97421 15.0273C1.33192 15.0267 0.000200121 16.3585 0.00146575 18.0007C0.000200121 19.6424 1.33065 20.9735 2.97421 20.9735C4.6165 20.9735 5.94695 19.6424 5.94695 18.0001Z" fill="#E8E8E8"/>
<path d="M33.0272 15.0264C31.3849 15.0264 30.0545 16.3582 30.0532 17.9997C30.0532 19.6421 31.3849 20.9731 33.0272 20.9737C34.6695 20.9737 36.0012 19.642 36 17.9997C36.0012 16.3581 34.6695 15.0264 33.0272 15.0264Z" fill="#E8E8E8"/>
<path d="M5.27346 26.523C4.11197 27.684 4.11197 29.5673 5.27346 30.7281C6.43383 31.8897 8.31589 31.8897 9.47738 30.7281C10.6389 29.5667 10.6389 27.684 9.47738 26.5224C8.31708 25.3609 6.43503 25.3609 5.27346 26.523Z" fill="#E8E8E8"/>
<path d="M30.7289 9.4777C31.8904 8.31614 31.8904 6.43289 30.7289 5.27133C29.5674 4.1104 27.6841 4.10976 26.5226 5.27133C25.361 6.43289 25.3622 8.31551 26.5226 9.47707C27.6841 10.6386 29.5674 10.6386 30.7289 9.4777Z" fill="#F39800"/>
</g>
<defs>
<clipPath id="clip0_13120_34025">
<rect width="36" height="36" fill="white"/>
</clipPath>
</defs>
</svg>
