<svg width="15" height="15" viewBox="0 0 15 15" fill="none" xmlns="http://www.w3.org/2000/svg">
<path d="M10 0C12.7614 0 15 2.23858 15 5V15H5C2.23858 15 8.05346e-08 12.7614 0 10V5C0 2.23858 2.23858 8.0532e-08 5 0H10ZM7.5 6.0293C6.94779 6.0293 6.50012 6.50322 6.5 7.08789V10.9707C6.50012 11.5554 6.94779 12.0293 7.5 12.0293C8.05221 12.0293 8.49988 11.5554 8.5 10.9707V7.08789C8.49988 6.50322 8.05221 6.0293 7.5 6.0293ZM7.5 3C6.94772 3 6.5 3.44772 6.5 4C6.5 4.55228 6.94772 5 7.5 5C8.05228 5 8.5 4.55228 8.5 4C8.5 3.44772 8.05228 3 7.5 3Z" fill="white"/>
</svg>
