<svg width="16" height="16" viewBox="0 0 16 16" fill="none" xmlns="http://www.w3.org/2000/svg">
<path fill-rule="evenodd" clip-rule="evenodd" d="M12 1.83301C11.7239 1.83301 11.5 1.60915 11.5 1.33301C11.5 1.05687 11.7239 0.833008 12 0.833008H14.6667C14.8689 0.833008 15.0512 0.954828 15.1286 1.14167C15.206 1.3285 15.1633 1.54356 15.0203 1.68656L13.2071 3.49967H14.6667C14.9428 3.49967 15.1667 3.72353 15.1667 3.99967C15.1667 4.27581 14.9428 4.49967 14.6667 4.49967H12C11.7978 4.49967 11.6155 4.37785 11.5381 4.19101C11.4607 4.00418 11.5035 3.78912 11.6465 3.64612L13.4596 1.83301H12ZM9.00001 5.83301C8.72388 5.83301 8.50001 5.60915 8.50001 5.33301C8.50001 5.05687 8.72388 4.83301 9.00001 4.83301H11C11.2023 4.83301 11.3845 4.95483 11.4619 5.14167C11.5393 5.3285 11.4966 5.54356 11.3536 5.68656L10.2071 6.83301H11C11.2761 6.83301 11.5 7.05687 11.5 7.33301C11.5 7.60914 11.2761 7.83301 11 7.83301H9.00001C8.79781 7.83301 8.61548 7.71121 8.53808 7.52434C8.46068 7.33754 8.50348 7.12247 8.64648 6.97947L9.79294 5.83301H9.00001Z" fill="#787878"/>
<path d="M8.00016 14.6663C11.682 14.6663 14.6668 11.6815 14.6668 7.99967C14.6668 7.69121 14.2045 7.64021 14.045 7.90421C13.2861 9.16007 11.9078 9.99967 10.3335 9.99967C7.94023 9.99967 6.00016 8.05961 6.00016 5.66634C6.00016 4.09197 6.83976 2.71371 8.09563 1.95485C8.35963 1.79532 8.30863 1.33301 8.00016 1.33301C4.31826 1.33301 1.3335 4.31777 1.3335 7.99967C1.3335 11.6815 4.31826 14.6663 8.00016 14.6663Z" fill="#787878"/>
</svg>
