<svg width="28" height="28" viewBox="0 0 28 28" fill="none" xmlns="http://www.w3.org/2000/svg">
<path d="M0 23.74V3.58C0.02 3.52 0.0400002 3.47 0.0500002 3.4C0.38 1.4 2.01 0 4.05 0C10.45 0 16.85 0 23.25 0C23.7 0 24.16 0.0699999 24.58 0.21C26.27 0.78 27.31 2.27 27.31 4.1V23.19C27.31 23.28 27.31 23.37 27.31 23.46C27.2 25.01 26.46 26.18 25.08 26.87C24.67 27.07 24.2 27.16 23.75 27.3H16.86V17.64H20.92C21.19 16.04 21.45 14.45 21.72 12.83H16.88V9.58H21.7V4.79H16.96C14.18 4.79 12.08 6.9 12.07 9.68V12.85H8.88V17.64H12.07V27.29H3.56C3.56 27.29 3.48 27.24 3.42 27.23C2.01 27 0.98 26.23 0.38 24.94C0.19 24.56 0.13 24.12 0 23.7V23.74Z" fill="white"/>
</svg>
