<svg width="36" height="36" viewBox="0 0 36 36" fill="none" xmlns="http://www.w3.org/2000/svg">
<path d="M29.7295 6.95117C29.2831 6.50487 28.5597 6.50478 28.1133 6.95117L6.875 28.1895C6.42889 28.6358 6.42876 29.3594 6.875 29.8057C7.32137 30.2519 8.0458 30.2519 8.49219 29.8057L29.7295 8.56738C30.1759 8.12099 30.1758 7.39761 29.7295 6.95117ZM25.2441 14.8047C26.3151 15.5252 27.182 16.3273 27.8438 17.0439C28.5573 17.8169 28.5575 18.9312 27.8438 19.7041C26.0951 21.5979 22.918 24.0898 18.3076 24.0898C17.5489 24.0898 16.8286 24.0225 16.1475 23.9014L14.2471 25.8018C15.4729 26.1596 16.8265 26.3759 18.3076 26.376C23.8075 26.376 27.5487 23.3935 29.5234 21.2549C31.0458 19.6061 31.0456 17.142 29.5234 15.4932C28.85 14.7638 27.9707 13.936 26.8867 13.1621L25.2441 14.8047ZM18.3076 10.3721C12.8076 10.3721 9.0665 13.3546 7.0918 15.4932C5.56981 17.142 5.56954 19.6062 7.0918 21.2549C7.75505 21.9732 8.6182 22.7871 9.67969 23.5508L11.3203 21.9092C10.2729 21.1977 9.4237 20.4093 8.77246 19.7041C8.05871 18.9311 8.0588 17.8169 8.77246 17.0439C10.5211 15.1502 13.6972 12.6582 18.3076 12.6582C19.0398 12.6582 19.7357 12.7207 20.3955 12.834L22.3027 10.9268C21.0942 10.5802 19.7625 10.3721 18.3076 10.3721ZM17.7178 22.3311C17.9121 22.36 18.1111 22.375 18.3135 22.375C20.5231 22.375 22.3142 20.5836 22.3145 18.374C22.3145 18.1714 22.2996 17.9718 22.2705 17.7773L17.7178 22.3311ZM18.3145 14.3721C16.1047 14.3721 14.3125 16.1643 14.3125 18.374C14.3125 18.5471 14.3243 18.7176 14.3457 18.8848L18.8252 14.4053C18.658 14.384 18.4875 14.3721 18.3145 14.3721Z" fill="#B3A093"/>
</svg>
