<svg width="168" height="155" viewBox="0 0 168 155" fill="none" xmlns="http://www.w3.org/2000/svg">
<path d="M55.2931 1.3656C23.6605 3.94389 8.79022 16.0888 10.2099 27.5471C12.651 47.199 40.5901 43.4487 56.1369 41.4665C71.687 39.4808 104.723 39.3369 119.124 41.0613C132.166 42.6217 161.736 44.0012 160.886 24.1048C159.931 1.80765 105.952 -2.75966 55.2898 1.3656H55.2931Z" fill="#F39800"/>
<path d="M61.7158 16.3377C61.2203 18.464 60.5907 21.0724 59.8206 24.1663C59.0303 27.3473 58.2133 29.9825 57.7412 32.169C57.326 34.0944 55.3671 34.0777 54.7878 32.8655C54.3625 31.9748 53.8738 30.9736 53.3179 29.8552C52.0054 27.2166 51.0577 25.2445 50.4818 23.942C50.4315 23.8449 50.378 23.798 50.3245 23.7947C50.2709 23.7947 50.2206 23.8415 50.1804 23.9319C49.946 24.5915 49.3601 26.4498 48.4225 29.507C48.091 30.5919 47.8566 31.5965 47.5117 32.4403C46.765 34.2551 44.8598 33.4315 44.3776 32.1591C42.4154 26.9757 40.403 21.742 39.0335 18.1826C37.9888 15.4671 37.9486 13.3274 39.2243 12.805C41.384 11.9244 42.4522 13.5216 42.9411 15.1355C43.1688 15.8889 43.4434 16.4984 43.7481 17.4928C44.7058 20.6203 45.4156 22.981 45.8777 24.5782C45.9011 24.6619 45.9548 24.702 46.0351 24.7054C46.1054 24.7054 46.1523 24.6685 46.1824 24.5881C46.3867 24.0089 47.2272 22.2074 48.071 18.9862C48.2351 18.3601 48.533 17.523 48.7171 17.0676C49.5609 15.0049 51.4897 15.6076 52.0221 16.9504C52.3435 17.7607 52.6984 18.6513 53.0835 19.6224C54.2621 22.5791 54.9285 24.2533 55.0791 24.6517C55.1193 24.7187 55.1629 24.7556 55.2165 24.7556H55.2366C55.2902 24.7422 55.3337 24.6987 55.3605 24.6184C56.1206 20.9351 56.7634 17.5365 57.2891 14.4191C57.49 13.2337 58.3204 11.1644 60.2491 11.603C62.2715 12.0651 62.0741 14.8007 61.7158 16.341V16.3377Z" fill="white"/>
<path d="M77.3851 31.2896C77.124 32.3075 76.4744 33.3122 74.5457 33.0845C71.5254 32.7329 69.7138 32.7294 67.5441 32.428C66.6902 32.3108 64.9424 31.5609 64.9793 29.7594C65.0697 25.3797 64.7816 21.1204 64.8452 16.9751C64.8619 16.1045 64.9055 14.802 64.9691 13.0742C64.9926 12.4782 65.4146 10.9479 66.8276 10.9211C67.2428 10.911 67.7183 10.8742 68.2574 10.8508C69.7843 10.7805 70.9661 10.7168 71.8066 10.67C72.128 10.6532 74.8571 10.4758 75.8348 10.4389C77.4354 10.382 78.1585 12.0295 78.1485 12.6189C78.1385 13.101 77.9744 14.946 76.0055 14.9193C75.3258 14.9092 74.8804 14.9192 73.9764 14.8957C72.1649 14.8589 70.7754 14.8555 69.8144 14.889C69.7374 14.889 69.6971 14.926 69.6937 15.003C69.6468 15.3412 69.6201 15.7629 69.61 16.2719C69.6033 16.5331 69.6067 16.8077 69.61 17.0923C69.6134 17.5477 69.6101 17.9529 69.6067 18.3045C69.6 18.6427 69.5867 18.9439 69.57 19.2017C69.57 19.2788 69.6202 19.3191 69.724 19.3224C70.0354 19.3559 70.4573 19.3894 70.993 19.4262C71.5254 19.4631 71.82 19.4831 71.8702 19.4831C72.5566 19.4965 73.4441 19.4764 74.5357 19.4831C76.1764 19.4932 76.9365 20.6483 76.7825 21.5926C76.6921 22.1585 76.3169 23.7423 74.3246 23.6987C73.8157 23.6887 73.367 23.6987 72.9753 23.692C72.5969 23.682 72.2721 23.6719 71.9976 23.6518C71.7498 23.6451 71.358 23.6318 70.8256 23.6083C70.2899 23.5849 69.8814 23.5681 69.5968 23.5614C69.5164 23.5614 69.4627 23.5984 69.4359 23.6754L69.3522 27.7973C69.3522 27.8241 69.3891 27.8776 69.4661 27.9546C71.0499 28.2024 72.5566 28.112 75.5535 28.3865C77.5223 28.5674 77.5895 30.4894 77.3819 31.2863L77.3851 31.2896Z" fill="white"/>
<path d="M147.303 33.8637C146.988 34.8415 146.302 35.7857 144.43 35.4543C141.503 34.9419 139.735 34.8348 137.636 34.4196C136.809 34.2556 135.148 33.425 135.285 31.6704C135.62 27.4012 135.58 23.2258 135.875 19.1876C135.942 18.3371 136.056 17.0713 136.216 15.3871C136.273 14.8078 136.772 13.3346 138.148 13.3881C138.554 13.4015 139.022 13.3949 139.548 13.4015C141.041 13.4183 142.2 13.4249 143.024 13.4249C143.338 13.4249 146.01 13.4081 146.968 13.4282C148.532 13.4617 149.148 15.1159 149.104 15.6851C149.067 16.1539 148.803 17.9486 146.881 17.808C146.218 17.7611 145.786 17.7411 144.902 17.6708C143.134 17.5335 141.781 17.4497 140.84 17.4296C140.763 17.4229 140.723 17.4564 140.717 17.5335C140.653 17.8616 140.603 18.2735 140.563 18.7657C140.542 19.0202 140.529 19.288 140.519 19.5659C140.499 20.0112 140.472 20.4064 140.445 20.748C140.419 21.0795 140.392 21.3707 140.358 21.6219C140.351 21.6989 140.398 21.739 140.502 21.7491C140.804 21.796 141.216 21.8563 141.735 21.9199C142.254 21.9869 142.538 22.0237 142.588 22.027C143.258 22.0806 144.125 22.1074 145.19 22.1743C146.791 22.2781 147.467 23.4468 147.266 24.3609C147.146 24.9101 146.69 26.4336 144.748 26.2796C144.253 26.2428 143.814 26.226 143.432 26.1959C143.06 26.1657 142.746 26.1355 142.481 26.102C142.24 26.0819 141.858 26.0485 141.339 25.9949C140.82 25.9414 140.418 25.9046 140.141 25.8811C140.064 25.8745 140.01 25.9079 139.977 25.9815L139.662 29.9996C139.662 30.0264 139.695 30.08 139.762 30.1604C141.292 30.4919 142.769 30.4885 145.679 30.9272C147.591 31.2151 147.547 33.0902 147.299 33.8603L147.303 33.8637Z" fill="white"/>
<path d="M39.1967 34.8324C38.43 35.0065 36.287 34.5679 35.5805 32.5421C35.0883 31.1291 34.7132 29.6859 34.2076 28.293C34.2009 28.2059 34.1406 28.169 34.0268 28.1723C30.742 28.6076 28.7328 28.8923 28.0029 29.0262C27.946 29.0698 27.9193 29.1099 27.9226 29.14C27.5978 29.9135 27.3198 31.4638 26.5363 33.6202C25.9838 35.1404 24.7717 35.6728 23.6131 35.4886C22.4546 35.3078 21.0483 34.1695 21.8251 32.2274C22.9067 29.5151 24.2695 26.0428 25.9806 21.8338C27.5242 18.03 28.8066 14.8322 29.8179 12.2372C30.3201 10.948 32.423 11.0352 32.9286 12.1569C34.4119 15.4652 35.8249 18.8235 37.1643 22.2288C37.5226 23.0927 38.2458 24.891 39.3374 27.6166C39.8463 28.8856 40.3386 30.004 40.7102 31.0219C41.4636 33.0711 40.2548 34.5947 39.1967 34.8358V34.8324ZM33.2165 24.6097C32.9988 23.94 32.6941 23.0593 32.3024 21.9677C31.9073 20.8761 31.6159 20.0859 31.4251 19.6037C31.3882 19.5066 31.3347 19.4563 31.2643 19.4597C31.1907 19.463 31.1438 19.5199 31.1237 19.6204C30.9998 20.0055 30.7186 20.8125 30.2732 22.0447C29.8245 23.2803 29.4796 24.2715 29.2352 25.0282C29.2218 25.0584 29.2185 25.0885 29.2185 25.1187C29.2185 25.1321 29.2286 25.1555 29.2453 25.1823C29.262 25.2124 29.2854 25.2223 29.3122 25.2223C29.3256 25.2223 29.349 25.2157 29.3758 25.1989C31.117 25.0014 32.3593 24.8675 33.096 24.7938C33.1965 24.7871 33.2433 24.757 33.2433 24.7001C33.2433 24.67 33.2332 24.6397 33.2165 24.613V24.6097Z" fill="white"/>
<path d="M94.5083 26.6272C94.4815 27.7991 94.1399 28.8204 93.4802 29.691C92.8206 30.5616 91.9702 31.2212 90.9289 31.6632C89.8875 32.1086 88.816 32.4232 87.721 32.6107C86.6228 32.8016 85.5278 32.882 84.4362 32.8586C84.1114 32.8519 83.7196 32.8284 83.2608 32.7883C82.6615 32.7347 80.552 32.4434 80.475 30.5482C80.4013 28.7936 82.0889 28.1004 82.7017 28.2545C83.4818 28.4487 84.3492 28.5591 85.3135 28.5792C86.154 28.5993 86.971 28.4654 87.7712 28.1842C88.5682 27.8995 88.9766 27.4073 88.9934 26.7008C89.0135 25.7398 88.3773 24.9462 87.0881 24.3201C86.0568 23.8982 85.2097 23.493 84.5467 23.1046C83.8837 22.7162 83.2241 22.234 82.5712 21.6614C81.9183 21.0889 81.4428 20.4125 81.1481 19.6323C80.8501 18.8521 80.716 17.9447 80.7361 16.9033C80.7595 15.8921 81.0811 14.9276 81.7006 14.0068C83.5623 11.1573 86.5323 9.77454 91.4746 9.88504C93.0484 9.92187 94.1298 11.1775 93.8787 12.7345C93.8418 12.9722 93.2292 14.8574 91.1331 14.911C90.6408 14.9243 90.1184 14.9311 89.5726 15.0048C89.0235 15.0818 88.4477 15.1989 87.845 15.3563C87.2423 15.517 86.7465 15.7748 86.3581 16.1331C85.9697 16.4914 85.7721 16.9301 85.7587 17.4491C85.7487 17.9145 85.9095 18.3665 86.2376 18.7984C86.5658 19.2337 86.9006 19.5519 87.2355 19.7595C87.5703 19.9671 87.9956 20.2182 88.508 20.5062C88.6118 20.5631 89.0369 20.7741 89.7836 21.1458C90.5269 21.5141 91.0158 21.7719 91.2469 21.9158C91.4746 22.0598 91.873 22.331 92.4389 22.7194C93.0015 23.1112 93.3899 23.4662 93.6042 23.7843C93.8151 24.1024 94.0227 24.5176 94.2269 25.0265C94.4278 25.5388 94.525 26.068 94.5116 26.6138L94.5083 26.6272Z" fill="white"/>
<path d="M113.412 21.998C113.388 23.026 113.227 24.1444 112.923 25.3432C112.621 26.5453 112.223 27.5364 111.727 28.3232C110.11 31.1091 107.709 32.4653 104.521 32.395C101.96 32.3381 99.9341 31.3368 98.4474 29.3914C96.9574 27.4459 96.244 25.072 96.3043 22.266C96.3445 20.354 96.7063 18.5558 97.3793 16.8648C98.0523 15.1772 99.0903 13.7709 100.487 12.6492C101.886 11.5275 103.483 10.9884 105.285 11.0252C107.013 11.0654 108.516 11.6314 109.799 12.723C111.081 13.8179 112.012 15.174 112.595 16.7913C113.177 18.4119 113.448 20.1464 113.408 21.9947L113.412 21.998ZM108.921 22.1756C108.938 21.4891 108.901 20.8127 108.817 20.1531C108.734 19.4901 108.586 18.8104 108.375 18.1105C108.165 17.4141 107.82 16.8482 107.337 16.4162C106.855 15.9809 106.293 15.7566 105.643 15.7433C104.063 15.7064 102.877 16.2889 102.084 17.4843C101.29 18.6797 100.875 20.21 100.835 22.0717C100.741 26.3109 101.99 28.4605 104.575 28.514C106.082 28.5475 107.173 27.9549 107.85 26.7394C108.526 25.524 108.884 24.0005 108.925 22.1756H108.921Z" fill="white"/>
<path d="M129.985 32.9881C129.359 33.0115 127.862 32.6229 127.963 30.336C128.07 27.8816 128.395 25.377 128.505 22.7853C128.512 22.6782 128.485 22.6179 128.435 22.6045H128.415C128.361 22.6045 128.315 22.6347 128.271 22.6983C127.417 23.8837 126.607 25.0421 125.84 26.1839C125.465 26.7398 124.012 27.1114 123.402 26.1638C122.729 25.1158 121.762 23.589 120.496 21.5833C120.459 21.5163 120.422 21.4828 120.382 21.4795C120.369 21.4795 120.355 21.4862 120.342 21.4996C120.288 21.523 120.258 21.5766 120.255 21.6536C120.004 24.7141 119.749 27.3392 119.625 29.5425C119.488 31.9366 117.844 32.623 116.953 32.6766C116.873 32.6766 114.382 32.3049 114.626 29.6061C114.941 26.1338 115.892 20.4615 117.03 12.5324C117.194 11.3805 118.962 10.9219 119.455 11.8227C120.302 13.3663 121.048 14.6687 121.688 15.7268C122.22 16.5874 123.295 18.4524 124.909 21.322C124.959 21.389 125.01 21.4259 125.063 21.4293C125.103 21.4293 125.144 21.399 125.187 21.3354C125.314 21.1278 126.081 19.8354 127.484 17.4547C127.96 16.6008 128.743 15.2312 129.841 13.3494C130.119 12.8739 130.374 12.4354 130.605 12.0336C131.291 10.8482 132.728 11.096 132.724 12.7033C132.721 14.3071 132.738 15.4456 132.718 17.4179C132.698 19.3867 132.684 20.7628 132.678 21.5463C132.611 23.9639 132.718 26.6996 132.661 29.7567C132.614 32.1843 131.234 32.9546 129.985 33.0015V32.9881Z" fill="white"/>
<path d="M101.711 38.1719C101.711 38.1719 101.909 38.5033 101.815 39.0624C101.148 43.094 104.062 49.7239 110.655 49.7741C106.777 47.6111 105.89 40.931 108.639 38.2288" fill="#F39800"/>
<path d="M166.482 105.54C162.759 106.889 159.745 110.198 162.715 130.583C164.694 144.174 151.893 151.162 140.331 147.057C130.922 145.005 121.898 134.511 128.277 119.831C134.518 105.463 150.048 99.2315 166.486 105.543L166.482 105.54Z" fill="#D8A068"/>
<g style="mix-blend-mode:multiply" opacity="0.5">
<path d="M141.018 141.125C141.018 141.125 139.008 143.861 138.074 146.399C138.818 146.67 139.571 146.891 140.328 147.055C146.168 149.131 152.325 148.371 156.735 145.361C156.946 145.086 157.11 144.808 157.211 144.524C148.448 147.226 141.018 141.125 141.018 141.125Z" fill="#E0AE77"/>
</g>
<path d="M162.499 126.89C158.12 107.891 162.978 106.984 166.28 105.789C157.661 101.499 146.377 103.284 135.812 108.675C135.665 108.94 135.528 109.204 135.4 109.465C130.308 119.808 138.756 127.758 148.211 120.301C145.529 130.051 158.702 137.739 162.499 126.887V126.89Z" fill="#FFE8C2"/>
<path d="M140.125 147.303C130.716 145.251 121.548 134.69 128.071 120.077C135.601 103.208 153.06 98.4832 166.28 105.789C157.323 106.637 162.446 119.354 162.513 130.832C162.563 139.85 157.878 145.897 151.382 147.826" stroke="#3F220F" stroke-width="2.67874" stroke-linecap="round" stroke-linejoin="round"/>
<path d="M10.9176 107.724C15.8732 106.103 20.9527 106.163 25.5434 107.794C32.0192 110.178 37.5107 115.87 40.6147 124.717C45.1284 139.494 41.1069 147.878 35.0295 151.156L14.1823 148.22C12.9902 147.252 11.9454 146.056 11.1183 144.596C9.83923 141.948 9.29006 139.487 9.16617 137.23C9.13603 136.456 9.15625 135.706 9.21653 134.996C9.5949 130.63 11.2857 126.766 11.5302 124.265C11.5302 124.251 11.5303 124.238 11.5336 124.228C11.537 124.181 11.5402 124.134 11.5436 124.091C11.5436 124.047 11.5503 124.007 11.5503 123.964C11.5503 123.937 11.5503 123.907 11.5503 123.88C11.5503 123.806 11.5537 123.736 11.5537 123.665C9.60494 124.904 7.45849 125.423 5.58672 124.566C4.79649 124.181 4.05988 123.585 3.45046 122.761C0.369908 118.124 3.60793 110.114 10.9109 107.727L10.9176 107.724Z" fill="#D8A068"/>
<g style="mix-blend-mode:multiply" opacity="0.5">
<path d="M13.6531 147.955L23.9227 149.153C24.2743 147.546 22.7876 144.512 23.1827 142.426C14.1788 148.216 9.48438 141.586 9.48438 141.586C10.2311 144.312 11.8617 146.398 13.6498 147.951L13.6531 147.955Z" fill="#E0AE77"/>
</g>
<path d="M10.2523 128.087C9.3616 131.509 15.4458 134.275 17.6759 130.538C19.6381 127.253 23.8403 125.117 25.8393 129.356C27.835 133.595 33.534 132.775 34.0932 129.024C34.6557 125.274 39.156 123.144 40.9708 126.64C39.012 117.827 31.6655 106.148 17.5351 106.278C3.40474 106.409 2.80551 114.636 2.10569 117.298C1.40252 119.96 4.17153 127.159 11.5079 123.181C10.7043 126.557 10.2523 128.087 10.2523 128.087Z" fill="#FFE8C2"/>
<path d="M34.6339 149.489C40.7113 146.211 45.4661 139.032 40.3463 124.452C35.0592 109.388 22.8575 103.465 10.6491 107.459C3.34621 109.847 0.108189 117.856 3.18874 122.494C5.39201 125.464 9.25281 125.477 11.292 123.398C11.3154 125.856 9.35996 129.997 8.94811 134.732C8.69362 137.689 9.1623 141.352 10.8499 144.332C11.677 145.792 12.7218 146.987 13.9139 147.955" stroke="#3F220F" stroke-width="2.67874" stroke-miterlimit="10" stroke-linecap="round"/>
<path d="M9.84766 119.316C11.7596 119.979 12.0109 121.938 10.9661 125.792" stroke="#3F220F" stroke-width="2.67874" stroke-miterlimit="10" stroke-linecap="round"/>
<path d="M73.0966 107.293L70.7227 109.931L80.1283 135.483C80.1283 135.483 84.7158 131.281 83.1588 124.139C80.4901 111.9 78.8862 110.728 73.0934 107.293H73.0966Z" fill="#D9A170"/>
<path d="M72.6842 120.755C72.6842 120.755 78.8519 117.286 82.5285 117.182C79.1801 109.675 76.488 108.098 72.3895 107.699C71.9944 109.424 68.6828 110.271 68.6024 113.696C68.5321 116.609 72.6876 120.755 72.6876 120.755H72.6842Z" fill="#00913A"/>
<path d="M25.4741 106.516C25.4741 106.516 19.3867 111.193 15.5795 120.291C11.7724 129.389 15.1007 137.639 22.5007 138.781C27.6573 122.156 28.3001 117.485 28.3001 117.485L31.729 108.471L25.4942 107.359" fill="#D9A170"/>
<path d="M17.0781 117.996C17.0781 117.996 23.9056 117.621 29.2698 121.569C32.3236 116.241 31.8045 107.405 31.8045 107.405C31.8045 107.405 20.0515 106.474 17.0781 117.996Z" fill="#00913A"/>
<path d="M67.8301 116.818C64.9605 110.004 64.9671 99.5938 64.9671 99.5938L29.149 103.742C29.149 103.742 33.5722 120.347 26.5071 124.325C25.0003 133.175 23.8048 145.072 23.922 149.157C33.5789 154.294 63.236 157.09 73.0636 149.502C75.7758 137.94 69.9262 121.801 67.8301 116.818Z" fill="#00913A"/>
<path d="M62.4092 117.438C63.2062 123.364 59.7406 131.605 64.1036 137.518C68.4699 143.431 72.6587 140.746 72.6587 140.746L72.9802 135.157L62.4058 117.438H62.4092Z" fill="#00762D"/>
<path d="M23.7695 140.205C29.0333 143.537 41.476 143.108 44.2953 132.146C46.1202 125.7 45.3702 122.867 45.3702 122.867L23.7728 140.202L23.7695 140.205Z" fill="#00762D"/>
<path d="M23.8085 148.401C23.5875 140.489 25.3018 133.5 26.3365 126.047" stroke="#3F220F" stroke-width="2.67874" stroke-linecap="round" stroke-linejoin="round"/>
<path d="M61.327 131.935L53.1502 132.267C51.6468 132.327 50.4447 133.579 50.4916 135.072C50.5351 136.576 51.8343 137.715 53.3579 137.601L55.0622 137.473C54.148 138.321 52.9761 138.84 51.6936 138.947C48.5729 139.205 45.9008 136.901 45.8473 133.85C45.7937 130.854 48.3051 128.413 51.3354 128.366C52.7618 128.342 54.1045 128.848 55.1258 129.779C56.7129 131.228 59.1104 131.145 60.4666 129.645C61.7858 128.188 61.635 125.905 60.1517 124.498C57.7374 122.211 54.5464 120.875 51.0741 120.761C43.3928 120.514 36.5152 126.437 36.4382 134.306C36.3578 142.553 43.6975 148.547 51.9815 147.415C54.821 147.027 57.4562 145.791 59.5356 143.976C59.6695 145.423 60.8616 146.437 62.2278 146.25C63.6006 146.062 64.6118 144.729 64.5113 143.28L63.8819 134.302C63.7848 132.94 62.653 131.885 61.327 131.938V131.935Z" fill="#FFF000"/>
<path d="M62.0039 132.011C62.255 133.963 62.8644 135.838 64.1066 137.519L63.8823 134.301C63.8053 133.176 63.0185 132.266 62.0039 132.008V132.011Z" fill="#F2D82A"/>
<path d="M44.2936 132.146C46.1185 125.7 45.3685 122.867 45.3685 122.867L37.5366 129.152C36.8502 130.726 36.455 132.46 36.4382 134.302C36.4148 136.539 36.9438 138.611 37.8847 140.42C40.7911 138.92 43.2288 136.284 44.2936 132.142V132.146Z" fill="#F2D82A"/>
<path d="M67.6094 116.648C70.5727 126.463 72.9434 139.103 72.5349 149.5" stroke="#3F220F" stroke-width="2.67874" stroke-linecap="round" stroke-linejoin="round"/>
<path d="M70.0524 109.53C69.6807 114.466 61.9056 118.497 50.3033 117.6C38.7044 116.702 32.6906 111.844 33.0589 106.908C33.4306 101.973 38.1184 98.0651 49.7174 98.9658C61.3163 99.8632 70.4206 104.594 70.0489 109.533L70.0524 109.53Z" fill="#00762D"/>
<path d="M45.7945 60.5639C48.6809 56.6664 47.5256 48.8679 45.453 48.6201C42.5298 48.2719 33.355 54.1651 34.9355 62.2315C41.9772 66.0721 43.839 63.2059 45.7945 60.5639Z" fill="#D8A068" stroke="#3F220F" stroke-width="2.67874" stroke-linecap="round" stroke-linejoin="round"/>
<path d="M39.9102 59.5268C39.9102 59.5268 41.966 53.5364 44.3635 51.3867C45.4718 52.9973 44.8257 56.3893 43.3892 59.068C40.2651 59.145 39.9102 59.5268 39.9102 59.5268Z" fill="#FFE8C2"/>
<path d="M58.5842 62.4754C57.2984 57.7842 60.5096 50.9736 62.5253 51.506C65.3748 52.256 71.8038 61.1159 67.4307 68.0472C59.4849 69.0383 59.4549 65.653 58.5809 62.4754H58.5842Z" fill="#D8A068" stroke="#3F220F" stroke-width="2.67874" stroke-linecap="round" stroke-linejoin="round"/>
<path d="M66.0568 63.582C66.0568 63.582 65.2598 57.0928 62.5509 54.4844C61.4024 56.5905 61.1949 59.8351 61.6134 62.0149C64.4964 63.2337 66.0568 63.582 66.0568 63.582Z" fill="#FFE8C2"/>
<path d="M50.2029 57.5839C69.4798 59.747 71.586 71.5335 71.9175 82.0242C72.249 92.5148 78.1757 94.2326 75.8117 104.157C73.1865 115.184 57.3084 115.947 44.5677 113.667C25.6725 110.285 18.768 99.225 21.6175 85.8816C24.3164 73.2479 31.559 55.4946 50.2064 57.5873L50.2029 57.5839Z" fill="#D8A068"/>
<path d="M54.7379 71.9129C54.2658 71.5513 53.7166 71.404 53.2043 71.5547C52.6887 71.7054 52.3103 72.1271 52.1094 72.6897" stroke="#3F220F" stroke-width="1.67421" stroke-linecap="round" stroke-linejoin="round"/>
<path d="M61.7344 73.9761C61.7109 73.3801 61.4766 72.8643 61.0346 72.563C60.5893 72.2616 60.0235 72.2381 59.4609 72.4391" stroke="#3F220F" stroke-width="1.67421" stroke-linecap="round" stroke-linejoin="round"/>
<path d="M72.4013 84.9545C70.2248 84.5962 68.0953 85.8719 67.4926 87.9982C66.843 90.2986 68.2226 92.7195 70.5765 93.4026C72.2306 93.8848 73.9249 93.3757 75.0132 92.2339C74.0823 90.0943 73.0542 87.8576 72.4013 84.9545Z" fill="#FFA492"/>
<g style="mix-blend-mode:multiply" opacity="0.5">
<path d="M19.1406 94.3984C21.8294 99.5282 29.6882 106.975 47.532 109.135C65.9517 111.365 74.8853 106.416 75.5616 100.67C77.1053 109.496 67.5522 117.992 47.5588 113.963C27.5653 109.932 20.5201 105.365 19.1439 94.3984H19.1406Z" fill="#DAAA75"/>
</g>
<g style="mix-blend-mode:multiply" opacity="0.5">
<path d="M44.4406 95.25C44.4406 95.25 43.8345 104.11 53.8798 105.131C63.9251 106.152 64.9766 97.2154 64.9766 97.2154L44.4406 95.2533V95.25Z" fill="#DAAA75"/>
</g>
<g style="mix-blend-mode:multiply" opacity="0.5">
<path d="M56.4192 59.2814C62.1684 60.4701 64.5123 62.4122 64.8772 65.2885C65.2456 68.1648 63.9799 70.6492 61.0131 70.3211C58.0431 69.9963 57.5074 67.2339 57.5074 67.2339C57.1391 70.5689 52.4311 71.4528 51.1018 65.948C49.3874 70.1001 42.6605 69.3802 44.539 59.5559C49.575 57.9286 56.4192 59.2814 56.4192 59.2814Z" fill="#DAAA75"/>
</g>
<path d="M56.7175 57.6309C62.4668 58.8196 64.8108 60.7616 65.1758 63.6379C65.5441 66.5176 64.2784 68.9988 61.3084 68.674C58.3383 68.3458 57.8025 65.5867 57.8025 65.5867C57.4342 68.9184 52.7263 69.8024 51.397 64.3009C49.6826 68.453 42.7145 66.0119 44.4021 57.2859C49.4415 55.6619 56.7143 57.6341 56.7143 57.6341L56.7175 57.6309Z" fill="#3F220F"/>
<path d="M50.2008 57.5854C69.4777 59.7485 71.5839 71.535 71.9154 82.0256C72.2469 92.5163 78.1736 94.234 75.8096 104.159C73.1844 115.185 57.3063 115.949 44.5655 113.668C25.6704 110.286 18.1029 99.0993 21.6154 85.883C24.6323 74.5352 31.5568 55.496 50.2042 57.5888L50.2008 57.5854Z" stroke="#3F220F" stroke-width="2.67874" stroke-linecap="round" stroke-linejoin="round"/>
<path d="M44.9714 88.8632C43.7827 93.0521 46.294 97.3079 52.1738 99.0156C58.0536 100.723 63.5015 99.4576 64.6902 95.2687C65.8755 91.0798 66.5152 85.6487 58.0169 83.7568C52.0399 82.4275 46.1567 84.6743 44.9714 88.8632Z" fill="#FFE8C2"/>
<path d="M56.8516 90.7017L57.2935 87.7617" stroke="#3F220F" stroke-width="1.67421" stroke-miterlimit="10" stroke-linecap="round"/>
<path d="M64.8477 88.8906C64.9314 90.893 65.7986 92.7379 67.1714 94.0204" stroke="#3F220F" stroke-width="1.67421" stroke-miterlimit="10" stroke-linecap="round"/>
<path d="M45.9038 85.5703C45.1002 87.9678 43.1581 89.7157 40.8477 90.2146" stroke="#3F220F" stroke-width="1.67421" stroke-miterlimit="10" stroke-linecap="round"/>
<path d="M65.5551 91.8244L44.2759 88.8945C44.2759 88.8945 42.7122 101.25 53.3602 102.841C64.7314 104.538 65.5551 91.8277 65.5551 91.8277V91.8244Z" fill="#E83A47"/>
<path d="M60.9985 91.254C60.9985 91.254 60.2686 96.1024 55.7783 95.2352C51.2881 94.3713 52.2658 89.5664 52.2658 89.5664" fill="white"/>
<path d="M61.0283 102.342C61.3597 98.1193 55.3493 98.8794 54.3381 99.5658C52.838 97.3023 47.8723 95.1158 46.168 98.3638C48.4482 103.808 58.2156 103.949 61.0283 102.342Z" fill="#FFA492"/>
<path d="M64.9805 91.7062L44.9703 88.8633C44.9703 88.8633 42.8608 101.286 53.3548 102.84C65.6235 104.658 64.9805 91.7062 64.9805 91.7062Z" stroke="#3F220F" stroke-width="1.67421" stroke-linecap="round" stroke-linejoin="round"/>
<path d="M57.3322 83.5089C60.8213 83.8638 61.4507 85.4309 59.8669 86.5291C58.2831 87.6308 56.2138 87.9857 54.1411 85.9365C52.0985 83.9174 54.8577 83.2544 57.3322 83.5089Z" fill="#FFA492" stroke="#3F220F" stroke-width="1.67421" stroke-miterlimit="10" stroke-linecap="round"/>
<path d="M52.1336 78.2305C51.6515 79.456 51.9897 80.9427 52.8905 81.5521C53.7912 82.1615 54.9129 81.666 55.3951 80.4405C55.8773 79.215 55.539 77.7282 54.6383 77.1154C53.7375 76.506 52.6158 77.0049 52.1336 78.2271V78.2305Z" fill="#3F220F"/>
<path d="M62.0464 79.4257C62.4281 80.7584 62.0563 82.1447 61.1724 82.4661C60.2582 82.7976 59.2269 81.8466 58.9122 80.4101C58.6175 79.054 59.0897 77.8186 59.9335 77.5875C60.7539 77.3665 61.6813 78.1634 62.043 79.4257H62.0464Z" fill="#3F220F"/>
<path d="M33.3131 82.4544C32.6334 84.8485 34.0698 87.3699 36.5242 88.0798C38.9753 88.7897 41.5135 87.4234 42.1932 85.0293C42.8729 82.6318 41.4363 80.1138 38.9819 79.404C36.5309 78.6908 33.9929 80.0569 33.3131 82.4544Z" fill="#FFA492"/>
<g style="mix-blend-mode:multiply" opacity="0.5">
<path d="M70.2675 87.4727L68.5195 89.321" stroke="#FFA492" stroke-width="1.00453" stroke-linecap="round" stroke-linejoin="round"/>
</g>
<g style="mix-blend-mode:multiply" opacity="0.5">
<path d="M73.6308 89.6758L71.8828 91.524" stroke="#FFA492" stroke-width="1.00453" stroke-linecap="round" stroke-linejoin="round"/>
</g>
<g style="mix-blend-mode:multiply" opacity="0.5">
<path d="M72.8099 87.3477L69.5586 90.7898" stroke="#FFA492" stroke-width="1.00453" stroke-linecap="round" stroke-linejoin="round"/>
</g>
<g style="mix-blend-mode:multiply" opacity="0.5">
<path d="M36.623 82.0195L34.875 83.8679" stroke="#FFA492" stroke-width="1.00453" stroke-linecap="round" stroke-linejoin="round"/>
</g>
<g style="mix-blend-mode:multiply" opacity="0.5">
<path d="M40.5056 83.1602L38.7578 85.0085" stroke="#FFA492" stroke-width="1.00453" stroke-linecap="round" stroke-linejoin="round"/>
</g>
<g style="mix-blend-mode:multiply" opacity="0.5">
<path d="M39.1654 81.8984L35.9141 85.3407" stroke="#FFA492" stroke-width="1.00453" stroke-linecap="round" stroke-linejoin="round"/>
</g>
<path d="M32.0986 115.926C32.0986 115.926 23.1516 127.384 20.0911 129.386C18.5408 133.12 19.8902 137.47 22.4852 139.043C32.6946 142.563 44.759 133.271 45.576 121.035C41.1694 116.87 32.0986 115.926 32.0986 115.926Z" fill="#D9A170"/>
<path d="M33.6836 116.458C33.6836 116.458 36.3624 123.724 44.988 122.592C45.373 120.938 46.4578 121.253 46.4578 121.253C46.4578 121.253 51.3532 113.88 46.5013 110.987C41.6494 108.094 36.1346 113.87 33.6836 116.458Z" fill="#FFE8C2"/>
<path d="M26.9804 106.402C14.8624 112.115 9.14663 134.275 21.3717 138.812C32.8334 143.068 42.2324 134.881 44.9881 122.592C50.7474 116.97 48.8255 111.803 45.2795 110.38C42.1788 109.138 37.2567 110.698 33.3993 115.651C29.8533 118.681 25.6778 122.267 23.153 127.383" stroke="#3F220F" stroke-width="2.67874" stroke-linecap="round" stroke-linejoin="round"/>
<path d="M73.0495 138.632C78.9696 137.638 80.463 135.019 80.463 135.019L75.6011 120.778C75.6011 120.778 70.5751 104.492 64.3973 105.332C58.2194 106.169 60.6002 114.075 62.4083 117.437C63.4999 125.219 64.5445 140.065 73.0495 138.636V138.632Z" fill="#D9A170"/>
<path d="M63.3989 118.018C63.3989 118.018 69.1514 118.721 72.4563 113.863C69.8546 107.538 66.6 104.33 63.2616 105.622C59.9232 106.915 59.4746 113.428 63.3989 118.015V118.018Z" fill="#FFE8C2"/>
<path d="M73.9079 108.285C84.2143 109.839 90.2783 139.751 72.1633 138.605C62.3658 137.983 64.9743 122.888 62.2922 117.172C58.2004 110.19 62.0879 103.333 66.9465 105.797C72.0294 108.376 77.3534 118.839 77.5275 127.385" stroke="#3F220F" stroke-width="2.67874" stroke-linecap="round" stroke-linejoin="round"/>
<path d="M61.5156 108.59C61.5156 108.59 64.3015 110.11 64.8909 112.394" stroke="#3F220F" stroke-width="1.67421" stroke-miterlimit="10" stroke-linecap="round"/>
<path d="M63.4141 106.523C63.4141 106.523 66.3205 107.381 67.8038 110.237" stroke="#3F220F" stroke-width="1.67421" stroke-miterlimit="10" stroke-linecap="round"/>
<path d="M43.7812 116.217C43.7812 116.217 44.7992 113.843 47.3942 113.77" stroke="#3F220F" stroke-width="1.67421" stroke-miterlimit="10" stroke-linecap="round"/>
<path d="M40.625 114.094C40.625 114.094 42.6306 111.117 46.4143 111.344" stroke="#3F220F" stroke-width="1.67421" stroke-miterlimit="10" stroke-linecap="round"/>
<path d="M136.212 104.504C136.212 104.504 151.364 109.587 153.229 125.582C155.094 141.578 145.799 145.418 139.119 147.086C133.771 140.034 133.453 136.163 133.453 136.163C133.453 136.163 141.526 133.431 140.063 126.61C138.6 119.789 134.813 106.326 134.813 106.326L136.212 104.504Z" fill="#D8A068"/>
<path d="M147.258 113.041C147.258 113.041 139.289 116.008 138.917 120.636C136.359 117.699 136.021 115.057 136.021 115.057L134.762 107.419L138.381 104.941C138.381 104.941 144.342 109.83 147.258 113.041Z" fill="#E63160"/>
<path d="M97.8745 150.706C102.596 153.727 130.662 155.364 143.661 149.327C143.246 134.617 134.808 109.829 136.345 101.95C108.794 102.724 105.291 101.421 102.284 101.508C102.626 113.663 94.4458 132.083 97.8713 150.706H97.8745Z" fill="#E63160"/>
<path d="M126.277 146.586C128.106 151.813 139.386 151.572 143.793 149.329C143.472 143.111 143.15 140.961 143.15 140.961L126.512 146.352" fill="#D32B58"/>
<path d="M97.918 130.727C101.37 134.695 111.486 137.313 112.001 128.507C105.137 124.502 98.5141 128.148 98.5141 128.148L97.918 130.727Z" fill="#D32B58"/>
<path d="M95.5352 106.68C95.5352 106.68 101.097 113.273 100.655 120.476C100.558 113.032 104.72 106.335 104.72 106.335C104.72 106.335 98.5755 105.94 95.5352 106.684V106.68Z" fill="#E63160"/>
<path d="M136.361 101.755C136.552 108.522 128.472 114.241 118.32 114.529C108.164 114.813 99.7762 109.56 99.5853 102.789C99.3945 96.022 107.474 90.3029 117.63 90.0149C127.786 89.7303 136.174 94.984 136.361 101.755Z" fill="#D32B58"/>
<path d="M127.19 129.899L119.04 129.842C117.59 129.832 116.348 130.98 116.274 132.417C116.197 133.863 117.335 135.035 118.805 135.022L120.463 135.008C119.505 135.768 118.336 136.194 117.101 136.21C114.148 136.247 111.854 133.9 112.035 131.014C112.212 128.167 114.73 125.924 117.607 125.978C118.979 126.004 120.242 126.543 121.163 127.498C122.606 128.988 125.007 129.011 126.513 127.571C127.993 126.158 128.05 123.851 126.654 122.398C124.411 120.061 121.347 118.691 117.975 118.551C110.789 118.253 104.23 123.724 103.627 130.987C103.001 138.517 109.005 144.608 116.699 144.324C119.438 144.22 122.104 143.279 124.317 141.695C124.324 143.121 125.429 144.226 126.821 144.176C128.238 144.123 129.396 142.897 129.426 141.444L129.601 132.41C129.627 131.03 128.553 129.912 127.186 129.902L127.19 129.899Z" fill="#FFF000"/>
<path d="M111.998 128.507C109.447 127.017 106.932 126.588 104.776 126.632C104.159 127.978 103.761 129.438 103.63 130.982C103.54 132.053 103.59 133.091 103.754 134.089C107.605 135.05 111.677 134.005 111.998 128.504V128.507Z" fill="#F2D82A"/>
<path d="M94.0387 107.691C86.4913 109.161 78.9707 110.719 77.4237 117.549C75.8768 124.38 87.2347 130.2 96.5433 128.663C105.641 127.133 105.474 121.186 105.474 121.186C105.474 121.186 101.72 116.19 95.1369 116.374L94.0421 107.691H94.0387Z" fill="#D8A068"/>
<path d="M88.2109 108.92C88.2109 108.92 92.5873 111.669 94.3988 117.307C94.814 116.323 99.974 118.423 100.145 117.043C101.046 109.693 95.8286 107.641 95.8286 107.641C95.8286 107.641 89.4499 107.607 88.2144 108.916L88.2109 108.92Z" fill="#E63160"/>
<path d="M97.5093 128.258C96.4244 134.58 96.5182 142.76 97.3821 149.845" stroke="#3F220F" stroke-width="2.67874" stroke-linecap="round" stroke-linejoin="round"/>
<path d="M100.461 114.191C100.109 115.434 99.6005 117.131 99.4531 117.778" stroke="#3F220F" stroke-width="2.67874" stroke-linecap="round" stroke-linejoin="round"/>
<path d="M144.134 148.318C144.737 136.438 137.527 123.493 138.482 112.828" stroke="#3F220F" stroke-width="2.67874" stroke-linecap="round" stroke-linejoin="round"/>
<path d="M101.458 119.207C101.458 119.207 94.2584 121.34 93.6289 128.834C95.7351 127.963 96.4015 129.185 96.4015 129.185C96.4015 129.185 104.347 135.042 109.357 129.745C114.366 124.447 101.461 119.207 101.461 119.207H101.458Z" fill="#FFE8C2"/>
<path d="M97.6351 107.168C83.8329 107.556 76.8648 114.367 77.0221 119.889C77.2297 127.322 88.2662 129.11 97.3974 128.856C97.3974 128.856 109.619 135.496 110.965 127.623C112.241 120.15 94.732 116.048 89.6893 115.576" stroke="#3F220F" stroke-width="2.67874" stroke-linecap="round" stroke-linejoin="round"/>
<path d="M103.184 126.871C103.184 126.871 106.134 128.221 106.217 131.244" stroke="#3F220F" stroke-width="1.67421" stroke-miterlimit="10" stroke-linecap="round"/>
<path d="M105.527 124.719C105.527 124.719 109.117 125.579 109.304 129.206" stroke="#3F220F" stroke-width="1.67421" stroke-miterlimit="10" stroke-linecap="round"/>
<path d="M144.186 123.09C144.39 125.742 139.612 132.71 135.195 135.017C130.779 137.324 132.915 135.968 132.915 135.968L136.923 148.327C136.923 148.327 147.109 146.258 149.185 141.6C146.339 130.259 144.183 123.09 144.183 123.09H144.186Z" fill="#D8A068"/>
<path d="M135.201 135.016C135.201 135.016 140.093 140.079 140.237 147.402C135.991 151.463 125.4 149.591 126.16 144.478C126.917 139.369 135.201 135.016 135.201 135.016Z" fill="#FFE8C2"/>
<path d="M137.378 104.949C137.378 104.949 147.825 106.406 152.764 123.623C159.266 147.257 128.484 153.123 126.348 145.813C125.383 142.519 127.503 139.364 131.588 137.429C137.18 134.784 143.264 130.652 142.434 126.292" stroke="#3F220F" stroke-width="2.67874" stroke-linecap="round" stroke-linejoin="round"/>
<path d="M126.926 142.773C126.926 142.773 130.622 143.329 131.861 141.879" stroke="#3F220F" stroke-width="1.67421" stroke-miterlimit="10" stroke-linecap="round"/>
<path d="M127.078 145.918C127.078 145.918 130.132 146.942 132.7 145.211" stroke="#3F220F" stroke-width="1.67421" stroke-miterlimit="10" stroke-linecap="round"/>
<path d="M101.457 77.6737C91.8741 75.9493 90.6384 64.116 91.4152 55.9258C95.3363 56.3008 102.756 55.3363 107.096 61.9227C110.441 66.9956 106.034 78.4974 101.454 77.6737H101.457Z" fill="#D8A068"/>
<path d="M94.7339 59.8104C94.7339 59.8104 95.139 71.8482 101.404 72.327C105.499 68.3692 105.754 63.5608 105.754 63.5608C105.754 63.5608 101.015 58.5146 94.7305 59.8104H94.7339Z" fill="#FFE8C2"/>
<path d="M92.3388 65.7708C92.3388 65.7708 92.8712 61.4279 93.8188 58.6554C97.5724 57.624 101.621 57.5604 102.933 58.009C94.7129 56.0871 91.418 55.9297 91.418 55.9297C91.418 55.9297 91.5653 64.197 92.3388 65.7708Z" fill="#3F220F"/>
<path d="M101.457 77.6737C91.8741 75.9493 90.6384 64.116 91.4152 55.9258C95.3363 56.3008 103.871 56.2371 108.214 62.8234C111.559 67.8963 106.035 78.4974 101.457 77.6737Z" stroke="#3F220F" stroke-width="2.67874" stroke-linecap="round" stroke-linejoin="round"/>
<path d="M135.808 70.3926C143.03 63.8598 137.817 53.1617 132.821 46.6289C129.69 49.0197 122.886 52.1304 122.685 60.0159C122.531 66.09 132.356 73.5168 135.808 70.396V70.3926Z" fill="#D8A068"/>
<path d="M132.065 51.6719C132.065 51.6719 138.092 62.1022 133.026 65.8223C127.458 64.6302 124.695 60.6858 124.695 60.6858C124.695 60.6858 126.045 53.8986 132.065 51.6719Z" fill="#FFE8C2"/>
<path d="M137.247 55.4609C137.247 55.4609 134.498 52.0589 132.225 50.2072C128.495 51.3189 125.026 53.4049 124.148 54.4798C130.109 48.4995 132.821 46.6211 132.821 46.6211C132.821 46.6211 137.07 53.7129 137.247 55.4575V55.4609Z" fill="#3F220F"/>
<path d="M138.356 66.9968C141.376 60.5645 137.02 52.1231 132.821 46.625C129.69 49.0158 122.417 53.4792 122.217 61.3648C122.063 67.4388 132.356 73.5129 135.808 70.3921C136.953 69.3541 137.787 68.2123 138.356 66.9968Z" stroke="#3F220F" stroke-width="2.67874" stroke-linecap="round" stroke-linejoin="round"/>
<path d="M125.891 109.77C140.33 105.504 145.657 95.4656 149.802 85.9627C138.053 85.8656 143.236 51.7118 114.476 57.9432C86.3631 65.072 99.6999 95.017 89.082 100.043C96.837 106.924 107.331 113.859 125.891 109.77Z" fill="#D8A068"/>
<path d="M88.9375 100.525C93.0829 101.684 100.181 98.8611 102.117 96.8487C105.345 93.4936 103.543 88.7823 110.659 87.1751C118.022 85.5142 120.64 86.0902 125.566 90.326C130.063 94.1901 141.227 92.4823 149.658 86.4485C143.018 98.4995 139.696 106.797 120.419 111.029C100.741 115.352 92.7112 105.943 88.9375 100.529V100.525Z" fill="#FFE8C2"/>
<path d="M100.846 90.7528C101.54 92.7551 100.421 94.9584 98.3518 95.6783C96.2791 96.3948 94.0391 95.3534 93.346 93.3511C92.6529 91.3487 93.7712 89.1454 95.8405 88.4255C97.9098 87.709 100.153 88.7504 100.846 90.7528Z" fill="#FFA492"/>
<g style="mix-blend-mode:multiply" opacity="0.5">
<path d="M101.519 62.95C100.883 69.3589 106.92 73.1359 110.687 69.5899C113.711 71.5354 117.103 66.4658 117.103 66.4658C119.942 68.2941 121.747 60.2578 121.747 60.2578C121.747 60.2578 101.774 60.4018 101.519 62.95Z" fill="#DAAA75"/>
</g>
<g style="mix-blend-mode:multiply" opacity="0.3">
<path d="M105.637 98.2637C105.637 98.2637 108.741 106.099 117.383 104.653C124.954 103.383 126.31 99.1409 125.476 94.1016C117.289 98.8798 105.637 98.2603 105.637 98.2603V98.2637Z" fill="#DAAA75"/>
</g>
<path d="M123.39 110.782C141.649 105.361 145.516 95.9452 149.658 86.4423C137.235 83.2814 141.26 53.4401 114.53 59.33C86.2555 65.7155 98.6212 88.2036 88.9375 100.526C94.6365 108.642 106.681 114.405 123.39 110.782Z" stroke="#3F220F" stroke-width="2.67874" stroke-linecap="round" stroke-linejoin="round"/>
<path d="M109.085 67.6651C111.75 68.9375 114.091 66.9854 113.943 65.1873C117.01 66.8515 120.493 63.5299 116.766 59.4046C112.935 55.1655 104.809 56.5619 102.083 60.3557C98.403 65.4821 105.184 72.2625 109.081 67.6651H109.085Z" fill="#754C24" stroke="#3F220F" stroke-width="2.67874" stroke-linecap="round" stroke-linejoin="round"/>
<path d="M106.508 63.6328C106.508 63.6328 106.819 67.47 109.856 67.9488L106.508 63.6328Z" fill="#C69C6D"/>
<path d="M106.508 63.6328C106.508 63.6328 106.819 67.47 109.856 67.9488" stroke="#3F220F" stroke-width="2.67874" stroke-linecap="round" stroke-linejoin="round"/>
<path d="M111.793 62.2812C111.793 62.2812 112.952 65.7469 115.727 65.623L111.793 62.2812Z" fill="#C69C6D"/>
<path d="M111.793 62.2812C111.793 62.2812 112.952 65.7469 115.727 65.623" stroke="#3F220F" stroke-width="2.67874" stroke-linecap="round" stroke-linejoin="round"/>
<path d="M137.152 69.1334C134.908 69.264 129.785 60.8828 129.785 60.8828C129.785 60.8828 139.964 56.4461 140.955 58.3079C141.943 60.1729 140.249 68.9525 137.152 69.1299V69.1334Z" fill="#E63160" stroke="#3F220F" stroke-width="2.67874" stroke-linecap="round" stroke-linejoin="round"/>
<path d="M118.523 63.4317C120.308 64.7945 129.245 60.7194 129.245 60.7194C129.245 60.7194 123.294 51.344 121.429 52.3351C119.564 53.3262 116.055 61.5499 118.52 63.4317H118.523Z" fill="#E63160" stroke="#3F220F" stroke-width="2.67874" stroke-linecap="round" stroke-linejoin="round"/>
<path d="M132.056 62.894C131.574 64.4711 129.907 65.3551 128.333 64.873C126.759 64.3908 125.872 62.7232 126.354 61.1495L127.158 58.5243C127.64 56.9506 129.307 56.0632 130.881 56.5454C132.458 57.0275 133.342 58.6951 132.86 60.2689L132.056 62.894Z" fill="#E63160" stroke="#3F220F" stroke-width="2.67874" stroke-linecap="round" stroke-linejoin="round"/>
<path d="M123.424 57.832L126.072 60.1323L123.105 60.0922" stroke="#3F220F" stroke-width="1.33937" stroke-linecap="round" stroke-linejoin="round"/>
<path d="M135.83 61.5078L132.418 61.702L134.866 63.4466" stroke="#3F220F" stroke-width="1.33937" stroke-linecap="round" stroke-linejoin="round"/>
<path d="M104.829 91.7227C104.852 93.6781 103.992 95.5097 102.559 96.7486" stroke="#3F220F" stroke-width="1.67421" stroke-miterlimit="10" stroke-linecap="round"/>
<path d="M123.344 87.8867C124.231 90.0063 126.173 91.4796 128.4 91.8144" stroke="#3F220F" stroke-width="1.67421" stroke-miterlimit="10" stroke-linecap="round"/>
<path d="M104.617 94.694L124.751 90.5117C124.751 90.5117 127.668 100.463 116.889 102.703C106.111 104.943 104.617 94.694 104.617 94.694Z" fill="#E83A47"/>
<path d="M109.145 93.9159C109.145 93.9159 110.086 98.2455 114.325 97.2409C118.564 96.2364 117.388 91.957 117.388 91.957" fill="white"/>
<path d="M110.336 101.911C111.069 98.7129 115.198 98.5523 116.199 99.2086C117.508 96.7843 120.967 95.8869 122.735 97.9127C122.24 101.974 113.105 103.424 110.336 101.911Z" fill="#FFA492"/>
<path d="M104.617 94.694L124.751 90.5117C124.751 90.5117 127.785 100.654 116.889 102.703C105.478 104.853 104.617 94.694 104.617 94.694Z" stroke="#3F220F" stroke-width="1.67421" stroke-linecap="round" stroke-linejoin="round"/>
<path d="M112.796 92.9176L112.25 90.2891" stroke="#3F220F" stroke-width="1.67421" stroke-miterlimit="10" stroke-linecap="round"/>
<path d="M111.91 86.8281C108.783 87.4777 107.946 89.0213 109.486 89.8584C111.026 90.6955 113.353 90.7391 115.034 88.7033C116.692 86.7009 114.127 86.366 111.907 86.8281H111.91Z" fill="#FFA492" stroke="#3F220F" stroke-width="1.67421" stroke-miterlimit="10" stroke-linecap="round"/>
<path d="M110.306 82.9934C110.299 84.3897 109.475 85.5952 108.491 85.612C107.54 85.6287 106.867 84.5204 106.957 83.1978C107.044 81.9388 107.798 80.8973 108.668 80.8102C109.562 80.7232 110.306 81.6708 110.302 82.9934H110.306Z" fill="#3F220F"/>
<path d="M133.898 83.7684C134.591 85.7707 133.472 87.974 131.403 88.6939C129.33 89.4105 127.09 88.369 126.397 86.3667C125.704 84.3643 126.819 82.1611 128.892 81.4412C130.961 80.7246 133.204 81.766 133.898 83.7684Z" fill="#FFA492"/>
<path d="M113.762 74.5114C114.023 73.9656 114.452 73.577 114.987 73.4699C115.526 73.3627 116.072 73.5637 116.521 73.9756" stroke="#3F220F" stroke-width="1.67421" stroke-linecap="round" stroke-linejoin="round"/>
<path d="M106.023 76.4665C106.254 75.9073 106.66 75.4955 107.192 75.3616C107.724 75.2276 108.28 75.3982 108.749 75.7866" stroke="#3F220F" stroke-width="1.67421" stroke-linecap="round" stroke-linejoin="round"/>
<path d="M115.572 80.5781L113.73 82.4935L115.894 82.8283" stroke="#3F220F" stroke-width="1.67421" stroke-linecap="round" stroke-linejoin="round"/>
<path d="M83.7074 77.5C82.5355 79.8472 77.1211 80.3059 77.1211 80.3059C80.282 83.0115 80.4193 86.1222 80.4193 86.1222C82.3581 83.8185 85.8337 83.862 85.8337 83.862C83.2822 81.4076 83.7074 77.5034 83.7074 77.5034V77.5Z" fill="#FCEE21"/>
<path d="M79.3173 82.0454C79.3173 82.0454 82.0664 81.9952 83.1546 79.8121C83.6267 78.8645 83.014 78.3555 83.014 78.3555C83.014 78.3555 76.4008 80.1269 77.5728 80.7095C79.2169 81.5299 79.3173 82.0422 79.3173 82.0422V82.0454Z" fill="white"/>
<path d="M83.7074 77.5C82.5355 79.8472 77.1211 80.3059 77.1211 80.3059C80.282 83.0115 80.4193 86.1222 80.4193 86.1222C82.3581 83.8185 85.8337 83.862 85.8337 83.862C83.2822 81.4076 83.7074 77.5034 83.7074 77.5034V77.5Z" stroke="#FBB03B" stroke-width="2.00906" stroke-linecap="round" stroke-linejoin="round"/>
<path d="M12.5352 60.457C11.5642 64.2675 4.32812 66.789 4.32812 66.789C9.33403 69.6284 10.3419 74.0986 10.3419 74.0986C12.3677 70.0905 17.0991 68.9553 17.0991 68.9553C12.9839 66.2665 12.5352 60.457 12.5352 60.457Z" fill="#FCEE21"/>
<path d="M7.77099 68.5686C7.77099 68.5686 11.4911 67.5506 12.3952 64.0113C12.787 62.471 11.8226 61.9453 11.8226 61.9453C11.8226 61.9453 3.30749 66.7905 5.05202 67.2325C7.49973 67.8586 7.77099 68.5686 7.77099 68.5686Z" fill="white"/>
<path d="M12.5352 60.457C11.5642 64.2675 4.32812 66.789 4.32812 66.789C9.33403 69.6284 10.3419 74.0986 10.3419 74.0986C12.3677 70.0905 17.0991 68.9553 17.0991 68.9553C12.9839 66.2665 12.5352 60.457 12.5352 60.457Z" stroke="#FBB03B" stroke-width="2.3439" stroke-linecap="round" stroke-linejoin="round"/>
<path d="M13.0071 93.755C10.5795 95.0576 5.66071 92.168 5.66071 92.168C6.7322 96.4037 4.96094 99.156 4.96094 99.156C8.01805 98.3557 10.9713 100.499 10.9713 100.499C10.2714 96.8457 13.0039 93.755 13.0039 93.755H13.0071Z" fill="#FCEE21"/>
<path d="M6.48826 94.9888C6.48826 94.9888 8.87573 96.6129 11.1326 95.4041C12.1137 94.8784 11.8961 94.0714 11.8961 94.0714C11.8961 94.0714 5.1523 91.5834 5.8019 92.7922C6.71267 94.4932 6.48826 94.9922 6.48826 94.9922V94.9888Z" fill="white"/>
<path d="M13.0071 93.755C10.5795 95.0576 5.66071 92.168 5.66071 92.168C6.7322 96.4037 4.96094 99.156 4.96094 99.156C8.01805 98.3557 10.9713 100.499 10.9713 100.499C10.2714 96.8457 13.0039 93.755 13.0039 93.755H13.0071Z" stroke="#FBB03B" stroke-width="2.3439" stroke-linecap="round" stroke-linejoin="round"/>
</svg>
