<svg width="30" height="29" viewBox="0 0 30 29" fill="none" xmlns="http://www.w3.org/2000/svg">
<path d="M25.5992 3.45762C20.7992 -0.882377 10.8292 -1.28238 4.87918 3.08762C-0.570822 7.08762 -1.32082 13.6076 1.95918 18.0076C5.20918 22.9276 13.4492 24.2176 13.4492 24.2176L13.5192 28.0276C13.5392 28.7876 14.3992 29.2276 15.0192 28.7776C18.0692 26.5776 24.9892 21.4176 27.1792 18.4276C29.7692 15.1776 31.4992 8.51762 25.6092 3.46762L25.5992 3.45762ZM8.97918 16.2176H5.65918C5.26918 16.2176 4.94918 15.8976 4.94918 15.5076V9.03762C4.94918 8.64762 5.26918 8.32762 5.65918 8.32762C6.04918 8.32762 6.36918 8.64762 6.36918 9.03762V14.7976H8.96918C9.35918 14.7976 9.67918 15.1176 9.67918 15.5076C9.67918 15.8976 9.35918 16.2176 8.96918 16.2176H8.97918ZM12.3592 15.5076C12.3592 15.8976 12.0392 16.2176 11.6492 16.2176C11.2592 16.2176 10.9392 15.8976 10.9392 15.5076V9.03762C10.9392 8.64762 11.2592 8.32762 11.6492 8.32762C12.0392 8.32762 12.3592 8.64762 12.3592 9.03762V15.5076ZM19.2292 15.3876C19.2292 15.6976 19.0192 15.9776 18.7292 16.0676C18.6592 16.0876 18.5892 16.0976 18.5192 16.0976C18.2792 16.0976 18.0592 15.9876 17.9292 15.7876L15.0892 11.5276V15.3976C15.0892 15.7876 14.7692 16.1076 14.3792 16.1076C13.9892 16.1076 13.6692 15.7876 13.6692 15.3976V9.17762C13.6692 8.86762 13.8792 8.58762 14.1692 8.49762C14.4692 8.39762 14.7992 8.52762 14.9692 8.78762L17.8092 13.0476V9.17762C17.8092 8.78762 18.1292 8.46762 18.5192 8.46762C18.9092 8.46762 19.2292 8.78762 19.2292 9.17762V15.3976V15.3876ZM23.5692 11.5576C23.9592 11.5576 24.2792 11.8776 24.2792 12.2676C24.2792 12.6576 23.9592 12.9776 23.5692 12.9776H21.8392V14.5976H23.8592C24.2492 14.5976 24.5692 14.9176 24.5692 15.3076C24.5692 15.6976 24.2492 16.0176 23.8592 16.0176H21.1192C20.7292 16.0176 20.4092 15.6976 20.4092 15.3076V9.21762C20.4092 8.82762 20.7292 8.50762 21.1192 8.50762H23.8892C24.2792 8.50762 24.5992 8.82762 24.5992 9.21762C24.5992 9.60762 24.2792 9.92762 23.8892 9.92762H21.8292V11.5476H23.5592L23.5692 11.5576Z" fill="white"/>
</svg>
