<svg width="16" height="16" viewBox="0 0 16 16" fill="none" xmlns="http://www.w3.org/2000/svg">
<path d="M1 4C1 3.44772 1.44772 3 2 3L14 3C14.5523 3 15 3.44772 15 4C15 4.55228 14.5523 5 14 5L2 5C1.44772 5 1 4.55228 1 4Z" fill="#F39800"/>
<path d="M1 11C1 10.4477 1.44772 10 2 10L14 10C14.5523 10 15 10.4477 15 11C15 11.5523 14.5523 12 14 12L2 12C1.44772 12 1 11.5523 1 11Z" fill="#F39800"/>
<rect x="8" y="7" width="3" height="8" rx="1" fill="#F39800"/>
<rect x="4" y="1" width="3" height="6" rx="1" fill="#F39800"/>
</svg>
