<svg width="15" height="15" viewBox="0 0 15 15" fill="none" xmlns="http://www.w3.org/2000/svg">
<path d="M10 0C12.7614 0 15 2.23858 15 5V15H5C2.23858 15 8.05346e-08 12.7614 0 10V5C0 2.23858 2.23858 8.0532e-08 5 0H10ZM7.125 3.75C5.26104 3.75 3.75 5.26104 3.75 7.125C3.75 8.98898 5.26104 10.5 7.125 10.5C7.78538 10.5 8.4016 10.3102 8.92188 9.98242L9.96973 11.0303C10.2626 11.3231 10.7374 11.3231 11.0303 11.0303C11.3231 10.7374 11.3231 10.2626 11.0303 9.96973L9.98242 8.92188C10.3102 8.4016 10.5 7.78538 10.5 7.125C10.5 5.26104 8.98898 3.75 7.125 3.75ZM7.125 5.25C8.16053 5.25 9 6.08948 9 7.125C9 8.16053 8.16053 9 7.125 9C6.08948 9 5.25 8.16053 5.25 7.125C5.25 6.08948 6.08948 5.25 7.125 5.25Z" fill="white"/>
</svg>
