<svg width="16" height="16" viewBox="0 0 16 16" fill="none" xmlns="http://www.w3.org/2000/svg">
<path d="M1 3C1 2.44772 1.44772 2 2 2L14 2C14.5523 2 15 2.44772 15 3C15 3.55228 14.5523 4 14 4L2 4C1.44772 4 1 3.55228 1 3Z" fill="#F39800"/>
<path d="M1 8C1 7.44772 1.44772 7 2 7L11 7C11.5523 7 12 7.44772 12 8C12 8.55228 11.5523 9 11 9L2 9C1.44771 9 1 8.55228 1 8Z" fill="#F39800"/>
<path d="M1 13C1 12.4477 1.44772 12 2 12H8C8.55228 12 9 12.4477 9 13C9 13.5523 8.55228 14 8 14H2C1.44772 14 1 13.5523 1 13Z" fill="#F39800"/>
</svg>
