<svg width="36" height="36" viewBox="0 0 36 36" fill="none" xmlns="http://www.w3.org/2000/svg">
<path d="M18.3076 9.50098C23.8076 9.50098 27.5487 12.4835 29.5234 14.6221C31.046 16.271 31.046 18.7359 29.5234 20.3848C27.5487 22.5234 23.8076 25.5059 18.3076 25.5059C12.8079 25.5058 9.06752 22.5234 7.09277 20.3848C5.57018 18.7359 5.57018 16.271 7.09277 14.6221C9.06753 12.4836 12.808 9.50105 18.3076 9.50098ZM18.3076 11.7881C13.6972 11.7882 10.5211 14.2801 8.77246 16.1738C8.05877 16.9468 8.05881 18.06 8.77246 18.833C10.5211 20.7268 13.6972 23.2197 18.3076 23.2197C22.9181 23.2197 26.0952 20.7268 27.8438 18.833C28.557 18.0601 28.5571 16.9467 27.8438 16.1738C26.0952 14.2801 22.9181 11.7881 18.3076 11.7881ZM18.3008 13.502C20.5104 13.502 22.3015 15.2934 22.3018 17.5029C22.3018 19.7127 20.5105 21.5049 18.3008 21.5049C16.0911 21.5048 14.2998 19.7126 14.2998 17.5029C14.3001 15.2935 16.0913 13.5021 18.3008 13.502ZM18.3008 15.7949C17.3576 15.795 16.593 16.5598 16.5928 17.5029C16.5928 18.4463 17.3574 19.2118 18.3008 19.2119C19.2442 19.2119 20.0098 18.4464 20.0098 17.5029C20.0095 16.5597 19.2441 15.7949 18.3008 15.7949Z" fill="#B3A093"/>
</svg>
