<svg width="30" height="30" viewBox="0 0 30 30" fill="none" xmlns="http://www.w3.org/2000/svg">
<path d="M20 0C25.5228 0 30 4.47715 30 10V30H10C4.47715 30 1.61069e-07 25.5228 0 20V10C0 4.47715 4.47715 1.61064e-07 10 0H20ZM12.4404 16.1152C12.2704 16.0019 12.0714 16.0019 11.9014 16.0869C11.8165 16.1434 11.7597 16.1719 11.6748 16.2002C9.40821 17.1918 7 18.4386 7 20.5068V21.2998C7 22.2348 7.7652 23 8.7002 23H22.2998C23.2348 23 24 22.2348 24 21.2998V20.5068C24 18.4386 21.5918 17.1918 19.3252 16.2285C19.2403 16.1719 19.1834 16.1435 19.0986 16.1152C18.9286 16.0302 18.7296 16.0302 18.5596 16.1436C17.653 16.7101 16.6048 17.0498 15.5 17.0498C14.3952 17.0498 13.347 16.7101 12.4404 16.1152ZM15.5 6C13.1685 6.00003 11.2784 8.09298 11.2783 10.6748C11.2783 13.2567 13.1685 15.3496 15.5 15.3496C17.8316 15.3496 19.7217 13.2567 19.7217 10.6748C19.7216 8.09296 17.8315 6 15.5 6Z" fill="#C4C4C4"/>
</svg>
