<svg width="37" height="36" viewBox="0 0 37 36" fill="none" xmlns="http://www.w3.org/2000/svg">
<path d="M23.5 3C29.0228 3 33.5 7.47715 33.5 13V33H13.5C7.97715 33 3.5 28.5228 3.5 23V13C3.5 7.47715 7.97715 3 13.5 3H23.5ZM17.75 10.5C14.0221 10.5 11 13.5221 11 17.25C11 20.978 14.0221 24 17.75 24C19.0708 24 20.3032 23.6205 21.3438 22.9648L23.4395 25.0605C24.0252 25.6463 24.9748 25.6463 25.5605 25.0605C26.1463 24.4748 26.1463 23.5252 25.5605 22.9395L23.4648 20.8438C24.1205 19.8032 24.5 18.5708 24.5 17.25C24.5 13.5221 21.478 10.5 17.75 10.5ZM17.75 13.5C19.8211 13.5 21.5 15.179 21.5 17.25C21.5 19.3211 19.8211 21 17.75 21C15.679 21 14 19.3211 14 17.25C14 15.179 15.679 13.5 17.75 13.5Z" fill="white"/>
</svg>
