<svg width="28" height="28" viewBox="0 0 28 28" fill="none" xmlns="http://www.w3.org/2000/svg">
<path d="M28 6.8C28 11.6 28 16.4 28 21.2C28 21.3 28 21.4 28 21.4C27.6 25 24.5 27.9 20.8 27.9C16.3 27.9 11.8 27.9 7.2 27.9C6.5 27.9 5.8 27.8 5.1 27.5C2 26.5 0 23.7 0 20.5C0 16.1 0 11.8 0 7.4C0 7.1 0 6.8 0 6.6C0.3 3.7 2.4 1.1 5.2 0.3C5.7 0.2 6.2 0.1 6.7 0C11.5 0 16.3 0 21.1 0C21.2 0 21.2 0 21.3 0C24.3 0.4 26.4 2.1 27.5 5C27.8 5.6 27.9 6.2 28 6.8ZM23.1 14C23.1 12.6 23.1 11.3 23.1 9.9C23.1 7 20.9 4.9 18.1 4.9C15.4 4.9 12.7 4.9 10 4.9C7.1 4.9 5 7.1 5 9.9C5 12.6 5 15.3 5 18C5 20.9 7.2 23 10 23C12.7 23 15.4 23 18.1 23C21 23 23.1 20.8 23.1 18C23.1 16.7 23.1 15.3 23.1 14Z" fill="white"/>
<path d="M6.60156 13.9996C6.60156 12.5996 6.60156 11.2996 6.60156 9.99961C6.60156 8.09961 8.00156 6.59961 10.0016 6.59961C12.7016 6.59961 15.4016 6.59961 18.1016 6.59961C20.0016 6.59961 21.5016 7.99961 21.5016 9.99961C21.5016 12.6996 21.5016 15.3996 21.5016 18.1996C21.5016 20.0996 20.1016 21.5996 18.1016 21.5996C15.4016 21.5996 12.7016 21.5996 9.90156 21.5996C8.00156 21.5996 6.60156 20.1996 6.60156 18.2996C6.60156 16.6996 6.60156 15.2996 6.60156 13.9996ZM18.1016 13.9996C18.1016 11.6996 16.3016 9.89961 14.0016 9.89961C11.7016 9.89961 9.90156 11.6996 9.90156 13.9996C9.90156 16.2996 11.7016 18.0996 14.0016 18.0996C16.3016 18.0996 18.1016 16.2996 18.1016 13.9996ZM19.5016 9.29961C19.5016 8.89961 19.1016 8.49961 18.7016 8.49961C18.3016 8.49961 17.9016 8.89961 17.9016 9.29961C17.9016 9.79961 18.3016 10.0996 18.7016 10.0996C19.2016 10.0996 19.5016 9.69961 19.5016 9.29961Z" fill="white"/>
<path d="M16.5016 14.0005C16.5016 15.4005 15.4016 16.5005 14.0016 16.4005C12.7016 16.4005 11.6016 15.3005 11.6016 13.9005C11.6016 12.5005 12.7016 11.4005 14.1016 11.5005C15.4016 11.5005 16.5016 12.7005 16.5016 14.0005Z" fill="white"/>
</svg>
