<svg width="156" height="176" viewBox="0 0 156 176" fill="none" xmlns="http://www.w3.org/2000/svg">
<path d="M34.7107 97.8446C34.1667 97.4566 21.0387 97.1966 13.9707 94.3086C6.8147 95.4966 2.71875 102.877 2.71875 102.877C2.71875 102.877 5.52275 123.281 33.0188 120.717C40.9748 103.521 34.7107 97.8406 34.7107 97.8406V97.8446Z" fill="#D8A068"/>
<path d="M33.5225 97.6605C29.5545 98.0805 27.1226 97.8965 23.6426 96.8965" stroke="#3F220F" stroke-width="3.6" stroke-linecap="round" stroke-linejoin="round"/>
<path d="M33.5232 97.6602C33.5232 97.6602 37.0274 111.624 31.7754 121.128C38.9034 120.504 48.1553 119.128 48.1553 119.128L50.0273 101.164L33.5193 97.6641L33.5232 97.6602Z" fill="#FF6673"/>
<path d="M149.79 92.1933C143.482 95.0493 138.683 101.225 146.619 136.337C151.907 159.749 130.547 173.665 109.847 168.077C93.1745 165.777 76.0266 148.709 85.1506 122.269C94.0826 96.3893 120.298 83.4253 149.79 92.1933Z" fill="#D8A068"/>
<g style="mix-blend-mode:multiply" opacity="0.5">
<path d="M110.242 157.65C110.242 157.65 107.11 162.69 105.83 167.238C107.162 167.61 108.506 167.89 109.842 168.078C120.302 170.902 130.926 168.746 138.202 162.902C138.534 162.394 138.778 161.886 138.918 161.378C124.018 167.274 110.242 157.65 110.242 157.65Z" fill="#E0AE77"/>
</g>
<path d="M145.748 129.933C135.544 97.4208 143.884 95.1808 149.472 92.6528C133.872 86.3448 114.448 90.9848 96.7757 101.813C96.5557 102.293 96.3516 102.773 96.1636 103.245C88.6916 121.957 104.488 134.661 119.956 120.389C116.604 137.741 140.6 149.353 145.744 129.933H145.748Z" fill="#FFE8C2"/>
<path d="M109.522 168.538C92.8504 166.238 75.4385 149.078 84.8265 122.73C95.6625 92.3095 125.443 81.7135 149.467 92.6535C133.971 95.3415 144.622 116.81 146.294 136.798C147.606 152.506 140.262 163.678 129.206 167.918" stroke="#3F220F" stroke-width="3.6" stroke-linecap="round" stroke-linejoin="round"/>
<path d="M121.678 97.4131C122.15 96.9411 135.058 94.5371 141.562 90.5371C148.814 90.5371 154.062 97.1531 154.062 97.1531C154.062 97.1531 154.63 117.741 127.09 119.709C116.43 104.045 121.678 97.4171 121.678 97.4171V97.4131Z" fill="#D8A068"/>
<path d="M123.183 96.8097C123.183 96.8097 124.059 114.294 129.183 119.418C120.803 122.046 108.548 120.918 108.548 120.294C108.548 119.67 103.796 96.1617 104.172 96.5337C104.548 96.9057 123.183 96.8057 123.183 96.8057V96.8097Z" fill="#FF6673"/>
<path d="M40.3308 169.728C40.3308 169.728 74.0669 182.484 117.919 170.06C114.811 149.264 114.463 148.908 108.459 101.252L47.6509 101.828C47.6509 101.828 46.7189 124.58 42.8949 135.764C38.4709 148.696 38.0468 164.64 40.3308 169.732V169.728Z" fill="#FF6673"/>
<path d="M39.6758 98.4201C55.6998 121.044 98.2317 122.112 109.488 98.2481C65.5757 92.3001 39.6758 98.4201 39.6758 98.4201Z" fill="#ED5668"/>
<path d="M36.8098 55.6007C21.9578 48.9607 24.7019 29.2727 29.2499 16.3047C35.4579 18.4847 47.8738 19.9007 52.2778 32.3247C55.6698 41.8927 43.9058 58.7767 36.8098 55.6047V55.6007Z" fill="#D8A068"/>
<path d="M33.0703 23.9297C33.0703 23.9297 28.8943 43.6177 38.8703 46.9057C47.0943 42.1297 49.4424 34.4337 49.4424 34.4337C49.4424 34.4337 43.7863 24.3497 33.0703 23.9297Z" fill="#FBE5BF"/>
<path d="M26.7895 32.6328C26.7895 32.6328 29.3976 25.8048 32.0496 21.6888C38.5536 21.5208 45.1416 23.0448 47.0936 24.2968C34.5296 17.8848 29.2496 16.3008 29.2496 16.3008C29.2496 16.3008 26.1695 29.7688 26.7895 32.6288V32.6328Z" fill="#3F220F"/>
<path d="M36.8098 55.6007C21.9578 48.9607 24.7019 29.2727 29.2499 16.3047C35.4579 18.4847 49.3218 21.8087 53.7258 34.2287C57.1138 43.7967 43.9058 58.7727 36.8098 55.6007Z" stroke="#3F220F" stroke-width="3.6" stroke-linecap="round" stroke-linejoin="round"/>
<path d="M105.66 40.7049C116.44 28.5209 105.8 11.7249 96.2996 1.79688C91.5436 6.34888 80.8237 12.7689 81.9517 25.9009C82.8157 36.0129 100.512 46.5249 105.664 40.7049H105.66Z" fill="#D8A068"/>
<path d="M95.9703 10.3242C95.9703 10.3242 107.91 26.5242 100.186 33.6442C90.7183 32.6962 85.4023 26.6562 85.4023 26.6562C85.4023 26.6562 86.3863 15.1362 95.9703 10.3242Z" fill="#FBE5BF"/>
<path d="M105.283 15.6527C105.283 15.6527 100.087 10.5127 95.9715 7.86467C89.9875 10.3967 84.6115 14.5047 83.3555 16.4567C92.1435 5.42469 96.2994 1.80469 96.2994 1.80469C96.2994 1.80469 104.667 12.7967 105.288 15.6567L105.283 15.6527Z" fill="#3F220F"/>
<path d="M109.262 34.5968C113.082 23.3568 104.286 10.1488 96.2945 1.80078C91.5385 6.35278 80.2904 15.1088 81.4144 28.2408C82.2824 38.3528 100.502 46.5288 105.654 40.7088C107.366 38.7768 108.539 36.7248 109.259 34.6008" stroke="#3F220F" stroke-width="3.6" stroke-linecap="round" stroke-linejoin="round"/>
<path d="M84.191 109.742C115.227 103.03 123.775 85.0496 130.759 69.2016C111.131 68.9656 113.539 12.8576 65.4512 23.0856C25.6632 31.6936 42.8112 83.7456 25.0352 92.0736C37.9432 103.622 53.159 116.458 84.191 109.742Z" fill="#D8A068"/>
<path d="M66.6113 57.1172L70.9354 58.8652L67.6113 61.2052" stroke="#3F220F" stroke-width="2.4" stroke-linecap="round" stroke-linejoin="round"/>
<path d="M78.0153 57.2886C79.0873 59.0926 81.1393 59.8446 82.5993 58.9686C84.0593 58.0886 84.3753 55.9166 83.3073 54.1086C82.2313 52.3046 80.1833 51.5526 78.7233 52.4326C77.2673 53.3046 76.9474 55.4806 78.0194 57.2846L78.0153 57.2886Z" fill="#3F220F"/>
<g style="mix-blend-mode:multiply" opacity="0.5">
<path d="M51.3787 30.1492C50.2747 40.8532 60.3348 47.2052 66.6508 41.3052C71.6868 44.5732 77.3906 36.1252 77.3906 36.1252C82.1226 39.1972 85.1867 25.7812 85.1867 25.7812C85.1867 25.7812 51.8147 25.8932 51.3787 30.1492Z" fill="#D4A673"/>
</g>
<path d="M26.3984 91.7817C65.8984 93.5217 53.5944 69.9097 76.1824 65.1017C101.406 59.7377 94.8585 88.4857 132.122 68.9097C130.69 79.9737 112.818 103.526 89.9145 108.398C67.0145 113.27 37.4264 106.642 26.3984 91.7817Z" fill="#FBE5BF"/>
<g style="mix-blend-mode:multiply" opacity="0.3">
<path d="M67.1183 80.3847C66.9423 95.3567 74.3543 107.513 85.7343 104.625C97.1103 101.737 95.2422 85.6167 93.3822 76.1167C82.6942 75.3927 67.1222 80.3847 67.1222 80.3847H67.1183Z" fill="#D4A673"/>
</g>
<path d="M84.1912 109.742C115.227 103.03 122.339 85.4657 129.323 69.6177C108.587 64.2577 110.467 14.9337 65.7713 24.6017C22.3113 34.0017 43.8072 77.0097 25.0312 92.0737C37.9393 103.622 57.5593 113.338 84.1873 109.742H84.1912Z" stroke="#3F220F" stroke-width="3.6" stroke-linecap="round" stroke-linejoin="round"/>
<path d="M66.0591 36.4007C70.5031 38.5447 74.4269 35.3007 74.1909 32.2927C79.3069 35.0927 85.1431 29.5647 78.9431 22.6487C72.5711 15.5447 58.987 17.8207 54.411 24.1447C48.231 32.6847 59.5191 44.0567 66.0591 36.4007Z" fill="#734C23" stroke="#3F220F" stroke-width="3.6" stroke-linecap="round" stroke-linejoin="round"/>
<path d="M61.7793 29.6484C61.7793 29.6484 62.2753 36.0604 67.3473 36.8804" stroke="#3F220F" stroke-width="3.6" stroke-linecap="round" stroke-linejoin="round"/>
<path d="M70.6191 27.4238C70.6191 27.4238 72.5351 33.2198 77.1711 33.0278L70.6191 27.4238Z" fill="#C1996C"/>
<path d="M70.6191 27.4238C70.6191 27.4238 72.5351 33.2198 77.1711 33.0278" stroke="#3F220F" stroke-width="3.6" stroke-linecap="round" stroke-linejoin="round"/>
<path d="M108.217 41.9899C104.473 42.1898 95.9648 28.1618 95.9648 28.1618C95.9648 28.1618 112.997 20.8138 114.641 23.9338C116.281 27.0538 113.389 41.7099 108.217 41.9899Z" fill="#FCEE21" stroke="#3F220F" stroke-width="3.6" stroke-linecap="round" stroke-linejoin="round"/>
<path d="M77.1276 32.3413C80.1036 34.6293 95.0596 27.8813 95.0596 27.8813C95.0596 27.8813 85.1796 12.1813 82.0596 13.8213C78.9396 15.4653 73.0235 29.1813 77.1315 32.3413H77.1276Z" fill="#FCEE21" stroke="#3F220F" stroke-width="3.6" stroke-linecap="round" stroke-linejoin="round"/>
<path d="M99.7396 31.5329C98.9236 34.1609 96.1316 35.6289 93.5036 34.8129C90.8756 34.0009 89.4076 31.2089 90.2236 28.5809L91.5876 24.1969C92.3996 21.5689 95.1957 20.1009 97.8197 20.9169C100.448 21.7329 101.92 24.5249 101.1 27.1489L99.7396 31.5329Z" fill="#FCEE21" stroke="#3F220F" stroke-width="3.6" stroke-linecap="round" stroke-linejoin="round"/>
<path d="M85.3566 23.0254L89.7607 26.8814L84.8047 26.7974" stroke="#3F220F" stroke-width="2.4" stroke-linecap="round" stroke-linejoin="round"/>
<path d="M106.055 29.2422L100.355 29.5502L104.431 32.4742" stroke="#3F220F" stroke-width="2.4" stroke-linecap="round" stroke-linejoin="round"/>
<path d="M66.2461 76.6964L90.9021 71.3164C90.9021 71.3164 100.474 98.4204 83.998 101.328C69.986 103.8 66.2461 76.6964 66.2461 76.6964Z" fill="#E83A47"/>
<path d="M93.7633 89.6678C91.7233 82.7598 83.4074 85.5238 82.6674 91.0518C77.9914 85.5918 71.7953 88.7398 72.4073 94.2958C76.4673 102.736 84.6074 100.58 88.6594 98.8558C92.7114 97.1318 93.7633 89.6638 93.7633 89.6638V89.6678Z" fill="#FFA492"/>
<path d="M71.2832 75.0403C71.2832 75.0403 72.8272 82.2803 79.9152 80.6283C87.0032 78.9763 85.0674 71.8203 85.0674 71.8203" fill="white"/>
<path d="M66.9668 76.5358L90.0107 71.5078C90.0107 71.5078 100.475 98.4158 83.9986 101.324C69.9866 103.796 66.9668 76.5358 66.9668 76.5358Z" stroke="#3F220F" stroke-width="2.4" stroke-linecap="round" stroke-linejoin="round"/>
<path d="M77.9098 73.9291L77.0137 69.5371" stroke="#3F220F" stroke-width="2.4" stroke-miterlimit="10" stroke-linecap="round"/>
<path d="M76.2272 63.8008C70.9992 64.8688 69.5872 67.4408 72.1592 68.8488C74.7312 70.2568 78.6111 70.3448 81.4391 66.9568C84.2191 63.6208 79.9392 63.0448 76.2272 63.8008Z" fill="#F29F8F" stroke="#3F220F" stroke-width="2.4" stroke-miterlimit="10" stroke-linecap="round"/>
<path d="M111.254 62.6083C112.398 65.9563 110.518 69.6323 107.054 70.8163C103.586 72.0043 99.8497 70.2483 98.7057 66.9003C97.5577 63.5483 99.4417 59.8723 102.906 58.6883C106.37 57.5043 110.11 59.2563 111.254 62.6043V62.6083Z" fill="#FFA492"/>
<path d="M55.9903 74.061C57.1343 77.409 55.2583 81.0849 51.7903 82.2729C48.3263 83.4569 44.5865 81.705 43.4425 78.357C42.2985 75.005 44.1785 71.3289 47.6425 70.1449C51.1065 68.9569 54.8423 70.713 55.9903 74.061Z" fill="#FFA492"/>
<path d="M76.418 43.4885C76.854 42.5765 77.5739 41.9285 78.4699 41.7565C79.3699 41.5805 80.282 41.9245 81.026 42.6085" stroke="#3F220F" stroke-width="2.4" stroke-linecap="round" stroke-linejoin="round"/>
<path d="M64.1504 50.5802C64.5984 49.6762 65.3263 49.0362 66.2223 48.8722C67.1263 48.7122 68.0343 49.0642 68.7703 49.7602" stroke="#3F220F" stroke-width="2.4" stroke-linecap="round" stroke-linejoin="round"/>
<path d="M118.262 169.618C118.262 152.434 111.25 130.57 112.178 116.346" stroke="#3F220F" stroke-width="3.6" stroke-linecap="round" stroke-linejoin="round"/>
<path d="M96.4341 141.017L82.802 141.273C80.354 141.317 78.322 143.389 78.294 145.889C78.27 148.385 80.25 150.321 82.694 150.221L85.446 150.109C83.902 151.449 81.986 152.229 79.938 152.321C75.018 152.549 70.9579 148.661 70.9979 143.637C71.0379 138.593 75.186 134.469 80.138 134.461C82.494 134.461 84.67 135.377 86.278 137.041C88.77 139.617 92.794 139.557 95.278 136.965C97.734 134.405 97.806 130.273 95.43 127.681C91.542 123.441 86.1859 120.961 80.2899 120.773C67.5459 120.365 56.538 130.817 56.502 143.989C56.466 157.037 67.246 166.709 79.794 165.713C84.218 165.361 88.47 163.669 91.978 160.969C92.026 163.269 93.8181 164.965 96.0341 164.789C98.2741 164.609 100.11 162.577 100.15 160.241L100.426 145.229C100.47 142.865 98.6941 140.981 96.4341 141.021V141.017Z" fill="#FFFF00"/>
<path d="M45.7837 116.668C45.7837 129.308 36.9118 153.028 39.7798 168.588" stroke="#3F220F" stroke-width="3.6" stroke-linecap="round" stroke-linejoin="round"/>
<path d="M122.754 86.4441C122.754 86.4441 129.706 75.7041 129.318 69.6161C125.374 68.1921 123.51 67.6121 123.51 67.6121C123.51 67.6121 116.59 57.8561 112.318 59.1921C108.046 60.5241 107.266 63.1001 107.266 63.1001C107.266 63.1001 98.0096 59.5001 96.5896 62.2001C95.1696 64.9001 99.4696 69.0921 102.698 69.0921C96.2136 71.9561 91.5497 78.9481 107.178 76.6761C107.69 82.1601 109.302 88.6321 119.806 84.3961C121.002 85.5921 122.758 86.4481 122.758 86.4481L122.754 86.4441Z" fill="#FBE5BF"/>
<path d="M126.607 68.6094C126.607 68.6094 124.303 78.5934 120.363 83.3454C125.491 88.4734 148.811 104.621 152.563 99.3894C156.315 94.1614 151.811 80.0294 126.603 68.6094H126.607Z" fill="#D8A068"/>
<path d="M112.785 119.781C112.785 119.781 153.689 122.173 154.193 97.5365C154.193 78.0445 123.817 66.6605 123.817 66.6605C119.253 57.3205 110.989 57.4005 108.589 61.6005C106.905 64.5445 109.429 70.7085 112.789 69.3965C115.337 68.4005 114.289 65.7965 114.289 65.7965" stroke="#3F220F" stroke-width="3.6" stroke-linecap="round" stroke-linejoin="round"/>
<path d="M107.986 63.3963C107.986 63.3963 99.29 59.4963 96.59 62.1963C93.89 64.8963 100.49 68.4963 104.386 69.6923C96.2901 70.8923 95.09 74.4923 96.89 76.2923C98.69 78.0923 107.686 76.5923 107.686 76.5923" stroke="#3F220F" stroke-width="3.6" stroke-linecap="round" stroke-linejoin="round"/>
<path d="M119.381 75.3935C119.381 75.3935 114.881 71.7935 114.881 77.1935C114.881 71.7935 110.197 69.2015 107.685 76.5935C105.173 83.9855 114.625 87.1775 119.381 84.3895C130.177 90.9895 134.557 96.3855 134.557 96.3855" stroke="#3F220F" stroke-width="3.6" stroke-linecap="round" stroke-linejoin="round"/>
<path d="M113.094 96.8036C113.094 96.8036 125.198 97.9396 132.742 94.3516" stroke="#3F220F" stroke-width="3.6" stroke-linecap="round" stroke-linejoin="round"/>
<path d="M40.1347 64.4531C39.9387 67.9851 42.7425 71.0131 46.3985 71.2171C50.0585 71.4211 53.1787 68.7211 53.3747 65.1851C53.5707 61.6491 50.7626 58.6211 47.1066 58.4171C43.4546 58.2131 40.3266 60.9131 40.1306 64.4491L40.1347 64.4531Z" fill="#F29F8F"/>
<path d="M31.8549 87.2005C31.8549 87.2005 23.239 77.7445 22.627 71.6725C26.287 69.6245 28.027 68.7445 28.027 68.7445C28.027 68.7445 33.2588 57.9885 37.6908 58.6085C42.1228 59.2245 43.3148 61.6365 43.3148 61.6365C43.3148 61.6365 51.8589 56.5725 53.7029 59.0045C55.5469 61.4365 51.9868 66.2725 48.8068 66.8005C55.6708 68.5685 61.4189 74.7005 45.627 75.0165C46.019 80.5085 45.4869 87.1565 34.4309 84.6965C33.4469 86.0725 31.851 87.2045 31.851 87.2045L31.8549 87.2005Z" fill="#FBE5BF"/>
<path d="M25.1384 70.2324C25.1384 70.2324 29.0424 79.7044 33.7064 83.7484C29.4864 89.6444 9.11844 109.388 4.56244 104.844C0.00644374 100.3 2.13842 85.6244 25.1384 70.2324Z" fill="#D8A068"/>
<path d="M45.3784 120.356C45.3784 120.356 7.17438 127.504 2.65438 103.284C-0.533615 84.0524 27.5745 67.8564 27.5745 67.8564C30.5505 57.8964 38.7184 56.6244 41.7704 60.3724C43.9144 63.0044 42.4304 69.4964 38.9024 68.7524C36.2264 68.1884 36.8345 65.4484 36.8345 65.4484" stroke="#3F220F" stroke-width="3.6" stroke-linecap="round" stroke-linejoin="round"/>
<path d="M42.6582 62.049C42.6582 62.049 50.6021 56.781 53.7061 59.001C56.8101 61.221 50.8901 65.853 47.2381 67.673C55.4221 67.533 57.1941 70.889 55.7141 72.957C54.2341 75.025 45.1102 75.017 45.1102 75.017" stroke="#3F220F" stroke-width="3.6" stroke-linecap="round" stroke-linejoin="round"/>
<path d="M33.374 75.7477C33.374 75.7477 37.2219 71.4637 38.1059 76.7877C37.2219 71.4637 41.422 68.1357 45.11 75.0197C48.798 81.9037 39.9939 86.5997 34.8459 84.6237C25.2739 92.8997 21.834 98.9397 21.834 98.9397" stroke="#3F220F" stroke-width="3.6" stroke-linecap="round" stroke-linejoin="round"/>
<path d="M5.40586 46.7285C10.0099 51.2965 13.7979 51.6885 17.1979 50.7245C11.3659 56.0565 13.026 61.2645 13.602 63.3045C12.154 58.2045 1.50586 58.8605 1.50586 58.8605C6.46186 55.6125 6.27386 49.7885 5.40586 46.7285Z" fill="#F1E534"/>
<path d="M9.27793 50.0375C9.27793 50.0375 8.58186 57.8775 5.70586 58.3655C3.12586 58.7055 1.75391 57.6895 1.75391 57.6895C1.75391 57.6895 6.50187 53.2015 6.02187 49.5215C8.07387 50.5015 9.27793 50.0375 9.27793 50.0375Z" fill="white"/>
<path d="M5.40586 46.7285C10.0099 51.2965 13.7979 51.6885 17.1979 50.7245C12.4899 55.4085 13.026 61.2645 13.602 63.3045C9.29795 57.9885 1.50586 58.8605 1.50586 58.8605C4.91386 55.6405 6.27386 49.7885 5.40586 46.7285Z" stroke="#F0AA3F" stroke-width="3.012" stroke-linecap="round" stroke-linejoin="round"/>
<path d="M131.466 30.0918C131.73 35.9678 134.01 38.5518 136.87 39.9998C129.706 39.9718 127.614 44.4638 126.746 46.1798C128.91 41.8918 121.414 35.7838 121.414 35.7838C126.71 36.6638 130.166 32.6678 131.466 30.0918Z" fill="#F1E534"/>
<path d="M132.015 34.6721C132.015 34.6721 126.735 39.4681 124.519 38.0281C122.591 36.6721 122.303 35.1521 122.303 35.1521C122.303 35.1521 128.223 35.0761 130.163 32.3281C130.931 34.2401 132.015 34.6721 132.015 34.6721Z" fill="white"/>
<path d="M131.466 30.0918C131.73 35.9678 134.01 38.5518 136.87 39.9998C130.858 40.2278 127.614 44.4638 126.746 46.1798C127.142 39.9918 121.414 35.7838 121.414 35.7838C125.662 35.7318 130.166 32.6678 131.466 30.0918Z" stroke="#F0AA3F" stroke-width="3.012" stroke-linecap="round" stroke-linejoin="round"/>
<path d="M142.642 49.9492C141.15 54.0732 141.99 56.5052 143.55 58.3172C138.622 56.2572 135.898 58.7572 134.814 59.6932C137.526 57.3532 134.098 51.0092 134.098 51.0092C137.498 53.1252 141.018 51.3532 142.646 49.9492H142.642Z" fill="#F1E534"/>
<path d="M141.715 53.2661C141.715 53.2661 136.711 55.0701 135.591 53.4461C134.651 51.9621 134.883 50.8301 134.883 50.8301C134.883 50.8301 138.987 52.4661 141.103 51.1221C141.087 52.6581 141.711 53.2661 141.711 53.2661H141.715Z" fill="white"/>
<path d="M142.642 49.9492C141.15 54.0732 141.99 56.5052 143.55 58.3172C139.338 56.7652 135.898 58.7572 134.814 59.6932C136.85 55.5412 134.098 51.0092 134.098 51.0092C137.046 52.1812 141.018 51.3532 142.646 49.9492H142.642Z" stroke="#F0AA3F" stroke-width="2.308" stroke-linecap="round" stroke-linejoin="round"/>
</svg>
