<svg width="168" height="220" viewBox="0 0 168 220" fill="none" xmlns="http://www.w3.org/2000/svg">
<path d="M150.355 200.17C166.899 203.881 175.292 210.037 145.154 215.234C110.08 221.28 82.4625 220.41 55.4456 216.304C28.4236 212.198 -1.90932 203.276 37.6409 194.218C78.6415 189.452 150.355 200.165 150.355 200.165V200.17Z" fill="#C8C9CA"/>
<path d="M1.99707 98.8315C15.2005 108.009 14.4303 105.698 5.418 151.485C0.776799 175.061 24.2679 196.112 48.9943 189.62C68.8845 187.014 89.4697 166.809 78.812 135.216C68.3793 104.288 34.9256 90.9845 1.99707 98.8315Z" fill="#D8A068"/>
<g style="mix-blend-mode:multiply" opacity="0.5">
<path d="M45.7459 177.675C44.6256 176.58 17.7636 180.946 7.611 164.102C3.99507 170.043 15.9731 185.757 25.2155 187.863C34.4579 189.968 45.7459 177.67 45.7459 177.67V177.675Z" fill="#E0AE77"/>
</g>
<path d="M6.50522 143.86C19.7336 108.411 9.01086 102.449 2.36914 99.3882C21.019 91.9963 44.135 97.6876 65.1105 110.741C65.3655 111.316 65.6055 111.887 65.8306 112.452C74.5829 134.817 55.648 149.836 37.3232 132.697C41.1792 153.412 12.4768 167.056 6.50021 143.86H6.50522Z" fill="#FFE8C2"/>
<path d="M2.36914 99.3819C22.8044 108.964 7.94563 128.219 5.79007 152.036C3.2144 180.533 24.64 196.667 49.3664 190.175C69.2565 187.57 90.1569 167.26 79.184 135.771C66.5158 99.422 31.1766 93.1404 2.37415 99.387L2.36914 99.3819Z" stroke="#3F220F" stroke-width="4.50116" stroke-linecap="round" stroke-linejoin="round"/>
<path d="M142.553 184.086C142.553 184.086 158.193 186.742 163.149 196.064C168.105 205.387 165.144 210.923 149.65 207.062C134.997 211.668 108.495 215.664 101.248 194.734C95.0863 204.741 90.425 212.118 69.3196 212.363C54.9708 212.529 35.1058 201.161 35.1058 201.161C35.1058 201.161 29.0892 208.688 21.6822 206.792C14.2753 204.892 20.3919 193.294 26.5335 187.007C32.6751 180.72 45.1933 179.045 51.9601 180.705C59.9922 179.325 114.381 177.064 135.372 178.32C140.648 178.635 142.553 184.086 142.553 184.086Z" fill="#D8A068"/>
<path d="M32.1768 183.363C32.8169 183.353 24.9049 189.835 33.2371 203.073C25.9652 210.515 20.1587 207.545 17.9231 203.198C15.6875 198.852 26.7103 183.428 32.1718 183.368L32.1768 183.363Z" fill="#FFE8C2"/>
<path d="M145.141 188.577C145.141 188.577 150.402 201.116 146.376 207.447C149.657 207.062 150.742 206.852 150.742 206.852C150.742 206.852 163.095 212.174 164.095 203.966C165.096 195.759 153.083 183.811 145.141 188.582V188.577Z" fill="#FFE8C2"/>
<path d="M135.946 133.864L125.233 136.12L131.255 172.184L143.153 184.953L152.04 186.083C152.04 186.083 152.695 179.016 148.559 172.059C144.423 165.102 139.747 143.402 139.747 143.402L135.951 133.859L135.946 133.864Z" fill="#D8A068"/>
<path d="M149.014 175.18C149.014 175.18 143.098 178.991 138.156 179.046C139.822 183.482 142.587 186.183 142.587 186.183L152.86 187.298C152.86 187.298 151.365 177.475 149.019 175.18H149.014Z" fill="#FFE8C2"/>
<path d="M140.676 181.691C140.676 181.691 119.821 179.345 101.246 194.734C101.246 194.734 88.7527 184.952 49.8576 182.791C47.9321 178.85 46.7168 175.384 46.7168 175.384L127.888 170.828C127.888 170.828 140.601 175.004 140.681 181.691H140.676Z" fill="#3F99C2"/>
<path d="M130.15 173.31C130.15 173.31 109.954 190.36 48.9537 176.316C42.1369 160.542 44.3174 143.297 51.1342 129.999C60.3916 104.872 70.9744 95.5352 70.9744 95.5352L118.992 103.092C118.992 103.092 131.16 163.643 130.145 173.315L130.15 173.31Z" fill="#FF6673" stroke="#EA5514" stroke-width="0.500129" stroke-miterlimit="10"/>
<path d="M114.37 144.357L100.522 144.172C97.9911 144.137 95.8606 146.197 95.8106 148.798C95.7605 151.424 97.8511 153.539 100.442 153.489L103.338 153.434C101.722 154.829 99.6966 155.625 97.5161 155.685C92.2297 155.825 87.9436 151.534 88.1336 146.227C88.3187 141.046 92.7247 137.075 97.791 137.26C100.187 137.345 102.392 138.335 104.038 140.04C106.603 142.696 110.664 142.771 113.065 140.291C115.396 137.88 115.296 133.929 112.89 131.378C108.994 127.262 103.753 124.727 97.9862 124.256C85.3129 123.226 73.4148 132.684 72.4595 146.137C71.4393 160.451 83.1323 171.814 97.2909 170.709C102.172 170.328 106.778 168.413 110.474 165.397C110.599 167.993 112.58 169.938 114.946 169.748C117.326 169.558 119.157 167.278 119.072 164.682L118.566 148.733C118.491 146.332 116.631 144.387 114.37 144.357Z" fill="#FFFF00"/>
<path d="M123.4 110.189C123.4 110.189 105.566 133.11 71.4718 114.36C74.8727 101.481 68.666 101.801 68.666 101.801L123.4 110.184V110.189Z" fill="#ED5668"/>
<path d="M137.985 135.069C137.985 135.069 128.362 140.331 122.361 139.055C122.226 127.387 118.63 103.461 118.63 103.461C118.63 103.461 133.409 113.049 137.98 135.069H137.985Z" fill="#FF6673"/>
<path d="M116.579 101.262C134.724 109.549 138.21 135.521 141.601 153.005C144.986 170.485 155.659 179.757 152.853 187.304" stroke="#3F220F" stroke-width="4.50116" stroke-linecap="round" stroke-linejoin="round"/>
<path d="M122.566 124.137C123.912 144.817 130.984 162.136 130.153 173.309C130.153 173.309 144.037 180.051 146.848 193.82" stroke="#3F220F" stroke-width="4.50116" stroke-linecap="round" stroke-linejoin="round"/>
<path d="M144.056 186.178C144.056 186.178 152.283 184.438 160.1 192.08C167.617 199.427 168.857 214.811 149.652 207.064C128.497 214.211 101.4 212.4 101.175 192.76" stroke="#3F220F" stroke-width="4.50116" stroke-linecap="round" stroke-linejoin="round"/>
<path d="M32.2402 199.925C38.6819 206.221 55.2161 212.668 74.061 212.448C99.1024 212.158 101.178 192.758 101.178 192.758" stroke="#3F220F" stroke-width="4.50116" stroke-linecap="round" stroke-linejoin="round"/>
<path d="M34.4199 201.862C34.4199 201.862 28.8884 210.159 21.6866 206.793C10.2136 201.432 30.0838 175.06 48.7336 180.682C42.377 167.223 45.2126 151.859 50.0489 132.824" stroke="#3F220F" stroke-width="4.50116" stroke-linecap="round" stroke-linejoin="round"/>
<path d="M51.4196 93.3438C51.4196 93.3438 41.8872 97.665 38.8714 111.259C35.8556 124.847 38.1012 135.44 55.1106 137.37C58.1364 123.532 51.4196 93.3489 51.4196 93.3489V93.3438Z" fill="#D8A068"/>
<path d="M126.342 47.6365C143.702 40.1296 140.706 17.6738 135.595 3C128.413 5.41562 114.079 6.93596 108.783 20.9446C104.672 31.7974 118.035 51.2273 126.347 47.6314L126.342 47.6365Z" fill="#D8A068"/>
<path d="M132.043 12.207C132.043 12.207 136.644 34.5929 125.021 38.2838C115.548 32.7674 112.968 23.9952 112.968 23.9952C112.968 23.9952 119.669 12.6121 132.043 12.207Z" fill="#FFE8C2"/>
<path d="M138.247 21.4747C138.247 21.4747 135.307 13.7178 132.296 9.05161C124.799 8.82155 117.172 10.4968 114.901 11.9022C129.48 4.75035 135.587 3 135.587 3C135.587 3 138.993 18.2289 138.247 21.4747Z" fill="#3F220F"/>
<path d="M126.341 47.6365C143.7 40.1296 140.704 17.6738 135.593 3C128.411 5.41562 112.377 9.07654 107.071 23.1002C102.96 33.968 118.034 51.2273 126.346 47.6314L126.341 47.6365Z" stroke="#3F220F" stroke-width="4.50116" stroke-linecap="round" stroke-linejoin="round"/>
<path d="M107.632 25.1361C110.028 28.1918 126.822 25.3063 126.822 25.3063C126.822 25.3063 122.806 5.77611 118.915 6.56632C114.984 7.36652 104.171 20.71 107.632 25.1412V25.1361Z" fill="#FCEE21" stroke="#3F220F" stroke-width="4.50116" stroke-linecap="round" stroke-linejoin="round"/>
<path d="M133.427 40.7688C130.226 40.2637 127.561 25.7999 127.561 25.7999C127.561 25.7999 145.31 23.0242 145.405 26.32C145.5 29.5109 137.723 41.4389 133.422 40.7637L133.427 40.7688Z" fill="#FCEE21" stroke="#3F220F" stroke-width="4.50116" stroke-linecap="round" stroke-linejoin="round"/>
<path d="M121.84 24.6552C120.17 27.0258 120.65 30.0567 122.845 31.4221C124.986 32.7524 128.002 32.0171 129.652 29.7815L132.448 25.9856C134.153 23.67 133.888 20.5542 131.783 19.0238C129.622 17.4484 126.411 18.1635 124.676 20.6241L121.84 24.6552Z" fill="#FCEE21" stroke="#3F220F" stroke-width="4.50116" stroke-linecap="round" stroke-linejoin="round"/>
<path d="M136.571 29.7331L131.25 29.043L133.876 32.4538" stroke="#3F220F" stroke-width="2.50065" stroke-linecap="round" stroke-linejoin="round"/>
<path d="M119.861 18.0234L123.112 22.8445L118.15 21.5993" stroke="#3F220F" stroke-width="2.50065" stroke-linecap="round" stroke-linejoin="round"/>
<path d="M67.1281 46.02C48.9784 41.9389 48.2181 19.2179 50.7938 3.75391C58.1907 4.73916 72.4294 3.44896 79.9113 16.2723C85.7128 26.2098 75.8304 47.9755 67.1281 46.02Z" fill="#D8A068"/>
<path d="M56.576 11.34C56.576 11.34 55.7658 34.3211 67.7039 35.7265C76.0461 28.4596 77.1364 19.2872 77.1364 19.2872C77.1364 19.2872 68.7142 9.33952 56.576 11.34Z" fill="#FFE8C2"/>
<path d="M51.2278 22.4926C51.2278 22.4926 52.8182 14.2705 54.9938 9.08414C62.2657 7.40371 69.9876 7.57369 72.4332 8.52394C57.0292 4.29284 50.7926 3.75781 50.7926 3.75781C50.7926 3.75781 49.9675 19.4417 51.2278 22.4975V22.4926Z" fill="#3F220F"/>
<path d="M59.7364 42.754C48.8285 34.8769 48.6384 16.7573 50.804 3.75391C58.2009 4.73916 74.4551 5.23423 81.9471 18.0725C87.7586 28.0201 75.8405 47.9805 67.1383 46.02C64.2526 45.3698 61.8019 44.2494 59.7364 42.754Z" stroke="#3F220F" stroke-width="4.00103" stroke-linecap="round" stroke-linejoin="round"/>
<path d="M91.9727 114.644C62.3001 114.824 42.53 100.9 29.7617 85.4415C51.7874 78.6147 35.6682 23.6605 86.6514 15.9435C147.937 14.7482 131.778 74.3386 154.584 77.6995C143.941 95.0239 138.75 112.213 91.9727 114.649V114.644Z" fill="#D8A068"/>
<path d="M132.947 57.3837C133.887 60.6596 131.347 64.2657 127.266 65.441C123.189 66.6163 119.118 64.9058 118.173 61.63C117.233 58.3541 119.774 54.748 123.85 53.5727C127.926 52.4024 131.997 54.1029 132.942 57.3837H132.947Z" fill="#FFA492"/>
<path d="M154.306 78.1791C148.155 83.7705 132.876 83.3103 126.684 72.1375C123.878 67.9314 118.152 57.7338 106.319 57.5287C93.0804 55.6932 81.4824 62.8952 75.7259 72.8728C69.2843 81.7651 48.4839 92.4379 29.459 85.9262C48.2938 104.766 63.8278 117.384 102.668 114.373C142.393 111.298 150.32 90.4872 154.306 78.1791Z" fill="#FFE8C2"/>
<g style="mix-blend-mode:multiply" opacity="0.5">
<path d="M113.191 17.9144C116.246 29.7525 105.744 38.6298 97.5116 33.0333C91.1049 36.3242 86.8638 30.1226 86.8638 30.1226C77.9465 36.2342 73.8904 23.3509 76.9412 20.6202C79.992 17.8845 111.98 13.2282 113.186 17.9144H113.191Z" fill="#DAAA75"/>
</g>
<path d="M97.793 115.643C69.6358 115.908 42.7839 101.415 30.0156 85.9456C51.6912 73.0323 36.5173 26.0951 84.2796 16.7727C144.115 12.6516 129.696 60.754 154.868 78.1985C148.811 96.6882 125.995 115.908 97.798 115.643H97.793Z" stroke="#3F220F" stroke-width="4.50116" stroke-linecap="round" stroke-linejoin="round"/>
<path d="M100.743 28.7111C96.2821 32.282 91.0107 29.7365 90.4956 26.3406C85.4443 30.8168 77.4422 26.2605 82.6685 16.9781C88.0149 7.47564 103.859 6.35545 110.651 12.0769C119.858 19.8289 110.136 35.453 100.738 28.7162L100.743 28.7111Z" fill="#754C24" stroke="#3F220F" stroke-width="4.50116" stroke-linecap="round" stroke-linejoin="round"/>
<path d="M103.813 20.1055C103.813 20.1055 104.928 27.3223 99.417 29.5879L103.813 20.1055Z" fill="#C69C6D"/>
<path d="M103.813 20.1055C103.813 20.1055 104.928 27.3223 99.417 29.5879" stroke="#3F220F" stroke-width="4.50116" stroke-linecap="round" stroke-linejoin="round"/>
<path d="M93.2756 20.0156C93.2756 20.0156 92.6103 26.9322 87.334 27.9625L93.2756 20.0156Z" fill="#C69C6D"/>
<path d="M93.2756 20.0156C93.2756 20.0156 92.6103 26.9322 87.334 27.9625" stroke="#3F220F" stroke-width="4.50116" stroke-linecap="round" stroke-linejoin="round"/>
<g style="mix-blend-mode:multiply" opacity="0.5">
<path d="M86.3735 48.7039C86.3135 50.7344 92.335 52.55 99.8169 52.7701C107.299 52.9852 113.41 51.5146 113.47 49.4841C113.53 47.4536 107.509 45.6333 100.027 45.4232C92.5451 45.2082 86.4335 46.6785 86.3735 48.709V48.7039Z" fill="#E0AE77"/>
</g>
<g style="mix-blend-mode:multiply" opacity="0.3">
<path d="M106.681 105.13C106.681 105.13 101.825 113.312 90.7972 111.012C80.7346 108.911 81.7898 93.6325 84.5256 89.5664C90.082 89.7264 106.681 105.13 106.681 105.13Z" fill="#DAAA75"/>
</g>
<path d="M104.896 62.0977L103.926 69.8147" stroke="#3F220F" stroke-width="3.00078" stroke-miterlimit="10" stroke-linecap="round"/>
<path d="M105.159 55.941C112.126 56.126 113.527 59.0917 110.536 61.4874C107.55 63.878 103.569 64.8934 99.1679 61.1775C94.8318 57.5165 100.208 55.806 105.159 55.941Z" fill="#FFA492" stroke="#3F220F" stroke-width="3.00078" stroke-miterlimit="10" stroke-linecap="round"/>
<path d="M104.947 68.3749C113.089 69.6652 114.16 78.1374 113.865 88.37C113.57 98.6027 110.664 108.26 97.3204 107.175C85.4824 106.21 81.8565 99.2078 87.2228 85.1092C91.549 73.7413 97.2354 67.1547 104.942 68.38L104.947 68.3749Z" fill="#E83A47"/>
<path d="M114.329 84.5199C114.004 78.7885 107.443 77.0079 104.557 79.7336C101.671 82.4543 106.007 86.1704 101.156 88.0309C95.6848 90.1314 93.4942 85.0049 95.6347 80.2537C97.7753 75.5075 92.2889 76.4628 90.1533 78.6034C97.2151 69.561 106.097 63.6346 110.313 70.6814C114.53 77.7332 114.334 84.5199 114.334 84.5199H114.329Z" fill="#D70934"/>
<path d="M86.2339 90.331C92.8807 86.8751 97.4768 89.9311 99.4123 93.7921C104.374 90.8163 110.175 94.042 110.69 100.769C106.284 109.111 99.5523 108.776 94.0709 107.906C88.5895 107.035 84.0384 97.6479 86.2339 90.331Z" fill="#FFA492"/>
<path d="M109.89 71.4701C109.89 71.4701 108.315 78.837 102.488 77.8868C96.6618 76.9366 98.4372 70.525 98.4372 70.525C98.4372 70.525 105.789 64.9134 109.89 71.4701Z" fill="white"/>
<path d="M104.947 68.3749C113.089 69.6652 114.93 80.503 113.865 88.37C112.494 98.5177 110.664 108.26 97.3204 107.175C85.4824 106.21 81.8565 99.2078 87.2228 85.1092C91.549 73.7413 97.2354 67.1547 104.942 68.38L104.947 68.3749Z" stroke="#3F220F" stroke-width="3.00078" stroke-miterlimit="10" stroke-linecap="round"/>
<path d="M88.8047 47.1797C88.8047 47.1797 93.2959 47.3097 95.7215 49.8803C95.7215 49.8803 92.1206 47.7849 88.8698 50.8557" stroke="#3F220F" stroke-width="2.50065" stroke-linecap="round" stroke-linejoin="round"/>
<path d="M112.187 47.7031C112.187 47.7031 108.976 48.4183 107.306 49.9938C108.941 49.5236 112.022 51.1291 112.022 51.1291" stroke="#3F220F" stroke-width="2.50065" stroke-linecap="round" stroke-linejoin="round"/>
<path d="M92.8783 37.0664C92.8783 37.0664 90.9728 39.9872 86.2266 39.8472" stroke="#3F220F" stroke-width="3.00078" stroke-linecap="round" stroke-linejoin="round"/>
<path d="M113.755 41.0587C113.755 41.0587 108.519 40.6585 107.599 37.8828" stroke="#3F220F" stroke-width="3.00078" stroke-linecap="round" stroke-linejoin="round"/>
<path d="M62.9347 57.616C62.3545 60.9719 65.2803 64.2828 69.4614 65.0029C73.6424 65.7231 77.4984 63.5825 78.0786 60.2217C78.6587 56.8608 75.738 53.5549 71.5569 52.8348C67.3758 52.1146 63.5148 54.2551 62.9347 57.616Z" fill="#FFA492"/>
<path opacity="0.8" d="M111.163 49.8431C111.163 51.0084 112.379 51.9536 113.864 51.9486C115.354 51.9486 116.56 50.9985 116.56 49.8282C116.56 48.6629 115.344 47.7177 113.854 47.7227C112.364 47.7227 111.158 48.6728 111.158 49.8431H111.163Z" fill="white"/>
<path opacity="0.8" d="M86.0645 49.2598C86.0645 50.3251 87.2797 51.1903 88.7751 51.1853C90.2705 51.1853 91.4809 50.3151 91.4759 49.2498C91.4759 48.1845 90.2606 47.3192 88.7652 47.3242C87.2698 47.3242 86.0645 48.1945 86.0645 49.2598Z" fill="white"/>
<path opacity="0.8" d="M84.6006 49.1134C81.6998 42.9618 73.9628 44.0721 69.2715 50.5837C65.1055 56.3602 58.7739 52.3494 54.1077 53.9198C49.4415 55.4852 50.5317 63.8723 58.7889 59.8212C64.3303 57.1055 66.2508 58.9409 70.5369 55.9902C72.8725 54.3848 73.1876 51.009 75.033 49.4836C80.3794 45.0775 84.6006 50.8588 84.6006 49.1134Z" fill="white"/>
<path opacity="0.8" d="M117.562 48.1124C121.788 45.4067 126.609 48.0475 126.844 51.1533C127.079 54.2591 132.185 55.7395 136.727 53.839C141.263 51.9335 146.844 59.6255 140.468 61.9861C137.332 63.1464 135.201 60.0805 132.24 58.9802C129.175 57.8399 127.029 59.3005 124.714 56.0046C123.848 54.7693 124.073 52.7487 123.618 51.6534C121.698 47.0072 118.437 48.9928 117.557 48.1176L117.562 48.1124Z" fill="white"/>
<path opacity="0.8" d="M140.931 48.1631C143.332 48.8232 142.852 51.414 140.366 51.419C137.875 51.424 137.485 47.2128 140.931 48.1631Z" fill="white"/>
<path opacity="0.8" d="M54.2031 63.0781C57.459 63.0731 58.7393 68.2597 52.6827 67.6745C49.2818 67.3444 50.9523 63.0831 54.2031 63.0781Z" fill="white"/>
<path opacity="0.8" d="M138.732 64.9539C140.402 65.5291 140.742 68.8351 137.912 68.1349C135.086 67.4347 136.021 64.0187 138.732 64.9539Z" fill="white"/>
<path opacity="0.8" d="M63.3695 47.2168C66.0302 47.5269 65.0998 50.4677 62.7992 50.4727C60.5037 50.4727 60.5387 46.8867 63.3695 47.2168Z" fill="white"/>
<path d="M78.264 73.9175C78.264 73.9175 82.6952 135.984 62.0299 139.41C41.3645 142.835 46.4809 110.632 49.2066 98.724C51.9323 86.8159 58.8891 70.7669 64.2905 68.9414C71.3573 71.6021 78.2441 72.327 78.2441 72.327" fill="#D8A068"/>
<path d="M42.9481 99.9062L47.5993 103.402L48.4295 110.349C48.4295 110.349 37.1416 120.567 42.8631 133.685C36.9816 123.802 30.1798 114.195 42.9481 99.9114V99.9062Z" fill="#FF6673"/>
<path d="M78.3125 77.6344C78.3125 77.6344 69.6603 67.2265 61.2031 69.127C69.9054 57.569 78.8876 58.7794 84.5291 64.2908C90.1656 69.8023 78.3125 77.6344 78.3125 77.6344Z" fill="#FFE8C2"/>
<path d="M43.4244 100.877C27.8654 116.436 40.2636 145.238 62.0342 139.412C77.7483 135.211 81.2392 101.497 78.3084 77.6358C87.3108 75.4102 91.8619 65.7227 85.0201 61.1015C71.1065 51.7041 48.0156 74.8 48.4307 110.899" stroke="#3F220F" stroke-width="4.50116" stroke-linecap="round" stroke-linejoin="round"/>
</svg>
