<svg width="181" height="179" viewBox="0 0 181 179" fill="none" xmlns="http://www.w3.org/2000/svg">
<path d="M129.656 103.298C129.656 103.298 136.704 114.278 146.492 116.442C156.28 118.61 162.26 110.334 163.532 102.926C160.292 99.1377 152.616 97.6777 152.616 97.6777L148.404 102.246L137.592 90.0977L129.724 102.466" fill="#D8A068"/>
<path d="M143.344 98.2281C143.344 98.2281 134.928 103.356 134.5 108.848C132.408 102.908 133.272 100.208 133.272 100.208L139.028 91.8281L143.344 98.2281Z" fill="#FF6673"/>
<path d="M151.696 99.1789C151.772 98.1869 150.616 105.859 162.996 104.399C167.428 96.8829 165.9 94.1589 162.728 92.1309C159.552 90.1029 151.468 102.091 151.696 99.1789Z" fill="#FFE8C2"/>
<path d="M140.008 92.9312L148.4 102.247C148.4 102.247 155.352 89.6752 161.692 92.2552C171.12 96.0952 161.1 117.835 149.032 116.891C140.92 116.259 133.536 107.839 133.536 107.839" stroke="#3F220F" stroke-width="3.6" stroke-linecap="round" stroke-linejoin="round"/>
<path d="M159.453 98.3946C157.849 97.3786 155.545 98.0906 155.937 99.6706C156.329 101.255 158.213 100.987 158.213 100.987C158.513 102.459 160.853 102.955 160.961 101.615C161.065 100.279 161.129 99.4546 159.453 98.3906V98.3946Z" fill="#D8A068"/>
<path d="M161.001 95.822C159.937 95.338 158.817 97.3061 159.913 97.8061C161.013 98.3061 162.097 96.322 161.001 95.822Z" fill="#D8A068"/>
<path d="M158.761 95.3392C157.649 94.7912 156.773 96.9432 157.801 97.0232C158.829 97.1032 159.757 95.8312 158.761 95.3392Z" fill="#D8A068"/>
<path d="M162.7 97.9204C161.94 97.0324 161.125 98.8844 161.645 99.4924C162.165 100.1 163.268 98.5844 162.7 97.9204Z" fill="#D8A068"/>
<path d="M39.0297 1.70113C63.5097 -3.21487 91.3858 2.18913 95.0738 22.3011C99.1858 44.7411 78.8537 49.8251 70.7057 51.3171C66.7017 52.0491 66.3857 51.8291 61.1017 53.0691C60.2177 54.3531 60.9618 57.5291 63.2778 59.5611C63.5698 59.8171 63.2777 60.0611 63.0017 60.0371C57.4177 59.5411 55.9417 55.8771 55.2017 53.6371C47.1417 54.0971 32.9457 60.3771 22.4137 60.7051C8.97372 61.1251 1.46577 54.6571 0.26177 45.4891C-2.29823 26.0291 14.3097 6.66913 39.0377 1.70113H39.0297Z" fill="#F39800"/>
<path d="M34.4688 72.6215C45.4768 75.2695 46.9247 79.1255 48.2207 109.422C49.1287 130.706 71.2488 137.19 87.4808 127.246C101.101 121.114 111.433 102.29 97.0487 82.0535C82.9647 62.2455 56.2568 59.9495 34.4688 72.6175V72.6215Z" fill="#D8A068"/>
<g style="mix-blend-mode:multiply" opacity="0.5">
<path d="M82.6006 119.425C81.5686 118.885 63.3526 127.769 52.5006 117.941C51.1966 122.953 63.1166 131.585 70.1566 131.101C77.1966 130.617 82.6046 119.425 82.6046 119.425H82.6006Z" fill="#E0AE77"/>
</g>
<path d="M47.3609 103.75C46.9289 79.1262 45.4769 75.7503 34.8569 72.9343C46.5649 63.6583 64.2649 62.7502 82.0249 67.5462C82.3329 67.9022 82.6249 68.2582 82.9049 68.6142C93.9529 82.6782 83.6809 97.4542 66.9329 89.1702C74.1289 103.11 56.6009 119.002 47.3569 103.75H47.3609Z" fill="#FFE8C2"/>
<path d="M34.8569 72.9333C51.4849 75.3733 45.0249 92.2933 48.6089 109.733C52.8929 130.601 71.6369 137.501 87.8689 127.557C101.489 121.425 112.025 102.453 97.4369 82.3653C80.5929 59.1733 54.0529 62.2893 34.8609 72.9293L34.8569 72.9333Z" stroke="#3F220F" stroke-width="3.6" stroke-linecap="round" stroke-linejoin="round"/>
<path d="M136.093 170.359C136.093 174.683 121.897 178.191 104.385 178.191C86.8732 178.191 72.6772 174.687 72.6772 170.359C72.6772 166.031 86.8732 162.531 104.385 162.531C121.897 162.531 136.093 166.035 136.093 170.359Z" fill="#C8C9CA"/>
<path d="M83.8536 141.719C83.8536 141.719 89.7856 153.319 89.1376 160.471C101.058 165.307 119.098 160.915 119.098 160.915C119.098 160.915 126.774 149.063 126.774 141.331C126.774 133.599 83.8496 141.719 83.8496 141.719H83.8536Z" fill="#D8A068"/>
<path d="M89.8456 157.57C89.8456 157.57 100.498 160.93 107.062 158.282C111.886 160.274 116.658 160.622 119.782 158.998C118.574 160.526 118.574 161.434 118.574 161.434C118.574 161.434 124.062 163.322 121.318 167.598C118.574 171.874 109.758 168.782 109.758 168.782C109.758 168.782 105.81 173.762 97.8256 172.046C89.8416 170.33 88.1816 167.026 89.0136 163.166C89.8416 159.306 89.8416 157.566 89.8416 157.566L89.8456 157.57Z" fill="#FFE8C2"/>
<path d="M82.7812 140.595C83.0692 140.991 83.3692 141.391 83.6732 141.787C90.1092 150.755 89.0812 161.911 89.0812 161.911C88.7252 166.779 90.8132 171.395 99.2452 172.199C109.217 173.151 109.425 168.915 109.425 168.915C112.165 170.011 118.277 170.867 120.757 168.387C122.285 166.859 122.445 163.167 118.577 160.527C123.577 154.539 126.589 147.383 128.093 140.055" stroke="#3F220F" stroke-width="3.6" stroke-linecap="round" stroke-linejoin="round"/>
<path d="M109.117 169.765C110.961 165.645 105.713 161.329 105.713 161.329C105.713 161.329 110.313 153.973 107.553 142.477" stroke="#3F220F" stroke-width="3.6" stroke-linecap="round" stroke-linejoin="round"/>
<path d="M74.6012 107.055C74.6012 107.055 68.1773 125.507 78.1493 138.959C98.8213 142.787 118.477 146.111 133.805 140.771C128.809 125.379 126.845 115.179 126.845 115.179L75.2012 107.659" fill="#3F99C2"/>
<path d="M74.2532 106.477C74.2532 106.477 67.5772 123.553 78.1492 138.961C92.6932 143.801 116.345 147.393 133.805 140.773C131.097 134.393 127.709 119.317 127.709 119.317" stroke="#3F220F" stroke-width="3.6" stroke-linecap="round" stroke-linejoin="round"/>
<path d="M106.753 66.8517C97.2213 69.2837 70.6293 88.7757 74.3213 111.008C76.6453 125.016 117.053 139.152 126.865 121.376C136.677 103.604 135.185 93.1077 142.209 90.4277C133.757 81.9877 106.757 66.8477 106.757 66.8477L106.753 66.8517Z" fill="#FF6673"/>
<path d="M129.973 112.34L122.901 110.704C121.533 110.388 119.877 111.4 119.249 112.968C118.621 114.536 119.289 115.984 120.689 116.204L122.229 116.444C121.065 117.088 119.809 117.36 118.625 117.196C115.681 116.788 114.173 113.78 115.469 110.512C116.773 107.224 120.281 105.244 123.093 106.068C124.385 106.444 125.333 107.352 125.785 108.612C126.473 110.52 128.529 111.024 130.345 109.836C132.105 108.684 133.081 106.304 132.557 104.428C131.669 101.264 129.585 98.7764 126.537 97.4884C119.329 94.4444 109.361 99.1524 105.769 108.444C102.233 117.584 107.209 125.2 115.301 125.496C117.933 125.592 120.677 124.872 123.165 123.536C122.657 124.888 123.201 125.996 124.373 126.036C125.541 126.076 126.897 125.04 127.437 123.72L130.929 115.224C131.481 113.884 131.069 112.596 129.977 112.34H129.973Z" fill="#FFFF00"/>
<path d="M100.393 75.6797C108.369 93.3477 129.509 99.9717 141.177 92.9637C122.097 82.1397 100.393 75.6797 100.393 75.6797Z" fill="#ED5668"/>
<path d="M105.993 67.0195C89.5535 75.8475 75.4575 87.3955 74.3415 103.164C73.3895 117.288 89.2375 130.412 110.533 129.208C131.829 128.008 133.53 110.964 135.254 101.236" stroke="#3F220F" stroke-width="3.6" stroke-linecap="round" stroke-linejoin="round"/>
<path d="M173.762 98.4062C175.07 108.85 170.706 116.234 164.794 121.078" stroke="#CCCCCC" stroke-width="2.408" stroke-linecap="round" stroke-linejoin="round"/>
<path d="M178.11 93.4492C179.95 100.757 180.638 112.217 172.598 120.257" stroke="#CCCCCC" stroke-width="2.408" stroke-linecap="round" stroke-linejoin="round"/>
<path d="M23.1292 40.7549C23.3132 41.9589 23.1412 43.0669 22.6252 44.0749C22.1052 45.0829 21.3533 45.9109 20.3653 46.5469C19.3773 47.1869 18.3372 47.6989 17.2492 48.0909C16.1612 48.4789 15.0532 48.7589 13.9332 48.9309C13.6012 48.9829 13.1932 49.0269 12.7172 49.0669C12.0972 49.1189 9.88526 49.1949 9.46526 47.2709C9.07726 45.4869 10.6812 44.4789 11.3372 44.5269C12.1692 44.5909 13.0773 44.5469 14.0653 44.3949C14.9253 44.2629 15.7412 43.9829 16.5092 43.5509C17.2772 43.1189 17.6052 42.5429 17.4932 41.8149C17.3452 40.8309 16.5532 40.1309 15.1172 39.7189C13.9892 39.4709 13.0492 39.2069 12.3012 38.9269C11.5532 38.6469 10.7892 38.2749 10.0212 37.8029C9.24922 37.3309 8.6412 36.7229 8.2012 35.9789C7.7572 35.2349 7.4572 34.3269 7.2972 33.2589C7.1412 32.2189 7.29727 31.1749 7.76927 30.1229C9.16527 26.8749 11.9612 24.9309 17.0372 24.1629C18.6572 23.9189 19.9852 25.0149 20.0092 26.6509C20.0092 26.9029 19.7212 28.9429 17.5852 29.3709C17.0812 29.4709 16.5532 29.5709 16.0052 29.7469C15.4572 29.9229 14.8892 30.1429 14.3012 30.4149C13.7132 30.6869 13.2532 31.0389 12.9172 31.4749C12.5852 31.9109 12.4572 32.3949 12.5372 32.9269C12.6092 33.4069 12.8533 33.8389 13.2693 34.2229C13.6853 34.6069 14.0813 34.8749 14.4613 35.0269C14.8413 35.1789 15.3212 35.3589 15.8972 35.5669C16.0132 35.6069 16.4852 35.7469 17.3172 35.9949C18.1452 36.2389 18.6892 36.4149 18.9492 36.5229C19.2092 36.6309 19.6652 36.8349 20.3132 37.1349C20.9612 37.4349 21.4212 37.7309 21.6972 38.0189C21.9732 38.3069 22.2573 38.6949 22.5533 39.1789C22.8493 39.6669 23.0412 40.1909 23.1292 40.7509V40.7549Z" fill="white"/>
<path d="M40.769 32.7762C40.925 33.7962 40.953 34.9202 40.861 36.1562C40.769 37.3922 40.545 38.4402 40.193 39.3002C39.077 42.3202 36.941 44.0722 33.789 44.5482C31.253 44.9322 29.089 44.2922 27.285 42.6322C25.485 40.9722 24.373 38.7522 23.953 35.9762C23.665 34.0842 23.709 32.2481 24.085 30.4681C24.461 28.6881 25.241 27.1242 26.425 25.7802C27.609 24.4362 29.093 23.6282 30.877 23.3562C32.585 23.0962 34.165 23.3962 35.617 24.2562C37.065 25.1162 38.217 26.2921 39.073 27.7881C39.925 29.2841 40.489 30.9482 40.769 32.7762ZM36.373 33.7201C36.269 33.0401 36.121 32.3801 35.925 31.7401C35.729 31.1001 35.465 30.4562 35.141 29.8042C34.813 29.1522 34.373 28.6561 33.825 28.3121C33.277 27.9681 32.681 27.8441 32.041 27.9401C30.477 28.1761 29.409 28.9521 28.833 30.2681C28.257 31.5841 28.109 33.1602 28.389 35.0042C29.025 39.1962 30.621 41.1001 33.177 40.7161C34.669 40.4921 35.641 39.7202 36.101 38.4042C36.557 37.0882 36.649 35.5282 36.377 33.7201H36.373Z" fill="white"/>
<path d="M56.8611 40.4587C55.9211 40.9747 54.4251 40.8347 53.1451 39.1347C52.3491 38.0787 51.6091 37.1106 50.9531 36.2106C50.2971 35.3106 49.7331 34.5027 49.2651 33.7787C49.2091 33.7387 49.157 33.7187 49.109 33.7267C48.909 33.8067 48.637 33.8987 48.285 33.9987C47.933 34.1027 47.6891 34.1747 47.5491 34.2227C47.4771 34.2347 47.4451 34.2827 47.4611 34.3667C47.5691 35.3307 47.7251 36.7387 48.0411 38.5747C48.5531 41.5387 47.045 42.1467 46.409 42.2427C45.769 42.3387 44.3851 42.3267 43.9651 39.5507C43.8531 38.8187 43.785 38.0747 43.705 37.3347C43.397 34.8147 42.869 30.7147 42.121 25.0387C42.109 24.9547 42.073 24.9147 42.013 24.9227C42.001 24.9227 41.9771 24.9347 41.9411 24.9507C41.7731 24.9747 40.1331 25.2987 39.8811 23.6267C39.7251 22.6027 40.401 21.3147 42.817 20.9507C46.113 20.4507 50.3891 20.4066 51.9331 21.1866C53.6851 22.0386 54.713 23.4547 55.013 25.4427C55.185 26.5827 55.053 27.7267 54.613 28.8707C54.173 30.0147 53.4771 30.9667 52.5251 31.7147C52.4771 31.7347 52.4571 31.7627 52.4611 31.7987C52.4651 31.8347 52.485 31.8707 52.513 31.9027C53.133 32.6507 54.2251 33.8427 55.7771 35.4707C56.2651 35.9827 56.677 36.4747 57.097 36.8707C58.477 38.1747 57.7971 39.9347 56.8571 40.4507L56.8611 40.4587ZM50.493 26.7866L50.4771 26.6947C50.3371 25.7587 49.8651 25.0627 49.0611 24.6027C48.3051 24.1827 47.4931 24.0387 46.6331 24.1707L46.3611 24.2106C46.1891 24.2346 46.1131 24.2867 46.1251 24.3587C46.4811 27.0427 46.7331 29.0347 46.8811 30.3267C46.8971 30.4347 46.965 30.4827 47.089 30.4627L47.2331 30.4427C47.5851 30.3907 47.9931 30.2547 48.4531 30.0347C48.9851 29.7947 49.4811 29.3786 49.9371 28.7866C50.3931 28.1986 50.577 27.5306 50.489 26.7866H50.493Z" fill="white"/>
<path d="M72.9291 38.0251C71.9891 38.5411 70.493 38.4011 69.213 36.7011C68.417 35.6451 67.677 34.6771 67.021 33.7771C66.365 32.8771 65.8011 32.0691 65.3331 31.3451C65.2771 31.3051 65.2251 31.2851 65.1771 31.2931C64.9771 31.3731 64.7051 31.4651 64.3531 31.5651C64.0051 31.6691 63.757 31.7411 63.617 31.7891C63.545 31.8011 63.5131 31.8491 63.5291 31.9331C63.6371 32.8971 63.793 34.3051 64.109 36.1411C64.621 39.1051 63.1171 39.7131 62.4771 39.809C61.8371 39.9051 60.4531 39.8931 60.0331 37.1171C59.9211 36.3851 59.8531 35.6411 59.7731 34.9011C59.4651 32.3811 58.937 28.2811 58.189 22.6051C58.177 22.5211 58.1411 22.4811 58.0771 22.4891C58.0651 22.4891 58.041 22.5011 58.005 22.5171C57.837 22.5411 56.1971 22.8651 55.9451 21.1931C55.7891 20.1691 56.4651 18.8811 58.8811 18.5171C62.1771 18.0171 66.453 17.9731 67.997 18.7531C69.749 19.6051 70.7771 21.0211 71.0811 23.0131C71.2531 24.1531 71.1211 25.2931 70.6771 26.4411C70.2371 27.5851 69.541 28.5371 68.589 29.2851C68.541 29.3051 68.5211 29.3331 68.5291 29.3691C68.5371 29.4051 68.5531 29.4411 68.5811 29.4731C69.2051 30.2211 70.2931 31.4131 71.8451 33.0411C72.3331 33.5531 72.7451 34.0451 73.1651 34.4411C74.5451 35.7491 73.865 37.5051 72.925 38.0211L72.9291 38.0251ZM66.5611 24.3531L66.5451 24.2611C66.4051 23.3291 65.9331 22.6291 65.1291 22.1691C64.3731 21.7491 63.561 21.6051 62.701 21.7371L62.4291 21.7771C62.2611 21.8011 62.181 21.8531 62.193 21.9251C62.549 24.6131 62.8011 26.6011 62.9491 27.8931C62.9651 28.0011 63.0331 28.0491 63.1571 28.0291L63.305 28.0051C63.657 27.9531 64.061 27.8171 64.5251 27.5971C65.061 27.3571 65.553 26.9411 66.009 26.3491C66.465 25.7611 66.6491 25.0931 66.5611 24.3491V24.3531Z" fill="white"/>
<path d="M87.9013 18.6334C87.6013 19.1494 87.3574 19.7614 87.0534 20.4134C86.5214 21.4734 85.8294 22.9694 84.9814 24.9014C84.1334 26.8334 83.5534 28.1294 83.2454 28.7814C83.2094 28.8614 83.2014 28.9814 83.2254 29.1374C83.3374 30.0374 83.5054 31.3694 83.7374 33.1334C83.8214 33.7734 83.8654 33.9214 83.9094 34.4254C84.1174 36.9974 82.4413 37.1534 81.8013 37.2054C80.9373 37.2734 79.8134 36.7054 79.6534 34.6614C79.4774 32.4174 79.3494 30.6973 79.1694 29.5093C79.1534 29.4133 79.1013 29.2974 79.0053 29.1614C78.5373 28.4494 77.6214 27.2454 76.2614 25.5414C74.8974 23.8374 74.0413 22.7694 73.6933 22.3414C73.6013 22.2294 73.3014 21.7614 72.6454 21.0574C71.7614 20.1094 72.4174 18.5974 73.3134 17.9894C74.3654 17.2734 75.7134 17.7894 76.3454 18.7334C76.9534 19.6374 77.6014 20.6054 77.8294 20.9334C79.1894 22.8734 80.1534 24.2934 80.7254 25.2014C80.7854 25.2694 80.8334 25.2974 80.8694 25.2934C80.9054 25.2894 80.9294 25.2454 80.9414 25.1694C81.0694 24.8454 82.0934 22.2734 83.6694 17.3374C84.2494 15.5214 86.0334 15.4733 86.7814 15.6093C87.5214 15.7453 88.8413 17.0094 87.9013 18.6334Z" fill="white"/>
<path d="M158.705 48.7109C172.061 45.9469 173.229 29.6549 171.761 18.5469C166.337 19.2029 155.993 18.1789 150.205 27.2989C145.717 34.3629 152.313 50.0349 158.705 48.7109Z" fill="#D8A068"/>
<path d="M167.909 24.5271C167.909 24.5271 167.885 41.0071 159.137 41.9111C153.257 36.6311 152.717 30.0591 152.717 30.0591C152.717 30.0591 159.113 23.0031 167.909 24.5231V24.5271Z" fill="#FFE8C2"/>
<path d="M170.937 31.9789C170.937 31.9789 169.993 26.0709 168.549 22.3389C163.289 21.0789 157.657 21.1469 155.853 21.8069C167.193 18.8869 171.761 18.5469 171.761 18.5469C171.761 18.5469 171.941 29.7989 170.941 31.9789H170.937Z" fill="#3F220F"/>
<path d="M158.705 48.7109C172.061 45.9469 173.229 29.6549 171.761 18.5469C166.337 19.2029 154.481 19.4429 148.681 28.5709C144.189 35.6429 152.313 50.0349 158.705 48.7109Z" stroke="#3F220F" stroke-width="3.6" stroke-linecap="round" stroke-linejoin="round"/>
<path d="M148.777 30.089C150.021 32.597 162.301 33.013 162.301 33.013C162.301 33.013 162.321 18.637 159.457 18.625C156.565 18.617 146.977 26.457 148.773 30.089H148.777Z" fill="#FCEE21" stroke="#3F220F" stroke-width="3.6" stroke-linecap="round" stroke-linejoin="round"/>
<path d="M164.705 44.8967C162.517 44.0727 162.753 33.4727 162.753 33.4727C162.753 33.4727 175.689 34.1047 175.277 36.4487C174.877 38.7127 167.641 46.0007 164.705 44.8967Z" fill="#FCEE21" stroke="#3F220F" stroke-width="3.6" stroke-linecap="round" stroke-linejoin="round"/>
<path d="M158.877 31.8245C157.353 33.2565 157.249 35.4645 158.597 36.7485C159.913 38.0005 162.153 37.9245 163.641 36.5845L166.169 34.3125C167.713 32.9285 167.977 30.6885 166.717 29.2965C165.421 27.8685 163.049 27.9045 161.465 29.3885L158.873 31.8205L158.877 31.8245Z" fill="#FCEE21" stroke="#3F220F" stroke-width="3.6" stroke-linecap="round" stroke-linejoin="round"/>
<path d="M168.541 37.5609L164.885 36.2969L166.237 39.0929" stroke="#3F220F" stroke-width="2" stroke-linecap="round" stroke-linejoin="round"/>
<path d="M158.457 26.8516L160.045 30.7316L156.725 29.1276" stroke="#3F220F" stroke-width="2" stroke-linecap="round" stroke-linejoin="round"/>
<path d="M114.029 36.1639C103.101 28.3879 108.929 13.0679 114.957 3.50391C119.601 6.22391 129.429 9.3359 130.825 19.9519C131.909 28.1759 119.269 39.8959 114.029 36.1639Z" fill="#D8A068"/>
<path d="M116.689 10.1602C116.689 10.1602 109.741 25.2162 117.285 29.4802C124.861 26.9762 128.141 21.1802 128.141 21.1802C128.141 21.1802 125.317 12.2162 116.689 10.1602Z" fill="#FFE8C2"/>
<path d="M110.021 16.0839C110.021 16.0839 113.374 11.0599 116.266 8.2199C121.57 9.1319 126.653 11.3959 128.021 12.7119C118.957 5.59989 114.962 3.50391 114.962 3.50391C114.962 3.50391 110.041 13.7039 110.021 16.0839Z" fill="#3F220F"/>
<path d="M110.021 31.9279C104.965 23.6479 109.893 11.5439 114.961 3.50391C119.605 6.22391 130.273 11.0879 131.677 21.7119C132.765 29.9479 119.277 39.8959 114.033 36.1639C112.293 34.9279 110.977 33.4959 110.021 31.9279Z" stroke="#3F220F" stroke-width="3.2" stroke-linecap="round" stroke-linejoin="round"/>
<path d="M118.381 89.1412C97.9094 82.9172 89.2574 70.0012 83.7734 56.6252C100.401 56.6372 99.0734 14.4492 135.833 20.0372C178.289 32.3252 154.417 69.9012 169.401 77.0932C158.365 86.7452 151.113 97.4732 118.381 89.1452V89.1412Z" fill="#D8A068"/>
<path d="M149.641 63.9496C148.745 66.4536 150.137 69.2376 152.749 70.1616C155.365 71.0856 158.209 69.7976 159.097 67.2856C159.981 64.7816 158.585 62.0056 155.977 61.0896C153.369 60.1736 150.533 61.4496 149.637 63.9496H149.641Z" fill="#FFA492"/>
<path d="M169.105 77.3637C163.673 79.8957 149.693 76.4037 147.821 67.3877C146.785 63.8917 146.565 59.9637 138.461 57.2917C129.741 53.1957 124.157 55.9956 118.057 61.6356C111.721 66.3796 95.1689 65.4477 83.4609 56.8957C92.3969 73.8997 98.4169 85.0117 125.809 91.2477C153.825 97.6277 163.733 84.9917 169.109 77.3717L169.105 77.3637Z" fill="#FFE8C2"/>
<g style="mix-blend-mode:multiply" opacity="0.3">
<path d="M91.2773 68.7891C91.2773 68.7891 112.337 87.2211 148.361 90.2531C135.905 95.2011 99.5653 83.7611 91.2773 68.7891Z" fill="#DAAA75"/>
</g>
<g style="mix-blend-mode:multiply" opacity="0.5">
<path d="M154.825 27.716C154.909 36.532 147.637 39.308 141.233 35.58C136.181 36.772 134.285 31.696 134.285 31.696C126.985 34.428 126.381 24.708 128.989 23.324C131.597 21.94 154.793 24.224 154.825 27.716Z" fill="#DAAA75"/>
</g>
<path d="M122.981 90.6607C97.0812 82.7487 89.3171 70.4087 83.8291 57.0287C101.517 52.7727 99.1291 16.3087 134.009 20.1047C176.093 30.0647 155.877 60.1047 169.477 77.5007C161.353 88.9367 143.309 95.9247 122.981 90.6607Z" stroke="#3F220F" stroke-width="3.6" stroke-linecap="round" stroke-linejoin="round"/>
<path d="M143.385 31.7722C139.709 33.6282 136.365 31.0482 136.509 28.5762C132.277 30.9842 127.309 26.5802 132.377 20.8042C137.561 14.8962 148.909 16.4602 152.853 21.5042C158.197 28.3442 149.013 37.9202 143.385 31.7722Z" fill="#754C24" stroke="#3F220F" stroke-width="3.6" stroke-linecap="round" stroke-linejoin="round"/>
<path d="M146.829 26.1562C146.829 26.1562 146.541 31.4122 142.317 32.1962L146.829 26.1562Z" fill="#C69C6D"/>
<path d="M146.829 26.1562C146.829 26.1562 146.541 31.4122 142.317 32.1962" stroke="#3F220F" stroke-width="3.6" stroke-linecap="round" stroke-linejoin="round"/>
<path d="M139.405 24.5234C139.405 24.5234 137.909 29.3074 134.033 29.2474L139.405 24.5234Z" fill="#C69C6D"/>
<path d="M139.405 24.5234C139.405 24.5234 137.909 29.3074 134.033 29.2474" stroke="#3F220F" stroke-width="3.6" stroke-linecap="round" stroke-linejoin="round"/>
<path d="M138.238 57.2346C142.634 58.1986 143.782 60.3666 141.586 61.5106C139.39 62.6546 136.102 62.6706 133.778 59.7986C131.49 56.9706 135.118 56.5506 138.238 57.2386V57.2346Z" fill="#FFA492" stroke="#3F220F" stroke-width="2.4" stroke-miterlimit="10" stroke-linecap="round"/>
<path d="M106.218 53.4912C105.174 56.2712 106.682 59.3672 109.59 60.3952C112.498 61.4232 115.698 59.9912 116.734 57.2072C117.766 54.4232 116.254 51.3432 113.354 50.3192C110.458 49.2992 107.262 50.7152 106.218 53.4912Z" fill="#FFA492"/>
<path d="M140.761 51.8725C140.801 53.7685 141.965 55.3845 143.317 55.3845C144.629 55.3845 145.521 53.8605 145.365 52.0685C145.213 50.3645 144.153 48.9765 142.957 48.8765C141.725 48.7765 140.729 50.0805 140.765 51.8685L140.761 51.8725Z" fill="#3F220F"/>
<path d="M132.617 48.4143C131.305 49.9503 131.085 52.0623 132.161 53.0223C133.205 53.9503 134.997 53.3743 136.141 51.8303C137.225 50.3663 137.369 48.5063 136.485 47.5823C135.573 46.6303 133.857 46.9583 132.613 48.4103L132.617 48.4143Z" fill="#3F220F"/>
<path d="M137.177 62.0547C137.177 62.0547 138.601 68.3707 131.905 69.0307" stroke="#3F220F" stroke-width="2.4" stroke-miterlimit="10" stroke-linecap="round"/>
<path d="M136.209 67.3789C136.209 67.3789 138.733 68.9869 139.193 70.9869" stroke="#3F220F" stroke-width="2.4" stroke-miterlimit="10" stroke-linecap="round"/>
<path d="M133.013 41.4246C133.013 41.4246 134.889 42.5846 137.457 41.1406" stroke="#3F220F" stroke-width="2.4" stroke-miterlimit="10" stroke-linecap="round"/>
<path d="M144.541 42.5547C144.541 42.5547 146.181 45.1347 147.725 45.1947" stroke="#3F220F" stroke-width="2.4" stroke-miterlimit="10" stroke-linecap="round"/>
<path d="M110.252 58.0746C110.252 58.0746 104.064 69.3506 102.844 75.6706C101.32 83.5746 98.3964 95.3986 109.736 95.3986C116.32 95.3986 122.596 81.9946 122.824 72.9906C123.12 61.3426 121.596 56.2266 121.596 56.2266L110.248 58.0746H110.252Z" fill="#D8A068"/>
<path d="M95.4082 78.6686C95.3002 78.8846 95.5282 78.4606 95.4082 78.6686C87.6322 92.3086 102.284 107.925 115.92 90.7966C100.388 84.8326 95.4082 78.6686 95.4082 78.6686Z" fill="#D8A068"/>
<path d="M100.617 83.04C100.617 83.04 94.6648 86.676 95.4168 92.62C91.5248 88.728 91.1128 83.068 91.1128 83.068L95.4048 78.668L100.613 83.044L100.617 83.04Z" fill="#FF6673"/>
<path d="M108.764 57.9108C108.512 58.8548 115.08 65.2628 122.104 61.9388C121.896 59.1348 121.7 57.5628 121.7 57.5628C121.7 57.5628 127.36 55.2548 124.768 51.9228C120.644 46.6148 110.676 50.7228 108.764 57.9148V57.9108Z" fill="#FFE8C2"/>
<path d="M93.0967 90.7074C97.3127 98.9954 109.049 103.111 115.457 93.0954C123.305 81.6914 121.853 58.7114 121.853 58.7114C130.977 53.0234 127.189 49.5234 119.985 49.5234C112.397 49.5234 109.297 55.9674 108.437 59.4274C107.853 61.7754 100.677 75.0154 101.233 85.5954" stroke="#3F220F" stroke-width="3.6" stroke-linecap="round" stroke-linejoin="round"/>
</svg>
