<svg width="45" height="45" viewBox="0 0 45 45" fill="none" xmlns="http://www.w3.org/2000/svg">
<path d="M0 22.5011C0 34.9075 10.0882 45 22.5011 45C34.9096 45 45 34.9118 45 22.5011C45 10.0882 34.9053 0 22.5011 0C10.0947 0 0 10.0882 0 22.5011ZM2.29668 22.5011C2.29668 11.3568 11.3589 2.29454 22.5011 2.29454C33.6411 2.29454 42.7033 11.3589 42.7033 22.5011C42.7033 33.6411 33.6411 42.7033 22.5011 42.7033C11.3589 42.7033 2.29454 33.6411 2.29454 22.5011H2.29668Z" fill="white"/>
<path d="M22.4923 43.756C34.2305 43.756 43.7463 34.2403 43.7463 22.502C43.7463 10.7638 34.2305 1.24805 22.4923 1.24805C10.754 1.24805 1.23828 10.7638 1.23828 22.502C1.23828 34.2403 10.754 43.756 22.4923 43.756Z" fill="#161082"/>
<path opacity="0.5" d="M22.4923 43.756C34.2305 43.756 43.7463 34.2403 43.7463 22.502C43.7463 10.7638 34.2305 1.24805 22.4923 1.24805C10.754 1.24805 1.23828 10.7638 1.23828 22.502C1.23828 34.2403 10.754 43.756 22.4923 43.756Z" fill="url(#paint0_radial_13120_25209)"/>
<path d="M22.4923 43.756C34.2305 43.756 43.7463 34.2403 43.7463 22.502C43.7463 10.7638 34.2305 1.24805 22.4923 1.24805C10.754 1.24805 1.23828 10.7638 1.23828 22.502C1.23828 34.2403 10.754 43.756 22.4923 43.756Z" fill="url(#paint1_radial_13120_25209)"/>
<path d="M16.6605 22.6904C16.755 22.1194 17.1392 21.7331 17.7123 21.7331C18.2875 21.7331 18.6696 22.216 18.6696 22.6904H16.6605ZM20.2022 23.5532C20.2966 21.9262 19.4359 20.5847 17.7123 20.5847C16.2742 20.5847 15.128 21.6365 15.128 23.1733C15.128 24.7982 16.1797 25.7555 17.8067 25.7555C18.8606 25.7555 19.9145 25.2747 20.2022 24.1306H18.764C18.5752 24.5105 18.2875 24.7016 17.9055 24.7016C17.2336 24.7016 16.8494 24.2229 16.8494 23.5532H20.2022ZM40.0202 25.2768C41.2651 25.2768 41.7438 24.2251 41.7438 23.1712C41.7438 22.1173 41.263 21.0634 40.0202 21.0634C38.8718 21.0634 38.3932 22.1151 38.3932 23.1712C38.3932 24.2272 38.8718 25.2768 40.0202 25.2768ZM42.319 25.6589H41.7438V24.7016C41.4561 25.3734 40.692 25.7555 40.0202 25.7555C38.5821 25.7555 37.8201 24.5106 37.8201 23.1712C37.8201 21.8297 38.4898 20.5847 40.0202 20.5847C40.7865 20.5847 41.4561 20.9711 41.7438 21.6365V18.8633H42.3169V25.661M20.4898 20.7779H21.1595L22.4044 24.9935L23.5527 20.7779H24.2224L25.3729 24.9935L26.6178 20.7779H27.382L25.8516 25.661H25.1797L23.9369 21.5463L22.7865 25.661H22.1168L20.4898 20.7779ZM32.3638 23.1733C32.3638 24.6093 31.5954 25.7576 30.0629 25.7576C28.5325 25.7576 27.7662 24.6093 27.7662 23.1733C27.7662 21.7374 28.5325 20.5869 30.0629 20.5869C31.501 20.6835 32.3596 21.8318 32.3596 23.1755M28.3393 23.1755C28.3393 24.2272 28.9145 25.279 30.0629 25.279C31.2134 25.279 31.7865 24.2272 31.7865 23.1733C31.7865 22.1194 31.2134 21.0655 30.0629 21.0655C28.9145 21.1621 28.3393 22.2139 28.3393 23.1733M33.2224 20.7779H33.7977V21.9284C33.9301 21.5553 34.1774 21.2337 34.5041 21.01C34.8307 20.7864 35.2199 20.672 35.6157 20.6835V21.2566C34.5639 21.1621 33.7977 22.025 33.7977 22.9823V25.5666H33.2246V20.7779M36.2875 18.9577H36.9572V25.6589H36.382V18.9577H36.2875ZM4.88305 23.1712C4.88305 22.5981 5.07623 21.8297 5.84036 21.8297C6.60449 21.8297 6.79767 22.5959 6.79767 23.1712C6.79767 23.7464 6.60449 24.5105 5.84036 24.5105C5.07623 24.5105 4.88305 23.8409 4.88305 23.1712ZM3.25605 23.1712C3.25605 24.6071 4.30995 25.7555 5.84036 25.7555C7.37291 25.7555 8.42681 24.7037 8.42681 23.1712C8.42681 21.7331 7.37291 20.5847 5.83821 20.5847C4.30781 20.6813 3.25391 21.7331 3.25391 23.1733M9.28753 20.7758H10.8201V21.4476C11.1056 20.9668 11.7774 20.6813 12.3505 20.6813C13.9775 20.6813 14.0741 21.8297 14.0741 22.5959V25.6589H12.4492V23.3622C12.4492 22.6904 12.5415 22.0228 11.6808 22.0228C11.1077 22.0228 10.8201 22.5015 10.8201 23.0746V25.7576H9.28539V20.7715" fill="white"/>
<defs>
<radialGradient id="paint0_radial_13120_25209" cx="0" cy="0" r="1" gradientUnits="userSpaceOnUse" gradientTransform="translate(1005.79 761.078) scale(6917.11)">
<stop stop-color="white" stop-opacity="0.5"/>
<stop offset="0.283" stop-color="#ADABD3" stop-opacity="0.595"/>
<stop offset="0.58" stop-color="#5C58A8" stop-opacity="0.695"/>
<stop offset="0.791" stop-color="#2A248C" stop-opacity="0.766"/>
<stop offset="1" stop-color="#161082" stop-opacity="0.8"/>
</radialGradient>
<radialGradient id="paint1_radial_13120_25209" cx="0" cy="0" r="1" gradientTransform="matrix(2035.75 2608.51 -3346.12 2611.42 -139.415 1212.8)" gradientUnits="userSpaceOnUse">
<stop stop-color="white" stop-opacity="0.9"/>
<stop offset="0.283" stop-color="#ADABD3" stop-opacity="0.615"/>
<stop offset="0.58" stop-color="#5C58A8" stop-opacity="0.316"/>
<stop offset="0.791" stop-color="#2A248C" stop-opacity="0.104"/>
<stop offset="1" stop-color="#161082" stop-opacity="0"/>
</radialGradient>
</defs>
</svg>
