<svg width="16" height="16" viewBox="0 0 16 16" fill="none" xmlns="http://www.w3.org/2000/svg">
<path d="M5.55 1C6.05741 1 6.46875 1.39175 6.46875 1.875V2.45833H9.53125V1.875C9.53125 1.39175 9.94261 1 10.45 1C10.9574 1 11.3688 1.39175 11.3688 1.875V2.45833H12.2875C13.3024 2.45833 14.125 3.24184 14.125 4.20833V5.375H1.875V4.20833C1.875 3.24184 2.69768 2.45833 3.7125 2.45833H4.63125V1.875C4.63125 1.39175 5.04259 1 5.55 1Z" fill="#A3A3A3"/>
<path d="M14.125 13.1826C14.125 14.1863 13.302 15 12.2871 15H3.71289C2.69807 15 1.875 14.1863 1.875 13.1826V6.25H14.125V13.1826ZM6.34473 7.89258C5.96944 7.89261 5.66555 7.9283 5.43359 8C5.20172 8.07171 5.03303 8.13543 4.92773 8.19043C4.85835 8.2311 4.84053 8.29116 4.87402 8.37012L5.11426 8.91895C5.14038 8.97582 5.16781 9.00978 5.19629 9.01953C5.22737 9.02657 5.27133 9.01744 5.32617 8.99121C5.41229 8.94817 5.52592 8.90437 5.66699 8.86133C5.80805 8.81834 5.96255 8.79688 6.12988 8.79688C6.61537 8.79696 6.85839 8.99346 6.8584 9.38574C6.85821 9.8185 6.52306 10.0351 5.85352 10.0352H5.80664C5.75411 10.0352 5.71118 10.0454 5.67773 10.0645C5.61556 10.1051 5.55035 10.1536 5.4834 10.2109C5.41885 10.2659 5.34894 10.3348 5.27246 10.416C5.24867 10.4422 5.23642 10.4659 5.23633 10.4873C5.23651 10.504 5.24871 10.5287 5.27246 10.5596C5.34871 10.6406 5.41902 10.7103 5.4834 10.7676C5.55027 10.8225 5.61563 10.8705 5.67773 10.9111C5.70641 10.93 5.74962 10.9394 5.80664 10.9395H5.88965C6.23857 10.9395 6.51247 10.9997 6.71094 11.1191C6.91168 11.2364 7.0127 11.4101 7.0127 11.6396C7.01259 11.8618 6.93243 12.0292 6.77246 12.1416C6.61461 12.254 6.4001 12.3105 6.12988 12.3105C5.9125 12.3105 5.7221 12.287 5.55957 12.2393C5.39946 12.1891 5.27047 12.1411 5.1748 12.0957C5.11996 12.0695 5.07695 12.0593 5.0459 12.0664C5.01481 12.0736 4.98627 12.1087 4.95996 12.1709L4.71191 12.7559C4.67635 12.8368 4.69425 12.8958 4.76562 12.9316C4.87092 12.989 5.03707 13.0512 5.26172 13.1182C5.48655 13.1826 5.79404 13.2148 6.18359 13.2148C6.56611 13.2148 6.90715 13.1577 7.20605 13.043C7.50503 12.9258 7.74031 12.7506 7.91016 12.5186C8.08215 12.2867 8.16785 11.9984 8.16797 11.6543C8.16797 11.3196 8.0592 11.0464 7.8418 10.8359C7.62413 10.6255 7.34039 10.4967 6.99121 10.4512V10.4336C7.67266 10.2638 8.01339 9.84266 8.01367 9.1709C8.01367 8.88877 7.93915 8.65281 7.79102 8.46387C7.64277 8.27497 7.44338 8.13183 7.19238 8.03613C6.94123 7.94046 6.65805 7.8926 6.34473 7.89258ZM10.4082 7.86426L9.03711 8.55664C8.99165 8.57817 8.95654 8.60615 8.93262 8.63965C8.85618 8.77356 8.79031 8.94596 8.73535 9.15625C8.72594 9.1941 8.72597 9.22157 8.73535 9.23828C8.74269 9.25491 8.76431 9.27458 8.7998 9.2959C8.90484 9.34124 9.00094 9.37704 9.08691 9.40332C9.17528 9.42958 9.257 9.44899 9.33105 9.46094C9.3692 9.46562 9.41232 9.45487 9.45996 9.42871L9.95898 9.17773V12.9355C9.95909 13.0068 9.97342 13.0573 10.002 13.0859C10.033 13.112 10.0849 13.125 10.1562 13.125H10.8955C10.9671 13.125 11.0182 13.1122 11.0469 13.0859C11.0778 13.0573 11.0927 13.0068 11.0928 12.9355V7.86426H10.4082Z" fill="#A3A3A3"/>
</svg>
