<svg width="16" height="16" viewBox="0 0 16 16" fill="none" xmlns="http://www.w3.org/2000/svg">
<path fill-rule="evenodd" clip-rule="evenodd" d="M14 8C14 11.3137 11.3137 14 8 14C4.68629 14 2 11.3137 2 8C2 4.68629 4.68629 2 8 2C11.3137 2 14 4.68629 14 8ZM8 11.45C8.24852 11.45 8.45 11.2485 8.45 11V7.4C8.45 7.15148 8.24852 6.95 8 6.95C7.75148 6.95 7.55 7.15148 7.55 7.4V11C7.55 11.2485 7.75148 11.45 8 11.45ZM8 5C8.33138 5 8.6 5.26863 8.6 5.6C8.6 5.93137 8.33138 6.2 8 6.2C7.66862 6.2 7.4 5.93137 7.4 5.6C7.4 5.26863 7.66862 5 8 5Z" fill="#69D05A"/>
</svg>
