<svg width="16" height="16" viewBox="0 0 16 16" fill="none" xmlns="http://www.w3.org/2000/svg">
<path d="M12.3297 4.24609L11.4981 6.23136C11.341 6.59296 10.9539 6.87404 10.5781 6.87404H9.18763V7.12326C9.18763 7.32997 9.14296 7.49893 8.93624 7.49893H7.18611C6.97939 7.49893 6.68781 7.3301 6.68781 7.12326V6.87404H5.52903C5.15297 6.87404 4.73557 6.59296 4.57864 6.23136L3.72028 4.25377C3.47171 4.46011 3.31299 4.77268 3.31299 5.12045V14.2481C3.31299 14.8267 3.75241 15.3043 4.31484 15.3659C4.37167 15.7243 4.68194 15.9996 5.05608 15.9996C5.42753 15.9996 5.73639 15.7486 5.7963 15.3737H10.3285C10.3883 15.7486 10.697 15.9996 11.0684 15.9996C11.4427 15.9996 11.6922 15.7243 11.7488 15.3657C12.3102 15.303 12.6874 14.8258 12.6874 14.2482V5.12058C12.6875 4.76756 12.5846 4.45243 12.3297 4.24609Z" fill="#A3A3A3"/>
<path d="M11.6837 3.99971H9.4372V0.374269C9.4372 0.167423 9.38856 0 9.18171 0H6.94147C6.73476 0 6.56247 0.167551 6.56247 0.374269V3.99971H4.43781C4.3445 3.99971 4.25426 4.01046 4.16748 4.03197L5.03711 6.03387C5.11506 6.21371 5.34942 6.3746 5.52875 6.3746H10.5778C10.7569 6.3746 10.9912 6.21281 11.0694 6.03285L11.9406 4.02736C11.8579 4.00778 11.7723 3.99971 11.6837 3.99971ZM8.68738 3.99971H7.31242V0.749946H8.68738V3.99971Z" fill="#A3A3A3"/>
</svg>
