<svg width="16" height="16" viewBox="0 0 16 16" fill="none" xmlns="http://www.w3.org/2000/svg">
<path d="M8 1C11.2998 1 12.9495 1.00026 13.9746 2.02539C14.9997 3.05051 15 4.70018 15 8C15 11.2998 14.9998 12.9495 13.9746 13.9746C12.9495 14.9998 11.2998 15 8 15C4.70018 15 3.05051 14.9997 2.02539 13.9746C1.00026 12.9495 1 11.2998 1 8C1 4.70017 1.00026 3.05051 2.02539 2.02539C3.05051 1.00026 4.70017 1 8 1ZM7.78125 4.5C7.41883 4.5 7.125 4.75709 7.125 5.07422V8.13672C7.125 8.289 7.19427 8.43532 7.31738 8.54297L9.50488 10.457C9.76112 10.6811 10.1764 10.6811 10.4326 10.457C10.6889 10.2328 10.6889 9.86878 10.4326 9.64453L8.4375 7.89844V5.07422C8.4375 4.75709 8.14368 4.5 7.78125 4.5Z" fill="#EB4E4E"/>
</svg>
