<svg width="16" height="16" viewBox="0 0 16 16" fill="none" xmlns="http://www.w3.org/2000/svg">
<path d="M10.8 11.8237L10.8 13L13.6 13C13.9713 13 14.3274 12.8683 14.5899 12.6339C14.8525 12.3995 15 12.0815 15 11.75L15 9.875C14.443 9.875 13.9089 9.67746 13.5151 9.32583C13.1212 8.97419 12.9 8.49728 12.9 8C12.9 7.50272 13.1212 7.02581 13.5151 6.67417C13.9089 6.32254 14.443 6.125 15 6.125L15 4.25C15 3.91848 14.8525 3.60054 14.5899 3.36612C14.3274 3.1317 13.9713 3 13.6 3L10.8 3L10.8 4.17625C10.8 4.34201 10.7263 4.50098 10.595 4.61819C10.4637 4.7354 10.2857 4.80125 10.1 4.80125C9.91435 4.80125 9.7363 4.7354 9.60503 4.61819C9.47375 4.50098 9.4 4.34201 9.4 4.17625L9.4 3L2.4 3C2.0287 3 1.6726 3.1317 1.41005 3.36612C1.1475 3.60054 1 3.91848 1 4.25L1 11.75C1 12.0815 1.1475 12.3995 1.41005 12.6339C1.6726 12.8683 2.0287 13 2.4 13L9.4 13L9.4 11.8237C9.4 11.658 9.47375 11.499 9.60502 11.3818C9.7363 11.2646 9.91435 11.1987 10.1 11.1987C10.2857 11.1987 10.4637 11.2646 10.595 11.3818C10.7262 11.499 10.8 11.658 10.8 11.8237ZM9.4 7.1175L9.4 5.94125C9.4 5.77549 9.47375 5.61652 9.60503 5.49931C9.7363 5.3821 9.91435 5.31625 10.1 5.31625C10.2857 5.31625 10.4637 5.3821 10.595 5.49931C10.7263 5.61652 10.8 5.77549 10.8 5.94125L10.8 7.1175C10.8 7.28326 10.7262 7.44223 10.595 7.55944C10.4637 7.67665 10.2857 7.7425 10.1 7.7425C9.91435 7.7425 9.7363 7.67665 9.60503 7.55944C9.47375 7.44223 9.4 7.28326 9.4 7.1175ZM9.4 10.0587L9.4 8.8825C9.4 8.71674 9.47375 8.55777 9.60503 8.44056C9.7363 8.32335 9.91435 8.2575 10.1 8.2575C10.2857 8.2575 10.4637 8.32335 10.595 8.44056C10.7262 8.55777 10.8 8.71674 10.8 8.8825L10.8 10.0587C10.8 10.2245 10.7262 10.3835 10.595 10.5007C10.4637 10.6179 10.2857 10.6837 10.1 10.6837C9.91435 10.6837 9.7363 10.6179 9.60502 10.5007C9.47375 10.3835 9.4 10.2245 9.4 10.0587Z" fill="#A3A3A3"/>
</svg>
